{
.appVersion = "3077";
classes = (
{
automatic = 1;

glyphs = (
{
glyphname = A;
layers = (
{
anchors = (
{
name = bottom;
position = "{298, 0}";
},
{
name = ogonek;
position = "{510, 10}";
},
{
name = top;
position = "{348, 665}";
}
);
layerId = "C8DF7272-19F4-4290-A6F2-EFA6DE6A61D8";
paths = (
{
closed = 1;
nodes = (
"405 586 LINE SMOOTH",
"391 621 OFFCURVE",
"379 653 OFFCURVE",
"370 688 CURVE",
"312 688 LINE",
"303 653 OFFCURVE",
"291 621 OFFCURVE",
"277 586 CURVE SMOOTH",
"85 100 LINE SMOOTH",
"67 55 OFFCURVE",
"48 26 OFFCURVE",
"19 23 CURVE",
"19 0 LINE",
"201 0 LINE",
"201 23 LINE",
"142 26 OFFCURVE",
"123 56 OFFCURVE",
"140 100 CURVE SMOOTH",
"176 192 LINE SMOOTH",
"187 219 OFFCURVE",
"199 222 OFFCURVE",
"227 222 CURVE SMOOTH",
"340 222 LINE SMOOTH",
"354 222 OFFCURVE",
"368 223 OFFCURVE",
"376 230 CURVE",
"426 100 LINE SMOOTH",
"442 58 OFFCURVE",
"442 26 OFFCURVE",
"389 23 CURVE",
"389 0 LINE",
"668 0 LINE",
"668 23 LINE",
"636 26 OFFCURVE",
"624 32 OFFCURVE",
"597 100 CURVE SMOOTH"
);
},
{
closed = 1;
nodes = (
"231 265 LINE SMOOTH",
"219 265 OFFCURVE",
"209 265 OFFCURVE",
"203 261 CURVE",
"281 460 LINE",
"283 460 LINE",
"352 289 LINE SMOOTH",
"360 269 OFFCURVE",
"353 265 OFFCURVE",
"335 265 CURVE SMOOTH"
);
}
);
width = 683;
},
{
anchors = (
{
name = bottom;
position = "{301, 0}";
},
{
name = ogonek;
position = "{516, 11}";
},
{
name = top;
position = "{316, 665}";
}
);
layerId = "EA003B4E-FCCC-40A4-9C34-984F621C71B7";
paths = (
{
closed = 1;
nodes = (
"380 586 LINE SMOOTH",
"367 621 OFFCURVE",
"355 653 OFFCURVE",
"346 688 CURVE",
"297 688 LINE",
"288 653 OFFCURVE",
"275 621 OFFCURVE",
"262 586 CURVE SMOOTH",
"85 100 LINE SMOOTH",
"66 49 OFFCURVE",
"44 26 OFFCURVE",
"2 23 CURVE",
"2 0 LINE",
"209 0 LINE",
"209 23 LINE",
"124 26 OFFCURVE",
"114 49 OFFCURVE",
"131 100 CURVE SMOOTH",
"178 232 LINE SMOOTH",
"189 261 OFFCURVE",
"201 264 OFFCURVE",
"230 264 CURVE SMOOTH",
"361 264 LINE SMOOTH",
"375 264 OFFCURVE",
"390 265 OFFCURVE",
"397 272 CURVE",
"454 100 LINE SMOOTH",
"477 33 OFFCURVE",
"463 26 OFFCURVE",
"395 23 CURVE",
"395 0 LINE",
"634 0 LINE",
"634 23 LINE",
"582 26 OFFCURVE",
"567 30 OFFCURVE",
"543 100 CURVE SMOOTH"
);
},
{
closed = 1;
nodes = (
"229 300 LINE SMOOTH",
"217 300 OFFCURVE",
"207 300 OFFCURVE",
"201 297 CURVE",
"297 562 LINE",
"299 562 LINE",
"381 319 LINE SMOOTH",
"387 303 OFFCURVE",
"380 300 OFFCURVE",
"363 300 CURVE SMOOTH"
);
}
);
width = 635;
}
);
leftKerningGroup = A;
rightKerningGroup = A;
unicode = 0041;
},
{
glyphname = Aogonek;
layers = (
{
anchors = (
{
name = _ogonek;
position = "{540, 0}";
},
{
name = bottom;
position = "{348, 0}";
},
{
name = ogonek;
position = "{510, 10}";
},
{
name = top;
position = "{348, 665}";
}
);
layerId = "C8DF7272-19F4-4290-A6F2-EFA6DE6A61D8";
paths = (
{
closed = 1;
nodes = (
"405 586 LINE SMOOTH",
"391 621 OFFCURVE",
"379 653 OFFCURVE",
"370 688 CURVE",
"312 688 LINE",
"303 653 OFFCURVE",
"291 621 OFFCURVE",
"277 586 CURVE SMOOTH",
"85 100 LINE SMOOTH",
"67 55 OFFCURVE",
"48 26 OFFCURVE",
"19 23 CURVE",
"19 0 LINE",
"201 0 LINE",
"201 23 LINE",
"142 26 OFFCURVE",
"123 56 OFFCURVE",
"140 100 CURVE SMOOTH",
"176 192 LINE SMOOTH",
"187 219 OFFCURVE",
"199 222 OFFCURVE",
"227 222 CURVE SMOOTH",
"339 222 LINE SMOOTH",
"353 222 OFFCURVE",
"367 223 OFFCURVE",
"375 230 CURVE",
"471 -16 LINE",
"536 0 LINE",
"668 0 LINE",
"668 23 LINE",
"636 26 OFFCURVE",
"624 32 OFFCURVE",
"597 100 CURVE SMOOTH"
);
},
{
closed = 1;
nodes = (
"231 265 LINE SMOOTH",
"219 265 OFFCURVE",
"209 265 OFFCURVE",
"203 261 CURVE",
"281 460 LINE",
"283 460 LINE",
"351 289 LINE SMOOTH",
"359 269 OFFCURVE",
"352 265 OFFCURVE",
"334 265 CURVE SMOOTH"
);
},
{
closed = 1;
nodes = (
"491 -235 OFFCURVE",
"524 -220 OFFCURVE",
"546 -190 CURVE",
"535 -174 LINE",
"496 -181 OFFCURVE",
"465 -168 OFFCURVE",
"465 -125 CURVE SMOOTH",
"465 -82 OFFCURVE",
"497 0 OFFCURVE",
"579 0 CURVE",
"515 10 LINE",
"435 -15 OFFCURVE",
"358 -73 OFFCURVE",
"358 -149 CURVE SMOOTH",
"358 -211 OFFCURVE",
"408 -235 OFFCURVE",
"454 -235 CURVE SMOOTH"
);
}
);
width = 683;
},
{
anchors = (
{
name = _ogonek;
position = "{541, 1}";
},
{
name = bottom;
position = "{316, 0}";
},
{
name = ogonek;
position = "{516, 11}";
},
{
name = top;
position = "{316, 665}";
}
);
layerId = "EA003B4E-FCCC-40A4-9C34-984F621C71B7";
paths = (
{
closed = 1;
nodes = (
"380 586 LINE SMOOTH",
"367 621 OFFCURVE",
"355 653 OFFCURVE",
"346 688 CURVE",
"297 688 LINE",
"288 653 OFFCURVE",
"275 621 OFFCURVE",
"262 586 CURVE SMOOTH",
"85 100 LINE SMOOTH",
"66 49 OFFCURVE",
"44 26 OFFCURVE",
"2 23 CURVE",
"2 0 LINE",
"209 0 LINE",
"209 23 LINE",
"124 26 OFFCURVE",
"114 49 OFFCURVE",
"131 100 CURVE SMOOTH",
"178 232 LINE SMOOTH",
"189 261 OFFCURVE",
"201 264 OFFCURVE",
"230 264 CURVE SMOOTH",
"361 264 LINE SMOOTH",
"375 264 OFFCURVE",
"390 265 OFFCURVE",
"397 272 CURVE",
"491 -7 LINE",
"510 0 LINE",
"633 0 LINE",
"633 23 LINE",
"582 26 OFFCURVE",
"566 30 OFFCURVE",
"543 100 CURVE SMOOTH"
);
},
{
closed = 1;
nodes = (
"229 300 LINE SMOOTH",
"217 300 OFFCURVE",
"207 300 OFFCURVE",
"201 297 CURVE",
"297 562 LINE",
"299 562 LINE",
"381 319 LINE SMOOTH",
"387 303 OFFCURVE",
"380 300 OFFCURVE",
"362 300 CURVE SMOOTH"
);
},
{
closed = 1;
nodes = (
"492 -235 OFFCURVE",
"521 -226 OFFCURVE",
"543 -201 CURVE",
"532 -185 LINE",
"487 -198 OFFCURVE",
"444 -180 OFFCURVE",
"444 -129 CURVE SMOOTH",
"444 -81 OFFCURVE",
"482 0 OFFCURVE",
"568 0 CURVE",
"511 14 LINE",
"436 -14 OFFCURVE",
"370 -79 OFFCURVE",
"370 -152 CURVE SMOOTH",
"370 -210 OFFCURVE",
"413 -235 OFFCURVE",
"462 -235 CURVE SMOOTH"
);
}
);
width = 634;
}
);
leftKerningGroup = A;
leftMetricsKey = "=A";
rightKerningGroup = A;
rightMetricsKey = "=A";
unicode = 0104;
},
{
glyphname = AE;
layers = (
{
anchors = (
{
name = bottom;
position = "{635, 0}";
},
{
name = ogonek;
position = "{913, 0}";
},
{
name = top;
position = "{605, 665}";
},
{
name = topleft;
position = "{360, 665}";
}
);
layerId = "C8DF7272-19F4-4290-A6F2-EFA6DE6A61D8";
paths = (
{
closed = 1;
nodes = (
"872 98 OFFCURVE",
"824 43 OFFCURVE",
"744 43 CURVE SMOOTH",
"669 43 LINE SMOOTH",
"609 43 OFFCURVE",
"593 53 OFFCURVE",
"593 100 CURVE SMOOTH",
"593 291 LINE SMOOTH",
"593 326 OFFCURVE",
"606 335 OFFCURVE",
"642 335 CURVE SMOOTH",
"717 335 LINE SMOOTH",
"757 335 OFFCURVE",
"786 321 OFFCURVE",
"788 272 CURVE",
"811 272 LINE",
"811 442 LINE",
"788 442 LINE",
"786 402 OFFCURVE",
"757 378 OFFCURVE",
"717 378 CURVE SMOOTH",
"640 378 LINE SMOOTH",
"619 378 OFFCURVE",
"604 376 OFFCURVE",
"593 368 CURVE",
"593 565 LINE SMOOTH",
"593 612 OFFCURVE",
"609 622 OFFCURVE",
"637 622 CURVE SMOOTH",
"697 622 LINE SMOOTH",
"773 622 OFFCURVE",
"808 582 OFFCURVE",
"811 525 CURVE",
"834 525 LINE",
"834 665 LINE",
"323 665 LINE",
"323 642 LINE",
"366 641 OFFCURVE",
"396 630 OFFCURVE",
"413 609 CURVE",
"101 100 LINE SMOOTH",
"73 55 OFFCURVE",
"48 26 OFFCURVE",
"19 23 CURVE",
"19 0 LINE",
"205 0 LINE",
"205 23 LINE",
"146 26 OFFCURVE",
"132 54 OFFCURVE",
"160 100 CURVE SMOOTH",
"217 194 LINE SMOOTH",
"233 220 OFFCURVE",
"246 222 OFFCURVE",
"273 222 CURVE SMOOTH",
"396 222 LINE SMOOTH",
"410 222 OFFCURVE",
"425 223 OFFCURVE",
"433 230 CURVE",
"433 100 LINE SMOOTH",
"433 35 OFFCURVE",
"416 25 OFFCURVE",
"378 23 CURVE",
"378 0 LINE",
"893 0 LINE",
"901 165 LINE",
"878 165 LINE"
);
},
{
closed = 1;
nodes = (
"433 270 OFFCURVE",
"426 265 OFFCURVE",
"406 265 CURVE SMOOTH",
"286 265 LINE SMOOTH",
"274 265 OFFCURVE",
"264 265 OFFCURVE",
"257 261 CURVE",
"431 545 LINE",
"433 545 LINE",
"433 294 LINE SMOOTH"
);
}
);
width = 930;
},
{
anchors = (
{
name = bottom;
position = "{590, 0}";
},
{
name = ogonek;
position = "{866, 0}";
},
{
name = top;
position = "{551, 665}";
},
{
name = topleft;
position = "{306, 665}";
}
);
layerId = "EA003B4E-FCCC-40A4-9C34-984F621C71B7";
paths = (
{
closed = 1;
nodes = (
"816 91 OFFCURVE",
"785 36 OFFCURVE",
"688 36 CURVE SMOOTH",
"577 36 LINE SMOOTH",
"517 36 OFFCURVE",
"501 42 OFFCURVE",
"501 100 CURVE SMOOTH",
"501 307 LINE SMOOTH",
"501 342 OFFCURVE",
"514 351 OFFCURVE",
"550 351 CURVE SMOOTH",
"661 351 LINE SMOOTH",
"708 351 OFFCURVE",
"721 337 OFFCURVE",
"723 283 CURVE",
"746 283 LINE",
"746 453 LINE",
"723 453 LINE",
"721 410 OFFCURVE",
"701 387 OFFCURVE",
"661 387 CURVE SMOOTH",
"548 387 LINE SMOOTH",
"527 387 OFFCURVE",
"512 385 OFFCURVE",
"501 377 CURVE",
"501 565 LINE SMOOTH",
"501 623 OFFCURVE",
"517 629 OFFCURVE",
"545 629 CURVE SMOOTH",
"632 629 LINE SMOOTH",
"726 629 OFFCURVE",
"743 589 OFFCURVE",
"746 525 CURVE",
"769 525 LINE",
"769 665 LINE",
"308 665 LINE",
"308 642 LINE",
"353 641 OFFCURVE",
"384 637 OFFCURVE",
"401 619 CURVE",
"97 100 LINE SMOOTH",
"67 50 OFFCURVE",
"45 26 OFFCURVE",
"2 23 CURVE",
"2 0 LINE",
"214 0 LINE",
"214 23 LINE",
"129 26 OFFCURVE",
"119 50 OFFCURVE",
"148 100 CURVE",
"230 243 LINE SMOOTH",
"241 262 OFFCURVE",
"256 264 OFFCURVE",
"280 264 CURVE SMOOTH",
"379 264 LINE SMOOTH",
"393 264 OFFCURVE",
"408 265 OFFCURVE",
"416 272 CURVE",
"416 100 LINE SMOOTH",
"416 31 OFFCURVE",
"400 25 OFFCURVE",
"346 23 CURVE",
"346 0 LINE",
"837 0 LINE",
"845 156 LINE",
"822 156 LINE"
);
},
{
closed = 1;
nodes = (
"416 305 OFFCURVE",
"410 300 OFFCURVE",
"390 300 CURVE SMOOTH",
"290 300 LINE SMOOTH",
"279 300 OFFCURVE",
"269 300 OFFCURVE",
"262 297 CURVE",
"414 563 LINE",
"416 563 LINE",
"416 329 LINE SMOOTH"
);
}
);
width = 880;
}
);
leftKerningGroup = A;
leftMetricsKey = "=A";
rightKerningGroup = E;
rightMetricsKey = "=E";
unicode = 00C6;
},
{
glyphname = B;
layers = (
{
anchors = (
{
name = bottom;
position = "{363, 0}";
},
{
name = top;
position = "{363, 665}";
}
);
layerId = "C8DF7272-19F4-4290-A6F2-EFA6DE6A61D8";
paths = (
{
closed = 1;
nodes = (
"391 0 LINE SMOOTH",
"586 0 OFFCURVE",
"673 94 OFFCURVE",
"673 209 CURVE SMOOTH",
"673 308 OFFCURVE",
"603 369 OFFCURVE",
"480 382 CURVE",
"480 384 LINE",
"566 403 OFFCURVE",
"620 455 OFFCURVE",
"620 531 CURVE SMOOTH",
"620 615 OFFCURVE",
"546 670 OFFCURVE",
"387 670 CURVE SMOOTH",
"282 670 OFFCURVE",
"225 665 OFFCURVE",
"113 665 CURVE SMOOTH",
"43 665 LINE",
"43 642 LINE",
"97 640 OFFCURVE",
"113 630 OFFCURVE",
"113 565 CURVE SMOOTH",
"113 100 LINE SMOOTH",
"113 35 OFFCURVE",
"97 25 OFFCURVE",
"58 23 CURVE",
"58 0 LINE"
);
},
{
closed = 1;
nodes = (
"283 43 OFFCURVE",
"273 53 OFFCURVE",
"273 100 CURVE SMOOTH",
"273 284 LINE SMOOTH",
"273 326 OFFCURVE",
"301 343 OFFCURVE",
"355 343 CURVE SMOOTH",
"440 343 OFFCURVE",
"503 302 OFFCURVE",
"503 208 CURVE SMOOTH",
"503 124 OFFCURVE",
"457 43 OFFCURVE",
"332 43 CURVE SMOOTH"
);
},
{
closed = 1;
nodes = (
"273 565 LINE SMOOTH",
"273 617 OFFCURVE",
"289 627 OFFCURVE",
"346 627 CURVE SMOOTH",
"397 627 OFFCURVE",
"450 601 OFFCURVE",
"450 521 CURVE SMOOTH",
"450 442 OFFCURVE",
"404 392 OFFCURVE",
"325 385 CURVE SMOOTH",
"303 383 OFFCURVE",
"290 382 OFFCURVE",
"273 370 CURVE"
);
}
);
width = 721;
},
{
anchors = (
{
name = bottom;
position = "{329, 0}";
},
{
name = top;
position = "{329, 665}";
}
);
layerId = "EA003B4E-FCCC-40A4-9C34-984F621C71B7";
paths = (
{
closed = 1;
nodes = (
"347 0 LINE SMOOTH",
"534 0 OFFCURVE",
"613 106 OFFCURVE",
"613 211 CURVE SMOOTH",
"613 317 OFFCURVE",
"522 376 OFFCURVE",
"401 382 CURVE",
"401 384 LINE",
"478 412 OFFCURVE",
"539 456 OFFCURVE",
"539 538 CURVE SMOOTH",
"539 616 OFFCURVE",
"476 670 OFFCURVE",
"335 670 CURVE SMOOTH",
"265 670 OFFCURVE",
"234 665 OFFCURVE",
"136 665 CURVE SMOOTH",
"41 665 LINE",
"41 642 LINE",
"120 640 OFFCURVE",
"136 634 OFFCURVE",
"136 565 CURVE SMOOTH",
"136 100 LINE SMOOTH",
"136 31 OFFCURVE",
"120 25 OFFCURVE",
"66 23 CURVE",
"66 0 LINE"
);
},
{
closed = 1;
nodes = (
"245 36 OFFCURVE",
"221 42 OFFCURVE",
"221 100 CURVE SMOOTH",
"221 293 LINE SMOOTH",
"221 338 OFFCURVE",
"249 352 OFFCURVE",
"315 352 CURVE SMOOTH",
"430 352 OFFCURVE",
"521 312 OFFCURVE",
"521 203 CURVE SMOOTH",
"521 127 OFFCURVE",
"481 36 OFFCURVE",
"339 36 CURVE SMOOTH"
);
},
{
closed = 1;
nodes = (
"221 565 LINE SMOOTH",
"221 628 OFFCURVE",
"245 634 OFFCURVE",
"302 634 CURVE SMOOTH",
"371 634 OFFCURVE",
"447 618 OFFCURVE",
"447 525 CURVE SMOOTH",
"447 415 OFFCURVE",
"352 392 OFFCURVE",
"273 385 CURVE SMOOTH",
"251 383 OFFCURVE",
"238 382 OFFCURVE",
"221 370 CURVE"
);
}
);
width = 663;
}
);
leftKerningGroup = H;
leftMetricsKey = "=H";
rightKerningGroup = O;
rightMetricsKey = "=O-10";
unicode = 0042;
},
{
glyphname = Bstroke;
layers = (
{
components = (
{
name = B;
}
);
layerId = "EA003B4E-FCCC-40A4-9C34-984F621C71B7";
paths = (
{
closed = 1;
nodes = (
"381 227 LINE",
"37 227 LINE",
"37 191 LINE",
"381 191 LINE"
);
}
);
width = 663;
},
{
components = (
{
name = B;
}
);
layerId = "C8DF7272-19F4-4290-A6F2-EFA6DE6A61D8";
paths = (
{
closed = 1;
nodes = (
"396 228 LINE",
"26 228 LINE",
"26 185 LINE",
"396 185 LINE"
);
}
);
width = 721;
}
);
leftKerningGroup = H;
leftMetricsKey = "=Dcroat";
rightKerningGroup = O;
rightMetricsKey = "=B";
unicode = 0243;
},
{
glyphname = C;
layers = (
{
anchors = (
{
name = bottom;
position = "{408, 0}";
},
{
name = top;
position = "{418, 665}";
}
);
layerId = "C8DF7272-19F4-4290-A6F2-EFA6DE6A61D8";
paths = (
{
closed = 1;
nodes = (
"527 -15 OFFCURVE",
"609 20 OFFCURVE",
"653 68 CURVE",
"661 220 LINE",
"638 220 LINE",
"611 117 OFFCURVE",
"530 28 OFFCURVE",
"425 28 CURVE SMOOTH",
"295 28 OFFCURVE",
"238 172 OFFCURVE",
"238 357 CURVE SMOOTH",
"238 543 OFFCURVE",
"304 637 OFFCURVE",
"431 637 CURVE SMOOTH",
"507 637 OFFCURVE",
"574 606 OFFCURVE",
"614 485 CURVE",
"637 485 LINE",
"637 643 LINE",
"594 663 OFFCURVE",
"517 680 OFFCURVE",
"438 680 CURVE SMOOTH",
"231 680 OFFCURVE",
"58 543 OFFCURVE",
"58 323 CURVE SMOOTH",
"58 120 OFFCURVE",
"206 -15 OFFCURVE",
"417 -15 CURVE SMOOTH"
);
}
);
width = 706;
},
{
anchors = (
{
name = bottom;
position = "{402, 0}";
},
{
name = top;
position = "{412, 665}";
}
);
layerId = "EA003B4E-FCCC-40A4-9C34-984F621C71B7";
paths = (
{
closed = 1;
nodes = (
"529 -15 OFFCURVE",
"605 40 OFFCURVE",
"656 103 CURVE",
"662 220 LINE",
"639 220 LINE",
"619 128 OFFCURVE",
"533 25 OFFCURVE",
"407 25 CURVE SMOOTH",
"269 25 OFFCURVE",
"157 149 OFFCURVE",
"157 343 CURVE SMOOTH",
"157 546 OFFCURVE",
"280 640 OFFCURVE",
"423 640 CURVE SMOOTH",
"514 640 OFFCURVE",
"607 602 OFFCURVE",
"616 485 CURVE",
"639 485 LINE",
"639 643 LINE",
"595 663 OFFCURVE",
"509 680 OFFCURVE",
"436 680 CURVE SMOOTH",
"233 680 OFFCURVE",
"60 546 OFFCURVE",
"60 327 CURVE SMOOTH",
"60 124 OFFCURVE",
"210 -15 OFFCURVE",
"406 -15 CURVE SMOOTH"
);
}
);
width = 704;
}
);
leftKerningGroup = O;
leftMetricsKey = "=O";
rightKerningGroup = C;
unicode = 0043;
},
{
glyphname = D;
layers = (
{
anchors = (
{
name = bottom;
position = "{396, 0}";
},
{
name = center;
position = "{396, 348}";
},
{
name = top;
position = "{396, 665}";
}
);
layerId = "C8DF7272-19F4-4290-A6F2-EFA6DE6A61D8";
paths = (
{
closed = 1;
nodes = (
"355 0 LINE SMOOTH",
"536 0 OFFCURVE",
"733 107 OFFCURVE",
"733 353 CURVE SMOOTH",
"733 582 OFFCURVE",
"571 670 OFFCURVE",
"343 670 CURVE SMOOTH",
"262 670 OFFCURVE",
"186 665 OFFCURVE",
"113 665 CURVE SMOOTH",
"43 665 LINE",
"43 642 LINE",
"97 640 OFFCURVE",
"113 630 OFFCURVE",
"113 565 CURVE SMOOTH",
"113 100 LINE SMOOTH",
"113 35 OFFCURVE",
"96 25 OFFCURVE",
"58 23 CURVE",
"58 0 LINE"
);
},
{
closed = 1;
nodes = (
"283 43 OFFCURVE",
"273 53 OFFCURVE",
"273 100 CURVE SMOOTH",
"273 565 LINE SMOOTH",
"273 617 OFFCURVE",
"289 627 OFFCURVE",
"343 627 CURVE SMOOTH",
"464 627 OFFCURVE",
"553 543 OFFCURVE",
"553 338 CURVE SMOOTH",
"553 170 OFFCURVE",
"486 42 OFFCURVE",
"333 43 CURVE"
);
}
);
width = 791;
},
{
anchors = (
{
name = bottom;
position = "{381, 0}";
},
{
name = center;
position = "{381, 352}";
},
{
name = top;
position = "{381, 665}";
}
);
layerId = "EA003B4E-FCCC-40A4-9C34-984F621C71B7";
paths = (
{
closed = 1;
nodes = (
"343 0 LINE SMOOTH",
"529 0 OFFCURVE",
"705 133 OFFCURVE",
"705 353 CURVE SMOOTH",
"705 564 OFFCURVE",
"561 670 OFFCURVE",
"346 670 CURVE SMOOTH",
"297 670 OFFCURVE",
"226 665 OFFCURVE",
"136 665 CURVE SMOOTH",
"41 665 LINE",
"41 642 LINE",
"120 640 OFFCURVE",
"136 634 OFFCURVE",
"136 565 CURVE SMOOTH",
"136 100 LINE SMOOTH",
"136 31 OFFCURVE",
"119 25 OFFCURVE",
"66 23 CURVE",
"66 0 LINE"
);
},
{
closed = 1;
nodes = (
"245 36 OFFCURVE",
"221 42 OFFCURVE",
"221 100 CURVE SMOOTH",
"221 565 LINE SMOOTH",
"221 626 OFFCURVE",
"244 634 OFFCURVE",
"318 634 CURVE SMOOTH",
"496 634 OFFCURVE",
"608 552 OFFCURVE",
"608 338 CURVE SMOOTH",
"608 152 OFFCURVE",
"516 36 OFFCURVE",
"313 36 CURVE"
);
}
);
width = 765;
}
);
leftKerningGroup = H;
leftMetricsKey = "=H";
rightKerningGroup = O;
rightMetricsKey = "=O";
unicode = 0044;
},
{
glyphname = E;
layers = (
{
anchors = (
{
name = bottom;
position = "{345, 0}";
},
{
name = ogonek;
position = "{534, 0}";
},
{
name = top;
position = "{345, 665}";
},
{
name = topleft;
position = "{40, 665}";
}
);
layerId = "C8DF7272-19F4-4290-A6F2-EFA6DE6A61D8";
paths = (
{
closed = 1;
nodes = (
"593 0 LINE",
"601 165 LINE",
"578 165 LINE",
"572 98 OFFCURVE",
"524 43 OFFCURVE",
"444 43 CURVE SMOOTH",
"349 43 LINE SMOOTH",
"289 43 OFFCURVE",
"273 53 OFFCURVE",
"273 100 CURVE SMOOTH",
"273 291 LINE SMOOTH",
"273 326 OFFCURVE",
"286 335 OFFCURVE",
"322 335 CURVE SMOOTH",
"417 335 LINE SMOOTH",
"457 335 OFFCURVE",
"486 321 OFFCURVE",
"488 272 CURVE",
"511 272 LINE",
"511 442 LINE",
"488 442 LINE",
"486 402 OFFCURVE",
"457 378 OFFCURVE",
"417 378 CURVE SMOOTH",
"320 378 LINE SMOOTH",
"299 378 OFFCURVE",
"284 376 OFFCURVE",
"273 368 CURVE",
"273 565 LINE SMOOTH",
"273 612 OFFCURVE",
"289 622 OFFCURVE",
"317 622 CURVE SMOOTH",
"397 622 LINE SMOOTH",
"473 622 OFFCURVE",
"508 582 OFFCURVE",
"511 525 CURVE",
"534 525 LINE",
"534 665 LINE",
"43 665 LINE",
"43 642 LINE",
"97 640 OFFCURVE",
"113 630 OFFCURVE",
"113 565 CURVE SMOOTH",
"113 100 LINE SMOOTH",
"113 35 OFFCURVE",
"96 25 OFFCURVE",
"58 23 CURVE",
"58 0 LINE"
);
}
);
width = 630;
},
{
anchors = (
{
name = bottom;
position = "{348, 0}";
},
{
name = ogonek;
position = "{517, 0}";
},
{
name = top;
position = "{330, 665}";
},
{
name = topleft;
position = "{25, 665}";
}
);
layerId = "EA003B4E-FCCC-40A4-9C34-984F621C71B7";
paths = (
{
closed = 1;
nodes = (
"585 0 LINE",
"593 156 LINE",
"570 156 LINE",
"564 91 OFFCURVE",
"533 36 OFFCURVE",
"436 36 CURVE SMOOTH",
"297 36 LINE SMOOTH",
"237 36 OFFCURVE",
"221 42 OFFCURVE",
"221 100 CURVE SMOOTH",
"221 307 LINE SMOOTH",
"221 342 OFFCURVE",
"234 351 OFFCURVE",
"270 351 CURVE SMOOTH",
"409 351 LINE SMOOTH",
"456 351 OFFCURVE",
"469 337 OFFCURVE",
"471 283 CURVE",
"494 283 LINE",
"494 453 LINE",
"471 453 LINE",
"469 410 OFFCURVE",
"449 387 OFFCURVE",
"409 387 CURVE SMOOTH",
"268 387 LINE SMOOTH",
"247 387 OFFCURVE",
"232 385 OFFCURVE",
"221 377 CURVE",
"221 565 LINE SMOOTH",
"221 623 OFFCURVE",
"237 629 OFFCURVE",
"265 629 CURVE SMOOTH",
"380 629 LINE SMOOTH",
"473 629 OFFCURVE",
"491 589 OFFCURVE",
"494 525 CURVE",
"517 525 LINE",
"517 665 LINE",
"41 665 LINE",
"41 642 LINE",
"120 640 OFFCURVE",
"136 634 OFFCURVE",
"136 565 CURVE SMOOTH",
"136 100 LINE SMOOTH",
"136 31 OFFCURVE",
"119 25 OFFCURVE",
"66 23 CURVE",
"66 0 LINE"
);
}
);
width = 628;
}
);
leftKerningGroup = H;
leftMetricsKey = "=H";
rightKerningGroup = E;
unicode = 0045;
},
{
glyphname = F;
layers = (
{
anchors = (
{
name = bottom;
position = "{286, 0}";
},
{
name = top;
position = "{336, 665}";
}
);
layerId = "C8DF7272-19F4-4290-A6F2-EFA6DE6A61D8";
paths = (
{
closed = 1;
nodes = (
"353 0 LINE",
"353 23 LINE",
"289 25 OFFCURVE",
"273 35 OFFCURVE",
"273 100 CURVE SMOOTH",
"273 276 LINE SMOOTH",
"273 311 OFFCURVE",
"286 320 OFFCURVE",
"322 320 CURVE SMOOTH",
"417 320 LINE SMOOTH",
"457 320 OFFCURVE",
"486 306 OFFCURVE",
"488 257 CURVE",
"511 257 LINE",
"511 427 LINE",
"488 427 LINE",
"486 387 OFFCURVE",
"457 363 OFFCURVE",
"417 363 CURVE SMOOTH",
"320 363 LINE SMOOTH",
"299 363 OFFCURVE",
"284 361 OFFCURVE",
"273 353 CURVE",
"273 565 LINE SMOOTH",
"273 612 OFFCURVE",
"289 622 OFFCURVE",
"317 622 CURVE SMOOTH",
"387 622 LINE SMOOTH",
"463 622 OFFCURVE",
"498 582 OFFCURVE",
"501 525 CURVE",
"524 525 LINE",
"524 665 LINE",
"43 665 LINE",
"43 642 LINE",
"97 640 OFFCURVE",
"113 630 OFFCURVE",
"113 565 CURVE SMOOTH",
"113 100 LINE SMOOTH",
"113 35 OFFCURVE",
"97 25 OFFCURVE",
"58 23 CURVE",
"58 0 LINE"
);
}
);
width = 572;
},
{
anchors = (
{
name = bottom;
position = "{277, 0}";
},
{
name = top;
position = "{318, 665}";
}
);
layerId = "EA003B4E-FCCC-40A4-9C34-984F621C71B7";
paths = (
{
closed = 1;
nodes = (
"326 0 LINE",
"326 23 LINE",
"237 25 OFFCURVE",
"221 31 OFFCURVE",
"221 100 CURVE SMOOTH",
"221 287 LINE SMOOTH",
"221 322 OFFCURVE",
"234 331 OFFCURVE",
"270 331 CURVE SMOOTH",
"409 331 LINE SMOOTH",
"456 331 OFFCURVE",
"469 317 OFFCURVE",
"471 264 CURVE",
"494 264 LINE",
"494 434 LINE",
"471 434 LINE",
"469 391 OFFCURVE",
"449 367 OFFCURVE",
"409 367 CURVE SMOOTH",
"268 367 LINE SMOOTH",
"247 367 OFFCURVE",
"232 365 OFFCURVE",
"221 357 CURVE",
"221 565 LINE SMOOTH",
"221 623 OFFCURVE",
"237 629 OFFCURVE",
"265 629 CURVE SMOOTH",
"370 629 LINE SMOOTH",
"464 629 OFFCURVE",
"481 589 OFFCURVE",
"484 525 CURVE",
"507 525 LINE",
"507 665 LINE",
"41 665 LINE",
"41 642 LINE",
"120 640 OFFCURVE",
"136 634 OFFCURVE",
"136 565 CURVE SMOOTH",
"136 100 LINE SMOOTH",
"136 31 OFFCURVE",
"120 25 OFFCURVE",
"66 23 CURVE",
"66 0 LINE"
);
}
);
width = 571;
}
);
leftKerningGroup = H;
leftMetricsKey = "=E";
rightKerningGroup = F;
unicode = 0046;
},
{
glyphname = G;
layers = (
{
anchors = (
{
name = bottom;
position = "{400, 0}";
},
{
name = top;
position = "{410, 665}";
}
);
layerId = "C8DF7272-19F4-4290-A6F2-EFA6DE6A61D8";
paths = (
{
closed = 1;
nodes = (
"544 -15 OFFCURVE",
"653 57 OFFCURVE",
"685 89 CURVE",
"677 123 OFFCURVE",
"677 154 OFFCURVE",
"677 190 CURVE SMOOTH",
"677 248 LINE SMOOTH",
"677 282 OFFCURVE",
"683 293 OFFCURVE",
"702 295 CURVE",
"702 318 LINE",
"452 318 LINE",
"452 295 LINE",
"515 291 OFFCURVE",
"527 283 OFFCURVE",
"527 171 CURVE SMOOTH",
"527 124 OFFCURVE",
"528 88 OFFCURVE",
"513 64 CURVE SMOOTH",
"493 31 OFFCURVE",
"451 28 OFFCURVE",
"420 28 CURVE SMOOTH",
"304 28 OFFCURVE",
"238 164 OFFCURVE",
"238 359 CURVE SMOOTH",
"238 538 OFFCURVE",
"294 637 OFFCURVE",
"432 637 CURVE SMOOTH",
"507 637 OFFCURVE",
"574 605 OFFCURVE",
"614 490 CURVE",
"637 490 LINE",
"637 643 LINE",
"586 663 OFFCURVE",
"509 680 OFFCURVE",
"438 680 CURVE SMOOTH",
"231 680 OFFCURVE",
"58 553 OFFCURVE",
"58 321 CURVE SMOOTH",
"58 118 OFFCURVE",
"203 -15 OFFCURVE",
"392 -15 CURVE SMOOTH"
);
}
);
width = 740;
},
{
anchors = (
{
name = bottom;
position = "{397, 0}";
},
{
name = top;
position = "{407, 665}";
}
);
layerId = "EA003B4E-FCCC-40A4-9C34-984F621C71B7";
paths = (
{
closed = 1;
nodes = (
"527 -15 OFFCURVE",
"626 55 OFFCURVE",
"660 89 CURVE",
"652 123 OFFCURVE",
"652 154 OFFCURVE",
"652 190 CURVE SMOOTH",
"652 248 LINE SMOOTH",
"652 278 OFFCURVE",
"658 293 OFFCURVE",
"686 295 CURVE",
"686 318 LINE",
"453 318 LINE",
"453 295 LINE",
"545 293 OFFCURVE",
"572 288 OFFCURVE",
"572 190 CURVE SMOOTH",
"572 136 OFFCURVE",
"564 107 OFFCURVE",
"560 98 CURVE SMOOTH",
"537 47 OFFCURVE",
"481 23 OFFCURVE",
"418 23 CURVE SMOOTH",
"277 23 OFFCURVE",
"157 145 OFFCURVE",
"157 345 CURVE SMOOTH",
"157 544 OFFCURVE",
"278 640 OFFCURVE",
"425 640 CURVE SMOOTH",
"511 640 OFFCURVE",
"607 607 OFFCURVE",
"616 490 CURVE",
"639 490 LINE",
"639 643 LINE",
"593 663 OFFCURVE",
"508 680 OFFCURVE",
"436 680 CURVE SMOOTH",
"233 680 OFFCURVE",
"60 546 OFFCURVE",
"60 327 CURVE SMOOTH",
"60 122 OFFCURVE",
"214 -15 OFFCURVE",
"396 -15 CURVE SMOOTH"
);
}
);
width = 731;
}
);
leftKerningGroup = O;
leftMetricsKey = "=C";
rightKerningGroup = C;
unicode = 0047;
},
{
glyphname = H;
layers = (
{
anchors = (
{
name = bottom;
position = "{416, 0}";
},
{
name = center;
position = "{416, 333}";
},
{
name = top;
position = "{416, 665}";
},
{
name = topleft;
position = "{45, 665}";
}
);
layerId = "C8DF7272-19F4-4290-A6F2-EFA6DE6A61D8";
paths = (
{
closed = 1;
nodes = (
"343 0 LINE",
"343 23 LINE",
"289 25 OFFCURVE",
"273 35 OFFCURVE",
"273 100 CURVE SMOOTH",
"273 311 LINE SMOOTH",
"273 346 OFFCURVE",
"286 355 OFFCURVE",
"322 355 CURVE SMOOTH",
"511 355 LINE SMOOTH",
"531 355 OFFCURVE",
"547 357 OFFCURVE",
"558 366 CURVE",
"558 100 LINE SMOOTH",
"558 35 OFFCURVE",
"542 25 OFFCURVE",
"503 23 CURVE",
"503 0 LINE",
"788 0 LINE",
"788 23 LINE",
"734 25 OFFCURVE",
"718 35 OFFCURVE",
"718 100 CURVE SMOOTH",
"718 565 LINE SMOOTH",
"718 630 OFFCURVE",
"734 640 OFFCURVE",
"773 642 CURVE",
"773 665 LINE",
"488 665 LINE",
"488 642 LINE",
"542 640 OFFCURVE",
"558 630 OFFCURVE",
"558 565 CURVE SMOOTH",
"558 443 LINE SMOOTH",
"558 407 OFFCURVE",
"545 398 OFFCURVE",
"509 398 CURVE SMOOTH",
"320 398 LINE SMOOTH",
"299 398 OFFCURVE",
"284 396 OFFCURVE",
"273 388 CURVE",
"273 565 LINE SMOOTH",
"273 630 OFFCURVE",
"289 640 OFFCURVE",
"328 642 CURVE",
"328 665 LINE",
"43 665 LINE",
"43 642 LINE",
"97 640 OFFCURVE",
"113 630 OFFCURVE",
"113 565 CURVE SMOOTH",
"113 100 LINE SMOOTH",
"113 35 OFFCURVE",
"97 25 OFFCURVE",
"58 23 CURVE",
"58 0 LINE"
);
}
);
width = 831;
},
{
anchors = (
{
name = bottom;
position = "{401, 0}";
},
{
name = center;
position = "{401, 333}";
},
{
name = top;
position = "{401, 665}";
},
{
name = topleft;
position = "{34, 665}";
}
);
layerId = "EA003B4E-FCCC-40A4-9C34-984F621C71B7";
paths = (
{
closed = 1;
nodes = (
"315 0 LINE",
"315 23 LINE",
"237 25 OFFCURVE",
"221 31 OFFCURVE",
"221 100 CURVE SMOOTH",
"221 320 LINE SMOOTH",
"221 355 OFFCURVE",
"234 364 OFFCURVE",
"270 364 CURVE SMOOTH",
"534 364 LINE SMOOTH",
"554 364 OFFCURVE",
"570 366 OFFCURVE",
"581 375 CURVE",
"581 100 LINE SMOOTH",
"581 31 OFFCURVE",
"565 25 OFFCURVE",
"511 23 CURVE",
"511 0 LINE",
"760 0 LINE",
"760 23 LINE",
"682 25 OFFCURVE",
"666 31 OFFCURVE",
"666 100 CURVE SMOOTH",
"666 565 LINE SMOOTH",
"666 634 OFFCURVE",
"682 640 OFFCURVE",
"736 642 CURVE",
"736 665 LINE",
"486 665 LINE",
"486 642 LINE",
"565 640 OFFCURVE",
"581 634 OFFCURVE",
"581 565 CURVE SMOOTH",
"581 445 LINE SMOOTH",
"581 409 OFFCURVE",
"568 400 OFFCURVE",
"532 400 CURVE SMOOTH",
"268 400 LINE SMOOTH",
"247 400 OFFCURVE",
"232 398 OFFCURVE",
"221 390 CURVE",
"221 565 LINE SMOOTH",
"221 634 OFFCURVE",
"237 640 OFFCURVE",
"291 642 CURVE",
"291 665 LINE",
"41 665 LINE",
"41 642 LINE",
"120 640 OFFCURVE",
"136 634 OFFCURVE",
"136 565 CURVE SMOOTH",
"136 100 LINE SMOOTH",
"136 31 OFFCURVE",
"120 25 OFFCURVE",
"66 23 CURVE",
"66 0 LINE"
);
}
);
width = 801;
}
);
leftKerningGroup = H;
rightKerningGroup = H;
unicode = 0048;
},
{
glyphname = Hbar;
layers = (
{
anchors = (
{
name = bottom;
position = "{395, 0}";
},
{
name = center;
position = "{395, 333}";
},
{
name = top;
position = "{395, 665}";
},
{
name = topleft;
position = "{24, 665}";
}
);
layerId = "C8DF7272-19F4-4290-A6F2-EFA6DE6A61D8";
paths = (
{
closed = 1;
nodes = (
"785 537 LINE",
"4 537 LINE",
"4 494 LINE",
"785 494 LINE"
);
},
{
closed = 1;
nodes = (
"322 0 LINE",
"322 23 LINE",
"268 25 OFFCURVE",
"252 35 OFFCURVE",
"252 100 CURVE SMOOTH",
"252 311 LINE SMOOTH",
"252 346 OFFCURVE",
"265 355 OFFCURVE",
"301 355 CURVE SMOOTH",
"490 355 LINE SMOOTH",
"510 355 OFFCURVE",
"526 357 OFFCURVE",
"537 366 CURVE",
"537 100 LINE SMOOTH",
"537 35 OFFCURVE",
"521 25 OFFCURVE",
"482 23 CURVE",
"482 0 LINE",
"767 0 LINE",
"767 23 LINE",
"713 25 OFFCURVE",
"697 35 OFFCURVE",
"697 100 CURVE SMOOTH",
"697 565 LINE SMOOTH",
"697 630 OFFCURVE",
"713 640 OFFCURVE",
"752 642 CURVE",
"752 665 LINE",
"467 665 LINE",
"467 642 LINE",
"521 640 OFFCURVE",
"537 630 OFFCURVE",
"537 565 CURVE SMOOTH",
"537 443 LINE SMOOTH",
"537 407 OFFCURVE",
"524 398 OFFCURVE",
"488 398 CURVE SMOOTH",
"299 398 LINE SMOOTH",
"278 398 OFFCURVE",
"263 396 OFFCURVE",
"252 388 CURVE",
"252 565 LINE SMOOTH",
"252 630 OFFCURVE",
"268 640 OFFCURVE",
"307 642 CURVE",
"307 665 LINE",
"22 665 LINE",
"22 642 LINE",
"76 640 OFFCURVE",
"92 630 OFFCURVE",
"92 565 CURVE SMOOTH",
"92 100 LINE SMOOTH",
"92 35 OFFCURVE",
"76 25 OFFCURVE",
"37 23 CURVE",
"37 0 LINE"
);
}
);
width = 781;
},
{
anchors = (
{
name = bottom;
position = "{394, 0}";
},
{
name = center;
position = "{394, 333}";
},
{
name = top;
position = "{394, 665}";
},
{
name = topleft;
position = "{27, 665}";
}
);
layerId = "EA003B4E-FCCC-40A4-9C34-984F621C71B7";
paths = (
{
closed = 1;
nodes = (
"754 542 LINE",
"33 542 LINE",
"33 506 LINE",
"754 506 LINE"
);
},
{
closed = 1;
nodes = (
"308 0 LINE",
"308 23 LINE",
"230 25 OFFCURVE",
"214 31 OFFCURVE",
"214 100 CURVE SMOOTH",
"214 320 LINE SMOOTH",
"214 355 OFFCURVE",
"227 364 OFFCURVE",
"263 364 CURVE SMOOTH",
"527 364 LINE SMOOTH",
"547 364 OFFCURVE",
"563 366 OFFCURVE",
"574 375 CURVE",
"574 100 LINE SMOOTH",
"574 31 OFFCURVE",
"558 25 OFFCURVE",
"504 23 CURVE",
"504 0 LINE",
"753 0 LINE",
"753 23 LINE",
"675 25 OFFCURVE",
"659 31 OFFCURVE",
"659 100 CURVE SMOOTH",
"659 565 LINE SMOOTH",
"659 634 OFFCURVE",
"675 640 OFFCURVE",
"729 642 CURVE",
"729 665 LINE",
"479 665 LINE",
"479 642 LINE",
"558 640 OFFCURVE",
"574 634 OFFCURVE",
"574 565 CURVE SMOOTH",
"574 445 LINE SMOOTH",
"574 409 OFFCURVE",
"561 400 OFFCURVE",
"525 400 CURVE SMOOTH",
"261 400 LINE SMOOTH",
"240 400 OFFCURVE",
"225 398 OFFCURVE",
"214 390 CURVE",
"214 565 LINE SMOOTH",
"214 634 OFFCURVE",
"230 640 OFFCURVE",
"284 642 CURVE",
"284 665 LINE",
"34 665 LINE",
"34 642 LINE",
"113 640 OFFCURVE",
"129 634 OFFCURVE",
"129 565 CURVE SMOOTH",
"129 100 LINE SMOOTH",
"129 31 OFFCURVE",
"113 25 OFFCURVE",
"59 23 CURVE",
"59 0 LINE"
);
}
);
width = 773;
}
);
leftKerningGroup = H;
rightKerningGroup = H;
unicode = 0126;
},
{
glyphname = I;
layers = (
{
anchors = (
{
name = bottom;
position = "{198, 0}";
},
{
name = ogonek;
position = "{277, 0}";
},
{
name = top;
position = "{198, 665}";
},
{
name = topleft;
position = "{45, 665}";
}
);
layerId = "C8DF7272-19F4-4290-A6F2-EFA6DE6A61D8";
paths = (
{
closed = 1;
nodes = (
"348 0 LINE",
"348 23 LINE",
"294 25 OFFCURVE",
"278 35 OFFCURVE",
"278 100 CURVE SMOOTH",
"278 565 LINE SMOOTH",
"278 630 OFFCURVE",
"294 640 OFFCURVE",
"333 642 CURVE",
"333 665 LINE",
"48 665 LINE",
"48 642 LINE",
"102 640 OFFCURVE",
"118 630 OFFCURVE",
"118 565 CURVE SMOOTH",
"118 100 LINE SMOOTH",
"118 35 OFFCURVE",
"102 25 OFFCURVE",
"63 23 CURVE",
"63 0 LINE"
);
}
);
width = 396;
},
{
anchors = (
{
name = bottom;
position = "{188, 0}";
},
{
name = ogonek;
position = "{246, 0}";
},
{
name = top;
position = "{188, 665}";
},
{
name = topleft;
position = "{34, 665}";
}
);
layerId = "EA003B4E-FCCC-40A4-9C34-984F621C71B7";
paths = (
{
closed = 1;
nodes = (
"325 0 LINE",
"325 23 LINE",
"246 25 OFFCURVE",
"230 31 OFFCURVE",
"230 100 CURVE SMOOTH",
"230 565 LINE SMOOTH",
"230 634 OFFCURVE",
"246 640 OFFCURVE",
"300 642 CURVE",
"300 665 LINE",
"50 665 LINE",
"50 642 LINE",
"129 640 OFFCURVE",
"145 634 OFFCURVE",
"145 565 CURVE SMOOTH",
"145 100 LINE SMOOTH",
"145 31 OFFCURVE",
"129 25 OFFCURVE",
"75 23 CURVE",
"75 0 LINE"
);
}
);
width = 375;
}
);
leftKerningGroup = H;
rightKerningGroup = H;
unicode = 0049;
},
{
glyphname = J;
layers = (
{
anchors = (
{
name = bottom;
position = "{183, -225}";
},
{
name = top;
position = "{176, 665}";
}
);
layerId = "C8DF7272-19F4-4290-A6F2-EFA6DE6A61D8";
paths = (
{
closed = 1;
nodes = (
"159 -225 OFFCURVE",
"270 -145 OFFCURVE",
"270 0 CURVE SMOOTH",
"270 565 LINE SMOOTH",
"270 630 OFFCURVE",
"286 640 OFFCURVE",
"325 642 CURVE",
"325 665 LINE",
"40 665 LINE",
"40 642 LINE",
"94 640 OFFCURVE",
"110 630 OFFCURVE",
"110 565 CURVE SMOOTH",
"110 0 LINE SMOOTH",
"110 -137 OFFCURVE",
"102 -182 OFFCURVE",
"50 -202 CURVE",
"50 -225 LINE"
);
}
);
width = 380;
},
{
anchors = (
{
name = bottom;
position = "{136, -225}";
},
{
name = top;
position = "{174, 665}";
}
);
layerId = "EA003B4E-FCCC-40A4-9C34-984F621C71B7";
paths = (
{
closed = 1;
nodes = (
"140 -225 OFFCURVE",
"216 -158 OFFCURVE",
"216 -13 CURVE SMOOTH",
"216 565 LINE SMOOTH",
"216 634 OFFCURVE",
"232 640 OFFCURVE",
"286 642 CURVE",
"286 665 LINE",
"36 665 LINE",
"36 642 LINE",
"115 640 OFFCURVE",
"131 634 OFFCURVE",
"131 565 CURVE SMOOTH",
"131 0 LINE SMOOTH",
"131 -138 OFFCURVE",
"119 -192 OFFCURVE",
"51 -203 CURVE",
"51 -225 LINE"
);
}
);
width = 348;
}
);
leftKerningGroup = H;
rightKerningGroup = N;
unicode = 004A;
},
{
glyphname = K;
layers = (
{
anchors = (
{
name = bottom;
position = "{375, 0}";
},
{
name = top;
position = "{375, 665}";
}
);
layerId = "C8DF7272-19F4-4290-A6F2-EFA6DE6A61D8";
paths = (
{
closed = 1;
nodes = (
"686 -15 OFFCURVE",
"726 -10 OFFCURVE",
"753 0 CURVE",
"753 23 LINE",
"727 23 OFFCURVE",
"696 42 OFFCURVE",
"657 103 CURVE SMOOTH",
"448 427 LINE SMOOTH",
"438 443 OFFCURVE",
"437 451 OFFCURVE",
"448 460 CURVE SMOOTH",
"593 580 LINE SMOOTH",
"632 613 OFFCURVE",
"662 635 OFFCURVE",
"702 642 CURVE",
"702 665 LINE",
"475 665 LINE",
"475 642 LINE",
"516 640 OFFCURVE",
"534 631 OFFCURVE",
"534 612 CURVE SMOOTH",
"534 598 OFFCURVE",
"521 583 OFFCURVE",
"499 565 CURVE SMOOTH",
"275 380 LINE",
"273 380 LINE",
"273 565 LINE SMOOTH",
"273 630 OFFCURVE",
"289 640 OFFCURVE",
"328 642 CURVE",
"328 665 LINE",
"43 665 LINE",
"43 642 LINE",
"97 640 OFFCURVE",
"113 630 OFFCURVE",
"113 565 CURVE SMOOTH",
"113 100 LINE SMOOTH",
"113 35 OFFCURVE",
"97 25 OFFCURVE",
"58 23 CURVE",
"58 0 LINE",
"343 0 LINE",
"343 23 LINE",
"289 25 OFFCURVE",
"273 35 OFFCURVE",
"273 100 CURVE SMOOTH",
"273 306 LINE SMOOTH",
"273 330 OFFCURVE",
"283 340 OFFCURVE",
"296 340 CURVE SMOOTH",
"308 340 OFFCURVE",
"314 336 OFFCURVE",
"329 314 CURVE SMOOTH",
"475 91 LINE SMOOTH",
"512 35 OFFCURVE",
"556 -15 OFFCURVE",
"652 -15 CURVE SMOOTH"
);
}
);
width = 758;
},
{
anchors = (
{
name = bottom;
position = "{344, 0}";
},
{
name = top;
position = "{344, 665}";
}
);
layerId = "EA003B4E-FCCC-40A4-9C34-984F621C71B7";
paths = (
{
closed = 1;
nodes = (
"649 -6 OFFCURVE",
"666 -4 OFFCURVE",
"684 0 CURVE",
"684 23 LINE",
"639 23 OFFCURVE",
"621 35 OFFCURVE",
"567 103 CURVE SMOOTH",
"333 401 LINE SMOOTH",
"321 416 OFFCURVE",
"321 425 OFFCURVE",
"333 434 CURVE",
"523 589 LINE SMOOTH",
"564 622 OFFCURVE",
"592 639 OFFCURVE",
"632 642 CURVE",
"632 665 LINE",
"422 665 LINE",
"422 642 LINE",
"463 640 OFFCURVE",
"475 633 OFFCURVE",
"475 620 CURVE SMOOTH",
"475 609 OFFCURVE",
"469 598 OFFCURVE",
"437 572 CURVE SMOOTH",
"223 398 LINE",
"221 398 LINE",
"221 565 LINE SMOOTH",
"221 634 OFFCURVE",
"237 640 OFFCURVE",
"291 642 CURVE",
"291 665 LINE",
"41 665 LINE",
"41 642 LINE",
"120 640 OFFCURVE",
"136 634 OFFCURVE",
"136 565 CURVE SMOOTH",
"136 100 LINE SMOOTH",
"136 31 OFFCURVE",
"120 25 OFFCURVE",
"66 23 CURVE",
"66 0 LINE",
"315 0 LINE",
"315 23 LINE",
"237 25 OFFCURVE",
"221 31 OFFCURVE",
"221 100 CURVE SMOOTH",
"221 332 LINE SMOOTH",
"221 356 OFFCURVE",
"230 361 OFFCURVE",
"241 361 CURVE SMOOTH",
"251 361 OFFCURVE",
"259 354 OFFCURVE",
"276 333 CURVE SMOOTH",
"483 73 LINE SMOOTH",
"519 28 OFFCURVE",
"553 -6 OFFCURVE",
"630 -6 CURVE SMOOTH"
);
}
);
width = 688;
}
);
leftKerningGroup = H;
leftMetricsKey = "=H";
rightKerningGroup = K;
unicode = 004B;
},
{
glyphname = L;
layers = (
{
anchors = (
{
name = bottom;
position = "{297, 0}";
},
{
name = center;
position = "{297, 333}";
},
{
name = top;
position = "{197, 665}";
},
{
name = topright;
position = "{549, 665}";
}
);
layerId = "C8DF7272-19F4-4290-A6F2-EFA6DE6A61D8";
paths = (
{
closed = 1;
nodes = (
"553 0 LINE",
"561 165 LINE",
"538 165 LINE",
"532 98 OFFCURVE",
"504 43 OFFCURVE",
"414 43 CURVE SMOOTH",
"349 43 LINE SMOOTH",
"289 43 OFFCURVE",
"273 53 OFFCURVE",
"273 100 CURVE SMOOTH",
"273 565 LINE SMOOTH",
"273 630 OFFCURVE",
"289 640 OFFCURVE",
"328 642 CURVE",
"328 665 LINE",
"43 665 LINE",
"43 642 LINE",
"97 640 OFFCURVE",
"113 630 OFFCURVE",
"113 565 CURVE SMOOTH",
"113 100 LINE SMOOTH",
"113 35 OFFCURVE",
"96 25 OFFCURVE",
"58 23 CURVE",
"58 0 LINE"
);
}
);
width = 577;
},
{
anchors = (
{
name = bottom;
position = "{320, 0}";
},
{
name = center;
position = "{285, 333}";
},
{
name = top;
position = "{181, 665}";
},
{
name = topright;
position = "{536, 665}";
}
);
layerId = "EA003B4E-FCCC-40A4-9C34-984F621C71B7";
paths = (
{
closed = 1;
nodes = (
"536 0 LINE",
"544 156 LINE",
"521 156 LINE",
"515 91 OFFCURVE",
"487 36 OFFCURVE",
"388 36 CURVE SMOOTH",
"297 36 LINE SMOOTH",
"237 36 OFFCURVE",
"221 42 OFFCURVE",
"221 100 CURVE SMOOTH",
"221 565 LINE SMOOTH",
"221 634 OFFCURVE",
"237 640 OFFCURVE",
"291 642 CURVE",
"291 665 LINE",
"41 665 LINE",
"41 642 LINE",
"120 640 OFFCURVE",
"136 634 OFFCURVE",
"136 565 CURVE SMOOTH",
"136 100 LINE SMOOTH",
"136 31 OFFCURVE",
"119 25 OFFCURVE",
"66 23 CURVE",
"66 0 LINE"
);
}
);
width = 563;
}
);
leftKerningGroup = H;
leftMetricsKey = "=H";
rightKerningGroup = L;
unicode = 004C;
},
{
glyphname = Ldot;
layers = (
{
anchors = (
{
name = bottom;
position = "{297, 0}";
},
{
name = center;
position = "{297, 333}";
},
{
name = top;
position = "{197, 665}";
},
{
name = topright;
position = "{549, 665}";
}
);
layerId = "C8DF7272-19F4-4290-A6F2-EFA6DE6A61D8";
paths = (
{
closed = 1;
nodes = (
"553 0 LINE",
"561 165 LINE",
"538 165 LINE",
"532 98 OFFCURVE",
"504 43 OFFCURVE",
"414 43 CURVE SMOOTH",
"349 43 LINE SMOOTH",
"289 43 OFFCURVE",
"273 53 OFFCURVE",
"273 100 CURVE SMOOTH",
"273 565 LINE SMOOTH",
"273 630 OFFCURVE",
"289 640 OFFCURVE",
"328 642 CURVE",
"328 665 LINE",
"43 665 LINE",
"43 642 LINE",
"97 640 OFFCURVE",
"113 630 OFFCURVE",
"113 565 CURVE SMOOTH",
"113 100 LINE SMOOTH",
"113 35 OFFCURVE",
"96 25 OFFCURVE",
"58 23 CURVE",
"58 0 LINE"
);
},
{
closed = 1;
nodes = (
"551 265 OFFCURVE",
"589 304 OFFCURVE",
"589 351 CURVE SMOOTH",
"589 398 OFFCURVE",
"551 438 OFFCURVE",
"503 438 CURVE SMOOTH",
"454 438 OFFCURVE",
"416 398 OFFCURVE",
"416 351 CURVE SMOOTH",
"416 304 OFFCURVE",
"454 265 OFFCURVE",
"503 265 CURVE SMOOTH"
);
}
);
width = 577;
},
{
anchors = (
{
name = bottom;
position = "{320, 0}";
},
{
name = center;
position = "{285, 333}";
},
{
name = top;
position = "{181, 665}";
},
{
name = topright;
position = "{536, 665}";
}
);
layerId = "EA003B4E-FCCC-40A4-9C34-984F621C71B7";
paths = (
{
closed = 1;
nodes = (
"536 0 LINE",
"544 156 LINE",
"521 156 LINE",
"515 91 OFFCURVE",
"487 36 OFFCURVE",
"388 36 CURVE SMOOTH",
"297 36 LINE SMOOTH",
"237 36 OFFCURVE",
"221 42 OFFCURVE",
"221 100 CURVE SMOOTH",
"221 565 LINE SMOOTH",
"221 634 OFFCURVE",
"237 640 OFFCURVE",
"291 642 CURVE",
"291 665 LINE",
"41 665 LINE",
"41 642 LINE",
"120 640 OFFCURVE",
"136 634 OFFCURVE",
"136 565 CURVE SMOOTH",
"136 100 LINE SMOOTH",
"136 31 OFFCURVE",
"119 25 OFFCURVE",
"66 23 CURVE",
"66 0 LINE"
);
},
{
closed = 1;
nodes = (
"526 314 OFFCURVE",
"549 337 OFFCURVE",
"549 366 CURVE SMOOTH",
"549 394 OFFCURVE",
"526 417 OFFCURVE",
"497 417 CURVE SMOOTH",
"468 417 OFFCURVE",
"445 394 OFFCURVE",
"445 366 CURVE SMOOTH",
"445 337 OFFCURVE",
"468 314 OFFCURVE",
"497 314 CURVE SMOOTH"
);
}
);
width = 563;
}
);
leftKerningGroup = H;
leftMetricsKey = "=L";
rightKerningGroup = L;
unicode = 013F;
},
{
glyphname = Lslash;
layers = (
{
anchors = (
{
name = bottom;
position = "{306, 0}";
},
{
name = center;
position = "{306, 333}";
},
{
name = top;
position = "{206, 665}";
},
{
name = topright;
position = "{558, 665}";
}
);
layerId = "C8DF7272-19F4-4290-A6F2-EFA6DE6A61D8";
paths = (
{
closed = 1;
nodes = (
"476 458 LINE",
"476 508 LINE",
"199 365 LINE",
"199 315 LINE"
);
},
{
closed = 1;
nodes = (
"562 0 LINE",
"570 165 LINE",
"547 165 LINE",
"541 98 OFFCURVE",
"513 43 OFFCURVE",
"423 43 CURVE SMOOTH",
"358 43 LINE SMOOTH",
"298 43 OFFCURVE",
"282 53 OFFCURVE",
"282 100 CURVE SMOOTH",
"282 565 LINE SMOOTH",
"282 630 OFFCURVE",
"298 640 OFFCURVE",
"337 642 CURVE",
"337 665 LINE",
"52 665 LINE",
"52 642 LINE",
"106 640 OFFCURVE",
"122 630 OFFCURVE",
"122 565 CURVE SMOOTH",
"122 100 LINE SMOOTH",
"122 35 OFFCURVE",
"105 25 OFFCURVE",
"67 23 CURVE",
"67 0 LINE"
);
},
{
closed = 1;
nodes = (
"6 275 LINE",
"6 225 LINE",
"199 325 LINE",
"199 375 LINE"
);
}
);
width = 586;
},
{
anchors = (
{
name = bottom;
position = "{328, 0}";
},
{
name = center;
position = "{293, 333}";
},
{
name = top;
position = "{189, 665}";
},
{
name = topright;
position = "{544, 665}";
}
);
layerId = "EA003B4E-FCCC-40A4-9C34-984F621C71B7";
paths = (
{
closed = 1;
nodes = (
"473 458 LINE",
"473 504 LINE",
"187 373 LINE",
"187 327 LINE"
);
},
{
closed = 1;
nodes = (
"544 0 LINE",
"552 156 LINE",
"529 156 LINE",
"523 91 OFFCURVE",
"495 36 OFFCURVE",
"396 36 CURVE SMOOTH",
"305 36 LINE SMOOTH",
"245 36 OFFCURVE",
"229 42 OFFCURVE",
"229 100 CURVE SMOOTH",
"229 565 LINE SMOOTH",
"229 634 OFFCURVE",
"245 640 OFFCURVE",
"299 642 CURVE",
"299 665 LINE",
"49 665 LINE",
"49 642 LINE",
"128 640 OFFCURVE",
"144 634 OFFCURVE",
"144 565 CURVE SMOOTH",
"144 100 LINE SMOOTH",
"144 31 OFFCURVE",
"127 25 OFFCURVE",
"74 23 CURVE",
"74 0 LINE"
);
},
{
closed = 1;
nodes = (
"26 309 LINE",
"26 263 LINE",
"187 337 LINE",
"187 383 LINE"
);
}
);
width = 571;
}
);
leftKerningGroup = Lslash;
rightKerningGroup = L;
rightMetricsKey = "=L";
unicode = 0141;
},
{
glyphname = M;
layers = (
{
anchors = (
{
name = bottom;
position = "{485, 0}";
},
{
name = top;
position = "{475, 665}";
}
);
layerId = "C8DF7272-19F4-4290-A6F2-EFA6DE6A61D8";
paths = (
{
closed = 1;
nodes = (
"455 -8 LINE",
"463 23 OFFCURVE",
"472 48 OFFCURVE",
"497 104 CURVE SMOOTH",
"678 509 LINE",
"680 509 LINE",
"697 100 LINE SMOOTH",
"700 35 OFFCURVE",
"684 26 OFFCURVE",
"642 23 CURVE",
"642 0 LINE",
"927 0 LINE",
"927 23 LINE",
"876 26 OFFCURVE",
"860 35 OFFCURVE",
"857 100 CURVE SMOOTH",
"836 565 LINE SMOOTH",
"833 634 OFFCURVE",
"852 640 OFFCURVE",
"891 642 CURVE",
"891 665 LINE",
"679 665 LINE",
"671 632 OFFCURVE",
"659 598 OFFCURVE",
"644 565 CURVE SMOOTH",
"484 205 LINE",
"482 205 LINE",
"310 565 LINE SMOOTH",
"292 602 OFFCURVE",
"279 630 OFFCURVE",
"268 665 CURVE",
"54 665 LINE",
"54 642 LINE",
"108 636 OFFCURVE",
"127 634 OFFCURVE",
"124 565 CURVE SMOOTH",
"103 100 LINE SMOOTH",
"101 55 OFFCURVE",
"87 26 OFFCURVE",
"48 23 CURVE",
"48 0 LINE",
"233 0 LINE",
"233 23 LINE",
"173 26 OFFCURVE",
"153 55 OFFCURVE",
"155 100 CURVE SMOOTH",
"173 480 LINE",
"175 480 LINE",
"355 104 LINE SMOOTH",
"380 51 OFFCURVE",
"394 23 OFFCURVE",
"405 -8 CURVE"
);
}
);
width = 960;
},
{
anchors = (
{
name = bottom;
position = "{469, 0}";
},
{
name = top;
position = "{468, 665}";
}
);
layerId = "EA003B4E-FCCC-40A4-9C34-984F621C71B7";
paths = (
{
closed = 1;
nodes = (
"473 -8 LINE",
"481 23 OFFCURVE",
"492 48 OFFCURVE",
"515 104 CURVE SMOOTH",
"698 536 LINE",
"700 536 LINE",
"719 100 LINE SMOOTH",
"722 31 OFFCURVE",
"706 26 OFFCURVE",
"658 23 CURVE",
"658 0 LINE",
"890 0 LINE",
"890 23 LINE",
"823 26 OFFCURVE",
"807 31 OFFCURVE",
"804 100 CURVE SMOOTH",
"783 565 LINE SMOOTH",
"780 634 OFFCURVE",
"797 639 OFFCURVE",
"853 642 CURVE",
"853 665 LINE",
"695 665 LINE",
"685 632 OFFCURVE",
"674 599 OFFCURVE",
"660 565 CURVE SMOOTH",
"474 121 LINE",
"472 121 LINE",
"270 565 LINE SMOOTH",
"253 602 OFFCURVE",
"241 630 OFFCURVE",
"230 665 CURVE",
"60 665 LINE",
"60 642 LINE",
"135 639 OFFCURVE",
"150 634 OFFCURVE",
"147 565 CURVE SMOOTH",
"124 100 LINE SMOOTH",
"122 51 OFFCURVE",
"105 26 OFFCURVE",
"53 23 CURVE",
"53 0 LINE",
"266 0 LINE",
"266 23 LINE",
"184 26 OFFCURVE",
"168 51 OFFCURVE",
"170 100 CURVE SMOOTH",
"190 529 LINE",
"192 529 LINE",
"383 104 LINE SMOOTH",
"408 48 OFFCURVE",
"421 23 OFFCURVE",
"432 -8 CURVE"
);
}
);
width = 928;
}
);
leftKerningGroup = H;
rightKerningGroup = H;
unicode = 004D;
},
{
glyphname = N;
layers = (
{
anchors = (
{
name = bottom;
position = "{399, 0}";
},
{
name = top;
position = "{409, 665}";
}
);
layerId = "C8DF7272-19F4-4290-A6F2-EFA6DE6A61D8";
paths = (
{
closed = 1;
nodes = (
"689 -8 LINE",
"687 30 OFFCURVE",
"687 63 OFFCURVE",
"687 100 CURVE SMOOTH",
"687 565 LINE SMOOTH",
"687 610 OFFCURVE",
"703 640 OFFCURVE",
"742 642 CURVE",
"742 665 LINE",
"557 665 LINE",
"557 642 LINE",
"615 640 OFFCURVE",
"635 610 OFFCURVE",
"635 565 CURVE SMOOTH",
"635 235 LINE",
"633 235 LINE",
"235 595 LINE SMOOTH",
"205 623 OFFCURVE",
"184 640 OFFCURVE",
"164 665 CURVE",
"44 665 LINE",
"44 642 LINE",
"98 640 OFFCURVE",
"114 630 OFFCURVE",
"114 565 CURVE SMOOTH",
"114 100 LINE SMOOTH",
"114 55 OFFCURVE",
"98 25 OFFCURVE",
"59 23 CURVE",
"59 0 LINE",
"244 0 LINE",
"244 23 LINE",
"186 25 OFFCURVE",
"166 55 OFFCURVE",
"166 100 CURVE SMOOTH",
"166 430 LINE",
"168 430 LINE",
"562 70 LINE SMOOTH",
"608 28 OFFCURVE",
"624 13 OFFCURVE",
"644 -8 CURVE"
);
}
);
width = 788;
},
{
anchors = (
{
name = bottom;
position = "{384, 0}";
},
{
name = top;
position = "{403, 665}";
}
);
layerId = "EA003B4E-FCCC-40A4-9C34-984F621C71B7";
paths = (
{
closed = 1;
nodes = (
"668 -8 LINE",
"666 30 OFFCURVE",
"666 63 OFFCURVE",
"666 100 CURVE SMOOTH",
"666 565 LINE SMOOTH",
"666 614 OFFCURVE",
"682 639 OFFCURVE",
"736 642 CURVE",
"736 665 LINE",
"525 665 LINE",
"525 642 LINE",
"604 639 OFFCURVE",
"621 614 OFFCURVE",
"621 565 CURVE SMOOTH",
"621 156 LINE",
"619 156 LINE",
"250 569 LINE SMOOTH",
"222 599 OFFCURVE",
"199 631 OFFCURVE",
"179 665 CURVE",
"43 665 LINE",
"43 642 LINE",
"109 639 OFFCURVE",
"138 617 OFFCURVE",
"138 565 CURVE SMOOTH",
"138 100 LINE SMOOTH",
"138 51 OFFCURVE",
"122 26 OFFCURVE",
"68 23 CURVE",
"68 0 LINE",
"279 0 LINE",
"279 23 LINE",
"200 26 OFFCURVE",
"183 51 OFFCURVE",
"183 100 CURVE SMOOTH",
"183 509 LINE",
"185 509 LINE",
"550 96 LINE SMOOTH",
"591 51 OFFCURVE",
"612 22 OFFCURVE",
"632 -8 CURVE"
);
}
);
width = 778;
}
);
leftKerningGroup = H;
rightKerningGroup = N;
unicode = 004E;
},
{
glyphname = NJ;
layers = (
{
anchors = (
{
name = bottom;
position = "{914, -225}";
},
{
name = top;
position = "{952, 665}";
}
);
layerId = "EA003B4E-FCCC-40A4-9C34-984F621C71B7";
paths = (
{
closed = 1;
nodes = (
"668 -8 LINE",
"666 30 OFFCURVE",
"666 63 OFFCURVE",
"666 100 CURVE SMOOTH",
"666 565 LINE SMOOTH",
"666 614 OFFCURVE",
"682 639 OFFCURVE",
"736 642 CURVE",
"736 665 LINE",
"525 665 LINE",
"525 642 LINE",
"604 639 OFFCURVE",
"621 614 OFFCURVE",
"621 565 CURVE SMOOTH",
"621 156 LINE",
"619 156 LINE",
"250 569 LINE SMOOTH",
"222 599 OFFCURVE",
"199 631 OFFCURVE",
"179 665 CURVE",
"43 665 LINE",
"43 642 LINE",
"109 639 OFFCURVE",
"138 617 OFFCURVE",
"138 565 CURVE SMOOTH",
"138 100 LINE SMOOTH",
"138 51 OFFCURVE",
"122 26 OFFCURVE",
"68 23 CURVE",
"68 0 LINE",
"279 0 LINE",
"279 23 LINE",
"200 26 OFFCURVE",
"183 51 OFFCURVE",
"183 100 CURVE SMOOTH",
"183 509 LINE",
"185 509 LINE",
"550 96 LINE SMOOTH",
"591 51 OFFCURVE",
"612 22 OFFCURVE",
"632 -8 CURVE"
);
},
{
closed = 1;
nodes = (
"918 -225 OFFCURVE",
"994 -158 OFFCURVE",
"994 -13 CURVE SMOOTH",
"994 565 LINE SMOOTH",
"994 634 OFFCURVE",
"1010 640 OFFCURVE",
"1064 642 CURVE",
"1064 665 LINE",
"814 665 LINE",
"814 642 LINE",
"893 640 OFFCURVE",
"909 634 OFFCURVE",
"909 565 CURVE SMOOTH",
"909 0 LINE SMOOTH",
"909 -138 OFFCURVE",
"897 -192 OFFCURVE",
"829 -203 CURVE",
"829 -225 LINE"
);
}
);
width = 1126;
},
{
anchors = (
{
name = bottom;
position = "{971, -225}";
},
{
name = top;
position = "{964, 665}";
}
);
layerId = "C8DF7272-19F4-4290-A6F2-EFA6DE6A61D8";
paths = (
{
closed = 1;
nodes = (
"689 -8 LINE",
"687 30 OFFCURVE",
"687 63 OFFCURVE",
"687 100 CURVE SMOOTH",
"687 565 LINE SMOOTH",
"687 610 OFFCURVE",
"703 640 OFFCURVE",
"742 642 CURVE",
"742 665 LINE",
"557 665 LINE",
"557 642 LINE",
"615 640 OFFCURVE",
"635 610 OFFCURVE",
"635 565 CURVE SMOOTH",
"635 235 LINE",
"633 235 LINE",
"235 595 LINE SMOOTH",
"205 623 OFFCURVE",
"184 640 OFFCURVE",
"164 665 CURVE",
"44 665 LINE",
"44 642 LINE",
"98 640 OFFCURVE",
"114 630 OFFCURVE",
"114 565 CURVE SMOOTH",
"114 100 LINE SMOOTH",
"114 55 OFFCURVE",
"98 25 OFFCURVE",
"59 23 CURVE",
"59 0 LINE",
"244 0 LINE",
"244 23 LINE",
"186 25 OFFCURVE",
"166 55 OFFCURVE",
"166 100 CURVE SMOOTH",
"166 430 LINE",
"168 430 LINE",
"562 70 LINE SMOOTH",
"608 28 OFFCURVE",
"624 13 OFFCURVE",
"644 -8 CURVE"
);
},
{
closed = 1;
nodes = (
"947 -225 OFFCURVE",
"1058 -145 OFFCURVE",
"1058 0 CURVE SMOOTH",
"1058 565 LINE SMOOTH",
"1058 630 OFFCURVE",
"1074 640 OFFCURVE",
"1113 642 CURVE",
"1113 665 LINE",
"828 665 LINE",
"828 642 LINE",
"882 640 OFFCURVE",
"898 630 OFFCURVE",
"898 565 CURVE SMOOTH",
"898 0 LINE SMOOTH",
"898 -137 OFFCURVE",
"890 -182 OFFCURVE",
"838 -202 CURVE",
"838 -225 LINE"
);
}
);
width = 1168;
}
);
leftKerningGroup = H;
rightKerningGroup = N;
unicode = 01CA;
},
{
glyphname = Eng;
layers = (
{
anchors = (
{
name = bottom;
position = "{399, 0}";
},
{
name = top;
position = "{409, 665}";
}
);
layerId = "C8DF7272-19F4-4290-A6F2-EFA6DE6A61D8";
paths = (
{
closed = 1;
nodes = (
"615 640 OFFCURVE",
"635 610 OFFCURVE",
"635 565 CURVE SMOOTH",
"635 230 LINE",
"633 230 LINE",
"235 595 LINE SMOOTH",
"205 623 OFFCURVE",
"184 640 OFFCURVE",
"164 665 CURVE",
"44 665 LINE",
"44 642 LINE",
"98 640 OFFCURVE",
"114 630 OFFCURVE",
"114 565 CURVE SMOOTH",
"114 100 LINE SMOOTH",
"114 55 OFFCURVE",
"98 25 OFFCURVE",
"59 23 CURVE",
"59 0 LINE",
"244 0 LINE",
"244 23 LINE",
"186 25 OFFCURVE",
"166 55 OFFCURVE",
"166 100 CURVE SMOOTH",
"166 435 LINE",
"168 435 LINE",
"537 93 LINE",
"537 17 LINE SMOOTH",
"537 -122 OFFCURVE",
"516 -173 OFFCURVE",
"477 -173 CURVE SMOOTH",
"450 -173 OFFCURVE",
"426 -148 OFFCURVE",
"413 -66 CURVE",
"390 -66 LINE",
"382 -111 OFFCURVE",
"382 -185 OFFCURVE",
"390 -230 CURVE",
"564 -247 OFFCURVE",
"687 -144 OFFCURVE",
"687 52 CURVE SMOOTH",
"687 565 LINE SMOOTH",
"687 610 OFFCURVE",
"703 640 OFFCURVE",
"742 642 CURVE",
"742 665 LINE",
"557 665 LINE",
"557 642 LINE"
);
}
);
width = 788;
},
{
anchors = (
{
name = bottom;
position = "{384, 0}";
},
{
name = top;
position = "{403, 665}";
}
);
layerId = "EA003B4E-FCCC-40A4-9C34-984F621C71B7";
paths = (
{
closed = 1;
nodes = (
"604 639 OFFCURVE",
"621 614 OFFCURVE",
"621 565 CURVE SMOOTH",
"621 155 LINE",
"619 155 LINE",
"250 569 LINE SMOOTH",
"223 600 OFFCURVE",
"199 631 OFFCURVE",
"179 665 CURVE",
"43 665 LINE",
"43 642 LINE",
"109 639 OFFCURVE",
"138 617 OFFCURVE",
"138 565 CURVE SMOOTH",
"138 100 LINE SMOOTH",
"138 51 OFFCURVE",
"122 26 OFFCURVE",
"68 23 CURVE",
"68 0 LINE",
"279 0 LINE",
"279 23 LINE",
"200 26 OFFCURVE",
"183 51 OFFCURVE",
"183 100 CURVE SMOOTH",
"183 510 LINE",
"185 510 LINE",
"586 55 LINE",
"586 52 LINE SMOOTH",
"586 -20 OFFCURVE",
"587 -184 OFFCURVE",
"516 -184 CURVE SMOOTH",
"483 -184 OFFCURVE",
"463 -149 OFFCURVE",
"458 -92 CURVE",
"435 -92 LINE",
"427 -137 OFFCURVE",
"427 -185 OFFCURVE",
"435 -230 CURVE",
"597 -247 OFFCURVE",
"666 -148 OFFCURVE",
"666 39 CURVE SMOOTH",
"666 565 LINE SMOOTH",
"666 614 OFFCURVE",
"682 639 OFFCURVE",
"736 642 CURVE",
"736 665 LINE",
"525 665 LINE",
"525 642 LINE"
);
}
);
width = 778;
}
);
leftKerningGroup = H;
leftMetricsKey = "=N";
rightKerningGroup = N;
rightMetricsKey = "=N";
unicode = 014A;
},
{
glyphname = O;
layers = (
{
anchors = (
{
name = bottom;
position = "{409, 0}";
},
{
name = center;
position = "{399, 333}";
},
{
name = ogonek;
position = "{458, 0}";
},
{
name = top;
position = "{399, 665}";
},
{
name = topleft;
position = "{94, 665}";
},
{
name = topright;
position = "{688, 565}";
}
);
layerId = "C8DF7272-19F4-4290-A6F2-EFA6DE6A61D8";
paths = (
{
closed = 1;
nodes = (
"208 680 OFFCURVE",
"58 541 OFFCURVE",
"58 331 CURVE SMOOTH",
"58 120 OFFCURVE",
"209 -15 OFFCURVE",
"397 -15 CURVE SMOOTH",
"587 -15 OFFCURVE",
"737 124 OFFCURVE",
"737 334 CURVE SMOOTH",
"737 545 OFFCURVE",
"586 680 OFFCURVE",
"398 680 CURVE SMOOTH"
);
},
{
closed = 1;
nodes = (
"310 28 OFFCURVE",
"238 148 OFFCURVE",
"238 365 CURVE SMOOTH",
"238 527 OFFCURVE",
"274 637 OFFCURVE",
"377 637 CURVE SMOOTH",
"485 637 OFFCURVE",
"557 517 OFFCURVE",
"557 300 CURVE SMOOTH",
"557 138 OFFCURVE",
"521 28 OFFCURVE",
"418 28 CURVE SMOOTH"
);
}
);
width = 795;
},
{
anchors = (
{
name = bottom;
position = "{397, 0}";
},
{
name = center;
position = "{396, 333}";
},
{
name = ogonek;
position = "{463, 0}";
},
{
name = top;
position = "{396, 665}";
},
{
name = topleft;
position = "{101, 665}";
},
{
name = topright;
position = "{658, 585}";
}
);
layerId = "EA003B4E-FCCC-40A4-9C34-984F621C71B7";
paths = (
{
closed = 1;
nodes = (
"214 680 OFFCURVE",
"60 541 OFFCURVE",
"60 331 CURVE SMOOTH",
"60 120 OFFCURVE",
"215 -15 OFFCURVE",
"394 -15 CURVE SMOOTH",
"576 -15 OFFCURVE",
"730 124 OFFCURVE",
"730 334 CURVE SMOOTH",
"730 545 OFFCURVE",
"575 680 OFFCURVE",
"395 680 CURVE SMOOTH"
);
},
{
closed = 1;
nodes = (
"280 25 OFFCURVE",
"157 142 OFFCURVE",
"157 350 CURVE SMOOTH",
"157 540 OFFCURVE",
"261 640 OFFCURVE",
"381 640 CURVE SMOOTH",
"510 640 OFFCURVE",
"632 523 OFFCURVE",
"632 315 CURVE SMOOTH",
"632 125 OFFCURVE",
"528 25 OFFCURVE",
"409 25 CURVE SMOOTH"
);
}
);
width = 790;
}
);
leftKerningGroup = O;
rightKerningGroup = O;
unicode = 004F;
},
{
glyphname = Oslash;
layers = (
{
anchors = (
{
name = bottom;
position = "{409, 0}";
},
{
name = center;
position = "{399, 333}";
},
{
name = ogonek;
position = "{458, 0}";
},
{
name = top;
position = "{399, 665}";
},
{
name = topleft;
position = "{94, 665}";
},
{
name = topright;
position = "{688, 565}";
}
);
layerId = "C8DF7272-19F4-4290-A6F2-EFA6DE6A61D8";
paths = (
{
closed = 1;
nodes = (
"102 -9 LINE",
"137 -34 LINE",
"633 674 LINE",
"598 699 LINE"
);
},
{
closed = 1;
nodes = (
"208 680 OFFCURVE",
"58 541 OFFCURVE",
"58 331 CURVE SMOOTH",
"58 120 OFFCURVE",
"209 -15 OFFCURVE",
"397 -15 CURVE SMOOTH",
"587 -15 OFFCURVE",
"737 124 OFFCURVE",
"737 334 CURVE SMOOTH",
"737 545 OFFCURVE",
"586 680 OFFCURVE",
"398 680 CURVE SMOOTH"
);
},
{
closed = 1;
nodes = (
"310 28 OFFCURVE",
"238 148 OFFCURVE",
"238 365 CURVE SMOOTH",
"238 527 OFFCURVE",
"274 637 OFFCURVE",
"377 637 CURVE SMOOTH",
"485 637 OFFCURVE",
"557 517 OFFCURVE",
"557 300 CURVE SMOOTH",
"557 138 OFFCURVE",
"521 28 OFFCURVE",
"418 28 CURVE SMOOTH"
);
}
);
width = 795;
},
{
anchors = (
{
name = bottom;
position = "{397, 0}";
},
{
name = center;
position = "{396, 333}";
},
{
name = ogonek;
position = "{463, 0}";
},
{
name = top;
position = "{396, 665}";
},
{
name = topleft;
position = "{101, 665}";
},
{
name = topright;
position = "{658, 585}";
}
);
layerId = "EA003B4E-FCCC-40A4-9C34-984F621C71B7";
paths = (
{
closed = 1;
nodes = (
"100 -13 LINE",
"128 -31 LINE",
"624 678 LINE",
"596 696 LINE"
);
},
{
closed = 1;
nodes = (
"214 680 OFFCURVE",
"60 541 OFFCURVE",
"60 331 CURVE SMOOTH",
"60 120 OFFCURVE",
"215 -15 OFFCURVE",
"394 -15 CURVE SMOOTH",
"576 -15 OFFCURVE",
"730 124 OFFCURVE",
"730 334 CURVE SMOOTH",
"730 545 OFFCURVE",
"575 680 OFFCURVE",
"395 680 CURVE SMOOTH"
);
},
{
closed = 1;
nodes = (
"280 25 OFFCURVE",
"157 142 OFFCURVE",
"157 350 CURVE SMOOTH",
"157 540 OFFCURVE",
"261 640 OFFCURVE",
"381 640 CURVE SMOOTH",
"510 640 OFFCURVE",
"632 523 OFFCURVE",
"632 315 CURVE SMOOTH",
"632 125 OFFCURVE",
"528 25 OFFCURVE",
"409 25 CURVE SMOOTH"
);
}
);
width = 790;
}
);
leftKerningGroup = O;
leftMetricsKey = "=O";
rightKerningGroup = O;
rightMetricsKey = "=O";
unicode = 00D8;
},
{
glyphname = OE;
layers = (
{
anchors = (
{
name = bottom;
position = "{1106, 0}";
},
{
name = center;
position = "{440, 333}";
},
{
name = ogonek;
position = "{1384, 0}";
},
{
name = top;
position = "{606, 665}";
},
{
name = topleft;
position = "{831, 665}";
},
{
name = topright;
position = "{794, 665}";
}
);
layerId = "C8DF7272-19F4-4290-A6F2-EFA6DE6A61D8";
paths = (
{
closed = 1;
nodes = (
"967 98 OFFCURVE",
"919 43 OFFCURVE",
"839 43 CURVE SMOOTH",
"754 43 LINE SMOOTH",
"694 43 OFFCURVE",
"678 53 OFFCURVE",
"678 100 CURVE SMOOTH",
"678 296 LINE SMOOTH",
"678 331 OFFCURVE",
"691 340 OFFCURVE",
"727 340 CURVE SMOOTH",
"812 340 LINE SMOOTH",
"852 340 OFFCURVE",
"881 326 OFFCURVE",
"883 277 CURVE",
"906 277 LINE",
"906 447 LINE",
"883 447 LINE",
"881 407 OFFCURVE",
"852 383 OFFCURVE",
"812 383 CURVE SMOOTH",
"725 383 LINE SMOOTH",
"704 383 OFFCURVE",
"689 381 OFFCURVE",
"678 373 CURVE",
"678 565 LINE SMOOTH",
"678 612 OFFCURVE",
"694 622 OFFCURVE",
"722 622 CURVE SMOOTH",
"792 622 LINE SMOOTH",
"868 622 OFFCURVE",
"903 582 OFFCURVE",
"906 525 CURVE",
"929 525 LINE",
"929 665 LINE",
"448 665 LINE SMOOTH",
"238 665 OFFCURVE",
"58 541 OFFCURVE",
"58 331 CURVE SMOOTH",
"58 120 OFFCURVE",
"239 0 OFFCURVE",
"447 0 CURVE SMOOTH",
"988 0 LINE",
"996 165 LINE",
"973 165 LINE"
);
},
{
closed = 1;
nodes = (
"518 55 OFFCURVE",
"501 43 OFFCURVE",
"463 43 CURVE SMOOTH",
"335 43 OFFCURVE",
"238 148 OFFCURVE",
"238 365 CURVE SMOOTH",
"238 527 OFFCURVE",
"304 622 OFFCURVE",
"427 622 CURVE SMOOTH",
"501 622 OFFCURVE",
"518 610 OFFCURVE",
"518 545 CURVE SMOOTH",
"518 120 LINE SMOOTH"
);
}
);
width = 1018;
},
{
anchors = (
{
name = bottom;
position = "{728, 0}";
},
{
name = center;
position = "{47, 333}";
},
{
name = ogonek;
position = "{1004, 0}";
},
{
name = top;
position = "{560, 665}";
},
{
name = topleft;
position = "{444, 665}";
},
{
name = topright;
position = "{401, 665}";
}
);
layerId = "EA003B4E-FCCC-40A4-9C34-984F621C71B7";
paths = (
{
closed = 1;
nodes = (
"927 91 OFFCURVE",
"897 36 OFFCURVE",
"799 36 CURVE SMOOTH",
"670 36 LINE SMOOTH",
"610 36 OFFCURVE",
"594 42 OFFCURVE",
"594 100 CURVE SMOOTH",
"594 312 LINE SMOOTH",
"594 347 OFFCURVE",
"607 356 OFFCURVE",
"643 356 CURVE SMOOTH",
"772 356 LINE SMOOTH",
"819 356 OFFCURVE",
"833 342 OFFCURVE",
"835 288 CURVE",
"858 288 LINE",
"858 458 LINE",
"835 458 LINE",
"833 415 OFFCURVE",
"812 392 OFFCURVE",
"772 392 CURVE SMOOTH",
"641 392 LINE SMOOTH",
"620 392 OFFCURVE",
"605 390 OFFCURVE",
"594 382 CURVE",
"594 565 LINE SMOOTH",
"594 623 OFFCURVE",
"610 629 OFFCURVE",
"638 629 CURVE SMOOTH",
"744 629 LINE SMOOTH",
"837 629 OFFCURVE",
"855 589 OFFCURVE",
"858 525 CURVE",
"881 525 LINE",
"881 665 LINE",
"428 665 LINE SMOOTH",
"227 665 OFFCURVE",
"60 541 OFFCURVE",
"60 331 CURVE SMOOTH",
"60 120 OFFCURVE",
"228 0 OFFCURVE",
"427 0 CURVE SMOOTH",
"948 0 LINE",
"956 156 LINE",
"933 156 LINE"
);
},
{
closed = 1;
nodes = (
"509 44 OFFCURVE",
"493 38 OFFCURVE",
"439 36 CURVE",
"284 36 OFFCURVE",
"157 142 OFFCURVE",
"157 351 CURVE SMOOTH",
"157 540 OFFCURVE",
"269 629 OFFCURVE",
"412 629 CURVE SMOOTH",
"493 629 OFFCURVE",
"509 622 OFFCURVE",
"509 553 CURVE SMOOTH",
"509 113 LINE SMOOTH"
);
}
);
width = 987;
}
);
leftKerningGroup = O;
leftMetricsKey = "=O";
rightKerningGroup = E;
rightMetricsKey = "=e";
unicode = 0152;
},
{
glyphname = P;
layers = (
{
anchors = (
{
name = bottom;
position = "{331, 0}";
},
{
name = top;
position = "{331, 665}";
}
);
layerId = "C8DF7272-19F4-4290-A6F2-EFA6DE6A61D8";
paths = (
{
closed = 1;
nodes = (
"353 0 LINE",
"353 23 LINE",
"289 25 OFFCURVE",
"273 35 OFFCURVE",
"273 100 CURVE SMOOTH",
"273 565 LINE SMOOTH",
"273 617 OFFCURVE",
"289 627 OFFCURVE",
"333 627 CURVE SMOOTH",
"406 627 OFFCURVE",
"450 578 OFFCURVE",
"450 505 CURVE SMOOTH",
"450 423 OFFCURVE",
"401 347 OFFCURVE",
"293 351 CURVE",
"293 316 LINE",
"530 297 OFFCURVE",
"624 399 OFFCURVE",
"624 504 CURVE SMOOTH",
"624 593 OFFCURVE",
"553 670 OFFCURVE",
"346 670 CURVE SMOOTH",
"303 670 OFFCURVE",
"210 665 OFFCURVE",
"113 665 CURVE SMOOTH",
"43 665 LINE",
"43 642 LINE",
"97 640 OFFCURVE",
"113 630 OFFCURVE",
"113 565 CURVE SMOOTH",
"113 100 LINE SMOOTH",
"113 35 OFFCURVE",
"97 25 OFFCURVE",
"58 23 CURVE",
"58 0 LINE"
);
}
);
width = 663;
},
{
anchors = (
{
name = bottom;
position = "{290, 0}";
},
{
name = top;
position = "{299, 665}";
}
);
layerId = "EA003B4E-FCCC-40A4-9C34-984F621C71B7";
paths = (
{
closed = 1;
nodes = (
"325 0 LINE",
"325 23 LINE",
"237 25 OFFCURVE",
"221 31 OFFCURVE",
"221 100 CURVE SMOOTH",
"221 565 LINE SMOOTH",
"221 625 OFFCURVE",
"244 634 OFFCURVE",
"290 634 CURVE SMOOTH",
"374 634 OFFCURVE",
"450 610 OFFCURVE",
"450 508 CURVE SMOOTH",
"450 426 OFFCURVE",
"401 350 OFFCURVE",
"241 364 CURVE",
"241 334 LINE",
"463 313 OFFCURVE",
"545 419 OFFCURVE",
"545 514 CURVE SMOOTH",
"545 614 OFFCURVE",
"453 670 OFFCURVE",
"315 670 CURVE SMOOTH",
"280 670 OFFCURVE",
"226 665 OFFCURVE",
"136 665 CURVE SMOOTH",
"41 665 LINE",
"41 642 LINE",
"120 640 OFFCURVE",
"136 634 OFFCURVE",
"136 565 CURVE SMOOTH",
"136 100 LINE SMOOTH",
"136 31 OFFCURVE",
"120 25 OFFCURVE",
"66 23 CURVE",
"66 0 LINE"
);
}
);
width = 580;
}
);
leftKerningGroup = H;
leftMetricsKey = "=H";
rightKerningGroup = F;
unicode = 0050;
},
{
glyphname = Thorn;
layers = (
{
anchors = (
{
name = bottom;
position = "{193, 0}";
},
{
name = ogonek;
position = "{242, 8}";
},
{
name = top;
position = "{193, 665}";
},
{
name = topleft;
position = "{40, 665}";
}
);
layerId = "C8DF7272-19F4-4290-A6F2-EFA6DE6A61D8";
paths = (
{
closed = 1;
nodes = (
"343 0 LINE",
"343 23 LINE",
"289 25 OFFCURVE",
"273 35 OFFCURVE",
"273 100 CURVE SMOOTH",
"273 444 LINE SMOOTH",
"273 477 OFFCURVE",
"293 487 OFFCURVE",
"326 487 CURVE SMOOTH",
"408 487 OFFCURVE",
"449 438 OFFCURVE",
"449 356 CURVE SMOOTH",
"449 265 OFFCURVE",
"398 192 OFFCURVE",
"292 196 CURVE",
"292 161 LINE",
"525 142 OFFCURVE",
"624 244 OFFCURVE",
"624 364 CURVE SMOOTH",
"624 461 OFFCURVE",
"558 530 OFFCURVE",
"360 530 CURVE SMOOTH",
"337 530 OFFCURVE",
"308 529 OFFCURVE",
"273 526 CURVE",
"273 565 LINE SMOOTH",
"273 630 OFFCURVE",
"289 640 OFFCURVE",
"328 642 CURVE",
"328 665 LINE",
"43 665 LINE",
"43 642 LINE",
"97 640 OFFCURVE",
"113 630 OFFCURVE",
"113 565 CURVE SMOOTH",
"113 100 LINE SMOOTH",
"113 35 OFFCURVE",
"97 25 OFFCURVE",
"58 23 CURVE",
"58 0 LINE"
);
}
);
width = 663;
},
{
anchors = (
{
name = bottom;
position = "{178, 0}";
},
{
name = ogonek;
position = "{215, 1}";
},
{
name = top;
position = "{178, 665}";
},
{
name = topleft;
position = "{25, 665}";
}
);
layerId = "EA003B4E-FCCC-40A4-9C34-984F621C71B7";
paths = (
{
closed = 1;
nodes = (
"315 0 LINE",
"315 23 LINE",
"237 25 OFFCURVE",
"221 31 OFFCURVE",
"221 100 CURVE SMOOTH",
"221 418 LINE SMOOTH",
"221 477 OFFCURVE",
"245 485 OFFCURVE",
"291 485 CURVE SMOOTH",
"379 485 OFFCURVE",
"450 461 OFFCURVE",
"450 352 CURVE SMOOTH",
"450 260 OFFCURVE",
"401 186 OFFCURVE",
"240 200 CURVE",
"240 170 LINE",
"460 150 OFFCURVE",
"545 250 OFFCURVE",
"545 360 CURVE SMOOTH",
"545 463 OFFCURVE",
"472 521 OFFCURVE",
"320 521 CURVE SMOOTH",
"292 521 OFFCURVE",
"263 519 OFFCURVE",
"221 515 CURVE",
"221 565 LINE SMOOTH",
"221 634 OFFCURVE",
"237 640 OFFCURVE",
"291 642 CURVE",
"291 665 LINE",
"41 665 LINE",
"41 642 LINE",
"120 640 OFFCURVE",
"136 634 OFFCURVE",
"136 565 CURVE SMOOTH",
"136 100 LINE SMOOTH",
"136 31 OFFCURVE",
"120 25 OFFCURVE",
"66 23 CURVE",
"66 0 LINE"
);
}
);
width = 580;
}
);
leftKerningGroup = H;
leftMetricsKey = "=H";
rightKerningGroup = O;
rightMetricsKey = "=P";
unicode = 00DE;
},
{
glyphname = Q;
layers = (
{
anchors = (
{
name = bottom;
position = "{353, 0}";
},
{
name = top;
position = "{353, 665}";
}
);
components = (
{
name = O;
}
);
layerId = "C8DF7272-19F4-4290-A6F2-EFA6DE6A61D8";
paths = (
{
closed = 1;
nodes = (
"1170 -310 OFFCURVE",
"1361 -264 OFFCURVE",
"1512 -127 CURVE",
"1486 -101 LINE",
"1351 -210 OFFCURVE",
"1182 -233 OFFCURVE",
"1075 -233 CURVE SMOOTH",
"845 -233 OFFCURVE",
"626 -118 OFFCURVE",
"515 15 CURVE",
"315 15 LINE",
"443 -148 OFFCURVE",
"689 -305 OFFCURVE",
"995 -308 CURVE SMOOTH"
);
}
);
width = 795;
},
{
anchors = (
{
name = bottom;
position = "{364, 0}";
},
{
name = top;
position = "{364, 665}";
}
);
components = (
{
name = O;
}
);
layerId = "EA003B4E-FCCC-40A4-9C34-984F621C71B7";
paths = (
{
closed = 1;
nodes = (
"1158 -310 OFFCURVE",
"1331 -264 OFFCURVE",
"1482 -127 CURVE",
"1465 -110 LINE",
"1302 -234 OFFCURVE",
"1150 -259 OFFCURVE",
"1022 -259 CURVE SMOOTH",
"737 -259 OFFCURVE",
"566 -129 OFFCURVE",
"459 5 CURVE",
"347 5 LINE",
"475 -157 OFFCURVE",
"672 -304 OFFCURVE",
"983 -308 CURVE SMOOTH"
);
}
);
width = 790;
}
);
leftKerningGroup = O;
leftMetricsKey = "=O";
rightKerningGroup = O;
unicode = 0051;
},
{
glyphname = R;
layers = (
{
anchors = (
{
name = bottom;
position = "{384, 0}";
},
{
name = top;
position = "{344, 665}";
}
);
layerId = "C8DF7272-19F4-4290-A6F2-EFA6DE6A61D8";
paths = (
{
closed = 1;
nodes = (
"676 -15 OFFCURVE",
"716 -10 OFFCURVE",
"743 0 CURVE",
"743 23 LINE",
"717 23 OFFCURVE",
"686 41 OFFCURVE",
"647 103 CURVE SMOOTH",
"481 363 LINE",
"481 365 LINE",
"555 383 OFFCURVE",
"620 444 OFFCURVE",
"620 525 CURVE SMOOTH",
"620 609 OFFCURVE",
"551 670 OFFCURVE",
"353 670 CURVE SMOOTH",
"296 670 OFFCURVE",
"213 665 OFFCURVE",
"113 665 CURVE SMOOTH",
"43 665 LINE",
"43 642 LINE",
"97 640 OFFCURVE",
"113 630 OFFCURVE",
"113 565 CURVE SMOOTH",
"113 100 LINE SMOOTH",
"113 35 OFFCURVE",
"97 25 OFFCURVE",
"58 23 CURVE",
"58 0 LINE",
"343 0 LINE",
"343 23 LINE",
"289 25 OFFCURVE",
"273 35 OFFCURVE",
"273 100 CURVE SMOOTH",
"273 565 LINE SMOOTH",
"273 617 OFFCURVE",
"289 627 OFFCURVE",
"333 627 CURVE SMOOTH",
"391 627 OFFCURVE",
"445 586 OFFCURVE",
"445 505 CURVE SMOOTH",
"445 441 OFFCURVE",
"412 378 OFFCURVE",
"293 370 CURVE",
"293 335 LINE",
"307 334 OFFCURVE",
"316 331 OFFCURVE",
"330 309 CURVE SMOOTH",
"470 91 LINE SMOOTH",
"507 33 OFFCURVE",
"551 -15 OFFCURVE",
"642 -15 CURVE SMOOTH"
);
}
);
width = 728;
},
{
anchors = (
{
name = bottom;
position = "{384, 0}";
},
{
name = top;
position = "{308, 665}";
}
);
layerId = "EA003B4E-FCCC-40A4-9C34-984F621C71B7";
paths = (
{
closed = 1;
nodes = (
"650 -6 OFFCURVE",
"667 -5 OFFCURVE",
"685 0 CURVE",
"685 23 LINE",
"640 23 OFFCURVE",
"623 36 OFFCURVE",
"568 103 CURVE SMOOTH",
"361 357 LINE",
"361 359 LINE",
"465 375 OFFCURVE",
"540 435 OFFCURVE",
"540 523 CURVE SMOOTH",
"540 608 OFFCURVE",
"471 670 OFFCURVE",
"319 670 CURVE SMOOTH",
"274 670 OFFCURVE",
"228 665 OFFCURVE",
"136 665 CURVE SMOOTH",
"41 665 LINE",
"41 642 LINE",
"120 640 OFFCURVE",
"136 634 OFFCURVE",
"136 565 CURVE SMOOTH",
"136 100 LINE SMOOTH",
"136 31 OFFCURVE",
"120 25 OFFCURVE",
"66 23 CURVE",
"66 0 LINE",
"315 0 LINE",
"315 23 LINE",
"237 25 OFFCURVE",
"221 31 OFFCURVE",
"221 100 CURVE SMOOTH",
"221 565 LINE SMOOTH",
"221 626 OFFCURVE",
"244 634 OFFCURVE",
"292 634 CURVE SMOOTH",
"369 634 OFFCURVE",
"445 614 OFFCURVE",
"445 516 CURVE SMOOTH",
"445 420 OFFCURVE",
"369 371 OFFCURVE",
"241 382 CURVE",
"241 352 LINE",
"255 351 OFFCURVE",
"261 347 OFFCURVE",
"278 326 CURVE SMOOTH",
"484 73 LINE SMOOTH",
"518 31 OFFCURVE",
"551 -6 OFFCURVE",
"634 -6 CURVE SMOOTH"
);
}
);
width = 679;
}
);
leftKerningGroup = H;
leftMetricsKey = "=H";
rightKerningGroup = K;
unicode = 0052;
},
{
glyphname = S;
layers = (
{
anchors = (
{
name = bottom;
position = "{300, 0}";
},
{
name = top;
position = "{300, 665}";
}
);
layerId = "C8DF7272-19F4-4290-A6F2-EFA6DE6A61D8";
paths = (
{
closed = 1;
nodes = (
"426 -15 OFFCURVE",
"537 56 OFFCURVE",
"537 191 CURVE SMOOTH",
"537 418 OFFCURVE",
"222 415 OFFCURVE",
"222 549 CURVE SMOOTH",
"222 588 OFFCURVE",
"249 635 OFFCURVE",
"325 635 CURVE SMOOTH",
"387 635 OFFCURVE",
"448 604 OFFCURVE",
"480 495 CURVE",
"503 495 LINE",
"503 653 LINE",
"465 666 OFFCURVE",
"399 680 OFFCURVE",
"331 680 CURVE SMOOTH",
"178 680 OFFCURVE",
"77 609 OFFCURVE",
"77 489 CURVE SMOOTH",
"77 277 OFFCURVE",
"392 291 OFFCURVE",
"392 135 CURVE SMOOTH",
"392 87 OFFCURVE",
"362 30 OFFCURVE",
"281 30 CURVE SMOOTH",
"177 30 OFFCURVE",
"124 124 OFFCURVE",
"121 220 CURVE",
"98 220 LINE",
"70 183 OFFCURVE",
"63 145 OFFCURVE",
"63 120 CURVE SMOOTH",
"63 19 OFFCURVE",
"173 -15 OFFCURVE",
"276 -15 CURVE SMOOTH"
);
}
);
width = 593;
},
{
anchors = (
{
name = bottom;
position = "{275, 0}";
},
{
name = top;
position = "{293, 665}";
}
);
layerId = "EA003B4E-FCCC-40A4-9C34-984F621C71B7";
paths = (
{
closed = 1;
nodes = (
"392 -15 OFFCURVE",
"485 60 OFFCURVE",
"485 184 CURVE SMOOTH",
"485 410 OFFCURVE",
"164 374 OFFCURVE",
"164 533 CURVE SMOOTH",
"164 586 OFFCURVE",
"202 640 OFFCURVE",
"301 640 CURVE SMOOTH",
"394 640 OFFCURVE",
"433 593 OFFCURVE",
"441 508 CURVE",
"464 508 LINE",
"464 653 LINE",
"433 665 OFFCURVE",
"385 680 OFFCURVE",
"308 680 CURVE SMOOTH",
"175 680 OFFCURVE",
"90 606 OFFCURVE",
"90 499 CURVE SMOOTH",
"90 291 OFFCURVE",
"409 332 OFFCURVE",
"409 150 CURVE SMOOTH",
"409 86 OFFCURVE",
"372 25 OFFCURVE",
"274 25 CURVE SMOOTH",
"179 25 OFFCURVE",
"112 87 OFFCURVE",
"107 189 CURVE",
"84 189 LINE",
"73 170 OFFCURVE",
"66 138 OFFCURVE",
"66 111 CURVE SMOOTH",
"66 15 OFFCURVE",
"186 -15 OFFCURVE",
"262 -15 CURVE SMOOTH"
);
}
);
width = 549;
}
);
leftKerningGroup = O;
rightKerningGroup = O;
unicode = 0053;
},
{
glyphname = Germandbls;
layers = (
{
layerId = "C8DF7272-19F4-4290-A6F2-EFA6DE6A61D8";
paths = (
{
closed = 1;
nodes = (
"562 538 OFFCURVE",
"595 591 OFFCURVE",
"658 642 CURVE",
"658 665 LINE",
"43 665 LINE",
"43 642 LINE",
"97 640 OFFCURVE",
"113 630 OFFCURVE",
"113 565 CURVE SMOOTH",
"113 100 LINE SMOOTH",
"113 35 OFFCURVE",
"97 25 OFFCURVE",
"58 23 CURVE",
"58 0 LINE",
"318 0 LINE",
"318 23 LINE",
"289 25 OFFCURVE",
"273 35 OFFCURVE",
"273 100 CURVE SMOOTH",
"273 565 LINE SMOOTH",
"273 612 OFFCURVE",
"289 622 OFFCURVE",
"317 622 CURVE SMOOTH",
"557 622 LINE",
"557 620 LINE",
"482 564 OFFCURVE",
"427 500 OFFCURVE",
"427 413 CURVE SMOOTH",
"427 253 OFFCURVE",
"612 234 OFFCURVE",
"612 111 CURVE SMOOTH",
"612 67 OFFCURVE",
"588 30 OFFCURVE",
"538 30 CURVE SMOOTH",
"491 30 OFFCURVE",
"450 63 OFFCURVE",
"411 113 CURVE",
"382 89 OFFCURVE",
"360 59 OFFCURVE",
"343 23 CURVE",
"390 -4 OFFCURVE",
"457 -15 OFFCURVE",
"516 -15 CURVE SMOOTH",
"650 -15 OFFCURVE",
"757 42 OFFCURVE",
"757 174 CURVE SMOOTH",
"757 353 OFFCURVE",
"562 365 OFFCURVE",
"562 488 CURVE SMOOTH"
);
}
);
width = 756;
},
{
layerId = "EA003B4E-FCCC-40A4-9C34-984F621C71B7";
paths = (
{
closed = 1;
nodes = (
"473 534 OFFCURVE",
"515 599 OFFCURVE",
"603 642 CURVE",
"603 665 LINE",
"41 665 LINE",
"41 642 LINE",
"120 640 OFFCURVE",
"136 634 OFFCURVE",
"136 565 CURVE SMOOTH",
"136 100 LINE SMOOTH",
"136 31 OFFCURVE",
"120 25 OFFCURVE",
"66 23 CURVE",
"66 0 LINE",
"281 0 LINE",
"281 23 LINE",
"237 25 OFFCURVE",
"221 31 OFFCURVE",
"221 100 CURVE SMOOTH",
"221 565 LINE SMOOTH",
"221 623 OFFCURVE",
"237 629 OFFCURVE",
"265 629 CURVE SMOOTH",
"514 629 LINE",
"514 627 LINE",
"458 583 OFFCURVE",
"398 529 OFFCURVE",
"398 441 CURVE SMOOTH",
"398 274 OFFCURVE",
"612 277 OFFCURVE",
"612 130 CURVE SMOOTH",
"612 74 OFFCURVE",
"581 21 OFFCURVE",
"512 21 CURVE SMOOTH",
"454 21 OFFCURVE",
"418 57 OFFCURVE",
"385 101 CURVE",
"360 86 OFFCURVE",
"343 63 OFFCURVE",
"332 34 CURVE",
"375 1 OFFCURVE",
"435 -15 OFFCURVE",
"494 -15 CURVE SMOOTH",
"610 -15 OFFCURVE",
"689 47 OFFCURVE",
"689 157 CURVE SMOOTH",
"689 341 OFFCURVE",
"473 332 OFFCURVE",
"473 473 CURVE SMOOTH"
);
}
);
width = 697;
}
);
leftKerningGroup = H;
leftMetricsKey = "=B";
rightKerningGroup = O;
unicode = 1E9E;
},
{
glyphname = Schwa;
layers = (
{
layerId = "EA003B4E-FCCC-40A4-9C34-984F621C71B7";
paths = (
{
closed = 1;
nodes = (
"224 680 OFFCURVE",
"129 651 OFFCURVE",
"82 623 CURVE",
"82 465 LINE",
"105 465 LINE",
"112 576 OFFCURVE",
"215 640 OFFCURVE",
"318 640 CURVE SMOOTH",
"471 640 OFFCURVE",
"574 533 OFFCURVE",
"574 321 CURVE SMOOTH",
"574 130 OFFCURVE",
"489 25 OFFCURVE",
"359 25 CURVE SMOOTH",
"185 25 OFFCURVE",
"143 181 OFFCURVE",
"143 269 CURVE",
"600 269 LINE",
"600 305 LINE",
"48 305 LINE",
"48 90 OFFCURVE",
"187 -15 OFFCURVE",
"357 -15 CURVE SMOOTH",
"548 -15 OFFCURVE",
"671 144 OFFCURVE",
"671 353 CURVE SMOOTH",
"671 546 OFFCURVE",
"545 680 OFFCURVE",
"306 680 CURVE SMOOTH"
);
}
);
width = 731;
},
{
layerId = "C8DF7272-19F4-4290-A6F2-EFA6DE6A61D8";
paths = (
{
closed = 1;
nodes = (
"220 680 OFFCURVE",
"115 642 OFFCURVE",
"76 623 CURVE",
"76 465 LINE",
"99 465 LINE",
"136 582 OFFCURVE",
"230 637 OFFCURVE",
"330 637 CURVE SMOOTH",
"467 637 OFFCURVE",
"525 492 OFFCURVE",
"525 311 CURVE SMOOTH",
"525 142 OFFCURVE",
"476 28 OFFCURVE",
"359 28 CURVE SMOOTH",
"235 28 OFFCURVE",
"205 155 OFFCURVE",
"205 267 CURVE",
"618 267 LINE",
"618 310 LINE",
"46 310 LINE",
"46 44 OFFCURVE",
"236 -15 OFFCURVE",
"359 -15 CURVE SMOOTH",
"568 -15 OFFCURVE",
"705 145 OFFCURVE",
"705 355 CURVE SMOOTH",
"705 588 OFFCURVE",
"535 680 OFFCURVE",
"327 680 CURVE SMOOTH"
);
}
);
width = 763;
}
);
leftKerningGroup = O;
leftMetricsKey = "=O*0.8";
rightKerningGroup = O;
rightMetricsKey = "=O";
unicode = 018F;
},
{
glyphname = T;
layers = (
{
anchors = (
{
name = bottom;
position = "{318, 0}";
},
{
name = center;
position = "{503, 363}";
},
{
name = top;
position = "{318, 665}";
}
);
layerId = "C8DF7272-19F4-4290-A6F2-EFA6DE6A61D8";
paths = (
{
closed = 1;
nodes = (
"33 500 LINE",
"56 500 LINE",
"64 572 OFFCURVE",
"94 622 OFFCURVE",
"176 622 CURVE SMOOTH",
"238 622 LINE",
"238 100 LINE SMOOTH",
"238 35 OFFCURVE",
"222 25 OFFCURVE",
"183 23 CURVE",
"183 0 LINE",
"468 0 LINE",
"468 23 LINE",
"414 25 OFFCURVE",
"398 35 OFFCURVE",
"398 100 CURVE SMOOTH",
"398 622 LINE",
"459 622 LINE SMOOTH",
"543 622 OFFCURVE",
"572 572 OFFCURVE",
"580 500 CURVE",
"603 500 LINE",
"603 665 LINE",
"33 665 LINE"
);
}
);
width = 636;
},
{
anchors = (
{
name = bottom;
position = "{311, 0}";
},
{
name = center;
position = "{483, 381}";
},
{
name = top;
position = "{311, 665}";
}
);
layerId = "EA003B4E-FCCC-40A4-9C34-984F621C71B7";
paths = (
{
closed = 1;
nodes = (
"41 509 LINE",
"64 509 LINE",
"67 579 OFFCURVE",
"84 629 OFFCURVE",
"184 629 CURVE SMOOTH",
"268 629 LINE",
"268 100 LINE SMOOTH",
"268 31 OFFCURVE",
"252 25 OFFCURVE",
"198 23 CURVE",
"198 0 LINE",
"448 0 LINE",
"448 23 LINE",
"369 25 OFFCURVE",
"353 31 OFFCURVE",
"353 100 CURVE SMOOTH",
"353 629 LINE",
"436 629 LINE SMOOTH",
"537 629 OFFCURVE",
"553 579 OFFCURVE",
"557 509 CURVE",
"580 509 LINE",
"580 665 LINE",
"41 665 LINE"
);
}
);
width = 621;
}
);
leftKerningGroup = T;
rightKerningGroup = T;
unicode = 0054;
},
{
glyphname = Tbar;
layers = (
{
anchors = (
{
name = bottom;
position = "{318, 0}";
},
{
name = center;
position = "{503, 363}";
},
{
name = top;
position = "{318, 665}";
}
);
layerId = "C8DF7272-19F4-4290-A6F2-EFA6DE6A61D8";
paths = (
{
closed = 1;
nodes = (
"33 500 LINE",
"56 500 LINE",
"64 572 OFFCURVE",
"94 622 OFFCURVE",
"176 622 CURVE SMOOTH",
"238 622 LINE",
"238 100 LINE SMOOTH",
"238 35 OFFCURVE",
"222 25 OFFCURVE",
"183 23 CURVE",
"183 0 LINE",
"468 0 LINE",
"468 23 LINE",
"414 25 OFFCURVE",
"398 35 OFFCURVE",
"398 100 CURVE SMOOTH",
"398 622 LINE",
"459 622 LINE SMOOTH",
"543 622 OFFCURVE",
"572 572 OFFCURVE",
"580 500 CURVE",
"603 500 LINE",
"603 665 LINE",
"33 665 LINE"
);
},
{
closed = 1;
nodes = (
"503 398 LINE",
"133 398 LINE",
"133 355 LINE",
"503 355 LINE"
);
}
);
width = 636;
},
{
anchors = (
{
name = bottom;
position = "{311, 0}";
},
{
name = center;
position = "{483, 381}";
},
{
name = top;
position = "{311, 665}";
}
);
layerId = "EA003B4E-FCCC-40A4-9C34-984F621C71B7";
paths = (
{
closed = 1;
nodes = (
"41 509 LINE",
"64 509 LINE",
"67 579 OFFCURVE",
"84 629 OFFCURVE",
"184 629 CURVE SMOOTH",
"268 629 LINE",
"268 100 LINE SMOOTH",
"268 31 OFFCURVE",
"252 25 OFFCURVE",
"198 23 CURVE",
"198 0 LINE",
"448 0 LINE",
"448 23 LINE",
"369 25 OFFCURVE",
"353 31 OFFCURVE",
"353 100 CURVE SMOOTH",
"353 629 LINE",
"436 629 LINE SMOOTH",
"537 629 OFFCURVE",
"553 579 OFFCURVE",
"557 509 CURVE",
"580 509 LINE",
"580 665 LINE",
"41 665 LINE"
);
},
{
closed = 1;
nodes = (
"483 396 LINE",
"139 396 LINE",
"139 360 LINE",
"483 360 LINE"
);
}
);
width = 621;
}
);
leftKerningGroup = T;
rightKerningGroup = T;
unicode = 0166;
},
{
glyphname = U;
layers = (
{
anchors = (
{
name = bottom;
position = "{402, 0}";
},
{
name = ogonek;
position = "{650, 0}";
},
{
name = top;
position = "{392, 665}";
},
{
name = topright;
position = "{743, 665}";
}
);
layerId = "C8DF7272-19F4-4290-A6F2-EFA6DE6A61D8";
paths = (
{
closed = 1;
nodes = (
"423 -15 OFFCURVE",
"499 56 OFFCURVE",
"541 183 CURVE",
"543 183 LINE",
"543 100 LINE SMOOTH",
"543 48 OFFCURVE",
"547 21 OFFCURVE",
"555 0 CURVE",
"758 0 LINE",
"758 23 LINE",
"704 25 OFFCURVE",
"688 35 OFFCURVE",
"688 90 CURVE SMOOTH",
"688 565 LINE SMOOTH",
"688 630 OFFCURVE",
"704 640 OFFCURVE",
"743 642 CURVE",
"743 665 LINE",
"463 665 LINE",
"463 642 LINE",
"517 640 OFFCURVE",
"533 630 OFFCURVE",
"533 565 CURVE SMOOTH",
"533 322 LINE SMOOTH",
"533 199 OFFCURVE",
"461 90 OFFCURVE",
"354 90 CURVE SMOOTH",
"287 90 OFFCURVE",
"263 133 OFFCURVE",
"263 198 CURVE SMOOTH",
"263 565 LINE SMOOTH",
"263 630 OFFCURVE",
"279 640 OFFCURVE",
"318 642 CURVE",
"318 665 LINE",
"33 665 LINE",
"33 642 LINE",
"87 640 OFFCURVE",
"103 630 OFFCURVE",
"103 565 CURVE SMOOTH",
"103 188 LINE SMOOTH",
"103 70 OFFCURVE",
"169 -15 OFFCURVE",
"304 -15 CURVE SMOOTH"
);
}
);
width = 801;
},
{
anchors = (
{
name = bottom;
position = "{383, 0}";
},
{
name = ogonek;
position = "{660, 0}";
},
{
name = top;
position = "{382, 665}";
},
{
name = topright;
position = "{725, 665}";
}
);
layerId = "EA003B4E-FCCC-40A4-9C34-984F621C71B7";
paths = (
{
closed = 1;
nodes = (
"422 -15 OFFCURVE",
"506 60 OFFCURVE",
"558 185 CURVE",
"560 185 LINE",
"560 100 LINE SMOOTH",
"560 48 OFFCURVE",
"564 21 OFFCURVE",
"572 0 CURVE",
"714 0 LINE",
"714 23 LINE",
"655 25 OFFCURVE",
"639 31 OFFCURVE",
"639 99 CURVE SMOOTH",
"639 565 LINE SMOOTH",
"639 634 OFFCURVE",
"655 640 OFFCURVE",
"709 642 CURVE",
"709 665 LINE",
"465 665 LINE",
"465 642 LINE",
"543 640 OFFCURVE",
"559 634 OFFCURVE",
"559 565 CURVE SMOOTH",
"559 322 LINE SMOOTH",
"559 171 OFFCURVE",
"451 50 OFFCURVE",
"326 50 CURVE SMOOTH",
"240 50 OFFCURVE",
"213 108 OFFCURVE",
"213 185 CURVE SMOOTH",
"213 565 LINE SMOOTH",
"213 634 OFFCURVE",
"229 640 OFFCURVE",
"283 642 CURVE",
"283 665 LINE",
"42 665 LINE",
"42 642 LINE",
"112 640 OFFCURVE",
"128 634 OFFCURVE",
"128 565 CURVE SMOOTH",
"128 162 LINE SMOOTH",
"128 52 OFFCURVE",
"186 -15 OFFCURVE",
"301 -15 CURVE SMOOTH"
);
}
);
width = 774;
}
);
leftKerningGroup = U;
rightKerningGroup = H;
unicode = 0055;
},
{
glyphname = Uhorn;
layers = (
{
anchors = (
{
name = _topright;
position = "{725, 665}";
},
{
name = bottom;
position = "{387, 0}";
},
{
name = ogonek;
position = "{660, 0}";
},
{
name = top;
position = "{387, 665}";
},
{
name = topright;
position = "{725, 665}";
}
);
layerId = "EA003B4E-FCCC-40A4-9C34-984F621C71B7";
paths = (
{
closed = 1;
nodes = (
"770 642 OFFCURVE",
"817 687 OFFCURVE",
"817 739 CURVE SMOOTH",
"817 779 OFFCURVE",
"789 808 OFFCURVE",
"741 808 CURVE SMOOTH",
"730 808 OFFCURVE",
"717 806 OFFCURVE",
"704 803 CURVE",
"704 780 LINE",
"744 773 OFFCURVE",
"754 745 OFFCURVE",
"754 722 CURVE SMOOTH",
"754 688 OFFCURVE",
"728 665 OFFCURVE",
"645 665 CURVE SMOOTH",
"465 665 LINE",
"465 642 LINE",
"543 640 OFFCURVE",
"559 634 OFFCURVE",
"559 565 CURVE SMOOTH",
"559 322 LINE SMOOTH",
"559 171 OFFCURVE",
"451 50 OFFCURVE",
"326 50 CURVE SMOOTH",
"240 50 OFFCURVE",
"213 108 OFFCURVE",
"213 185 CURVE SMOOTH",
"213 565 LINE SMOOTH",
"213 634 OFFCURVE",
"229 640 OFFCURVE",
"283 642 CURVE",
"283 665 LINE",
"42 665 LINE",
"42 642 LINE",
"112 640 OFFCURVE",
"128 634 OFFCURVE",
"128 565 CURVE SMOOTH",
"128 162 LINE SMOOTH",
"128 52 OFFCURVE",
"186 -15 OFFCURVE",
"301 -15 CURVE SMOOTH",
"422 -15 OFFCURVE",
"506 60 OFFCURVE",
"558 185 CURVE",
"560 185 LINE",
"560 100 LINE SMOOTH",
"560 48 OFFCURVE",
"564 21 OFFCURVE",
"572 0 CURVE",
"714 0 LINE",
"714 23 LINE",
"655 25 OFFCURVE",
"639 31 OFFCURVE",
"639 99 CURVE SMOOTH",
"639 565 LINE SMOOTH",
"639 634 OFFCURVE",
"655 640 OFFCURVE",
"709 642 CURVE SMOOTH"
);
}
);
width = 774;
},
{
anchors = (
{
name = _topright;
position = "{743, 665}";
},
{
name = bottom;
position = "{401, 0}";
},
{
name = ogonek;
position = "{650, 0}";
},
{
name = top;
position = "{401, 665}";
},
{
name = topright;
position = "{743, 665}";
}
);
layerId = "C8DF7272-19F4-4290-A6F2-EFA6DE6A61D8";
paths = (
{
closed = 1;
nodes = (
"803 642 OFFCURVE",
"855 676 OFFCURVE",
"855 740 CURVE SMOOTH",
"855 788 OFFCURVE",
"820 816 OFFCURVE",
"774 816 CURVE SMOOTH",
"755 816 OFFCURVE",
"733 812 OFFCURVE",
"712 803 CURVE",
"712 780 LINE",
"742 773 OFFCURVE",
"752 750 OFFCURVE",
"752 730 CURVE SMOOTH",
"752 692 OFFCURVE",
"726 665 OFFCURVE",
"683 665 CURVE SMOOTH",
"463 665 LINE",
"463 642 LINE",
"517 640 OFFCURVE",
"533 630 OFFCURVE",
"533 565 CURVE SMOOTH",
"533 322 LINE SMOOTH",
"533 199 OFFCURVE",
"461 90 OFFCURVE",
"354 90 CURVE SMOOTH",
"287 90 OFFCURVE",
"263 133 OFFCURVE",
"263 198 CURVE SMOOTH",
"263 565 LINE SMOOTH",
"263 630 OFFCURVE",
"279 640 OFFCURVE",
"318 642 CURVE",
"318 665 LINE",
"33 665 LINE",
"33 642 LINE",
"87 640 OFFCURVE",
"103 630 OFFCURVE",
"103 565 CURVE SMOOTH",
"103 188 LINE SMOOTH",
"103 70 OFFCURVE",
"169 -15 OFFCURVE",
"304 -15 CURVE SMOOTH",
"423 -15 OFFCURVE",
"499 56 OFFCURVE",
"541 183 CURVE",
"543 183 LINE",
"543 100 LINE SMOOTH",
"543 48 OFFCURVE",
"547 21 OFFCURVE",
"555 0 CURVE",
"758 0 LINE",
"758 23 LINE",
"704 25 OFFCURVE",
"688 35 OFFCURVE",
"688 90 CURVE SMOOTH",
"688 565 LINE SMOOTH",
"688 630 OFFCURVE",
"704 640 OFFCURVE",
"743 642 CURVE SMOOTH"
);
}
);
width = 801;
}
);
leftKerningGroup = U;
rightKerningGroup = H;
unicode = 01AF;
},
{
glyphname = V;
layers = (
{
anchors = (
{
name = bottom;
position = "{305, 0}";
},
{
name = top;
position = "{366, 665}";
}
);
layerId = "C8DF7272-19F4-4290-A6F2-EFA6DE6A61D8";
paths = (
{
closed = 1;
nodes = (
"363 -8 LINE",
"370 27 OFFCURVE",
"373 43 OFFCURVE",
"386 79 CURVE SMOOTH",
"562 565 LINE SMOOTH",
"579 610 OFFCURVE",
"603 639 OFFCURVE",
"630 642 CURVE",
"630 665 LINE",
"447 665 LINE",
"447 642 LINE",
"505 639 OFFCURVE",
"525 610 OFFCURVE",
"508 565 CURVE SMOOTH",
"384 224 LINE",
"382 224 LINE",
"249 565 LINE SMOOTH",
"232 608 OFFCURVE",
"234 639 OFFCURVE",
"287 642 CURVE",
"287 665 LINE",
"5 665 LINE",
"5 642 LINE",
"37 639 OFFCURVE",
"48 633 OFFCURVE",
"75 565 CURVE SMOOTH",
"268 79 LINE SMOOTH",
"282 44 OFFCURVE",
"286 27 OFFCURVE",
"295 -8 CURVE"
);
}
);
width = 646;
},
{
anchors = (
{
name = bottom;
position = "{310, 0}";
},
{
name = top;
position = "{334, 665}";
}
);
layerId = "EA003B4E-FCCC-40A4-9C34-984F621C71B7";
paths = (
{
closed = 1;
nodes = (
"344 -8 LINE",
"352 27 OFFCURVE",
"358 43 OFFCURVE",
"371 79 CURVE SMOOTH",
"551 565 LINE SMOOTH",
"569 615 OFFCURVE",
"594 639 OFFCURVE",
"633 642 CURVE",
"633 665 LINE",
"427 665 LINE",
"427 642 LINE",
"509 639 OFFCURVE",
"520 615 OFFCURVE",
"502 565 CURVE SMOOTH",
"340 128 LINE",
"338 128 LINE",
"179 565 LINE SMOOTH",
"155 631 OFFCURVE",
"163 639 OFFCURVE",
"229 642 CURVE",
"230 665 LINE",
"1 665 LINE",
"1 642 LINE",
"46 639 OFFCURVE",
"61 634 OFFCURVE",
"86 565 CURVE SMOOTH",
"266 79 LINE SMOOTH",
"279 44 OFFCURVE",
"283 27 OFFCURVE",
"291 -8 CURVE"
);
}
);
width = 637;
}
);
leftKerningGroup = V;
rightKerningGroup = V;
unicode = 0056;
},
{
glyphname = W;
layers = (
{
anchors = (
{
name = bottom;
position = "{487, 0}";
},
{
name = top;
position = "{557, 665}";
}
);
layerId = "C8DF7272-19F4-4290-A6F2-EFA6DE6A61D8";
paths = (
{
closed = 1;
nodes = (
"305 -8 LINE",
"313 27 OFFCURVE",
"318 43 OFFCURVE",
"333 79 CURVE SMOOTH",
"497 460 LINE",
"500 460 LINE",
"666 79 LINE SMOOTH",
"681 44 OFFCURVE",
"687 27 OFFCURVE",
"695 -8 CURVE",
"765 -8 LINE",
"771 27 OFFCURVE",
"775 44 OFFCURVE",
"785 79 CURVE SMOOTH",
"929 565 LINE SMOOTH",
"942 610 OFFCURVE",
"966 639 OFFCURVE",
"998 642 CURVE",
"998 665 LINE",
"801 665 LINE",
"800 642 LINE",
"863 639 OFFCURVE",
"885 610 OFFCURVE",
"871 565 CURVE SMOOTH",
"773 250 LINE",
"769 250 LINE",
"629 565 LINE SMOOTH",
"612 602 OFFCURVE",
"602 636 OFFCURVE",
"590 673 CURVE",
"520 673 LINE",
"340 250 LINE",
"338 250 LINE",
"246 565 LINE SMOOTH",
"233 608 OFFCURVE",
"243 639 OFFCURVE",
"295 642 CURVE",
"296 665 LINE",
"14 665 LINE",
"14 642 LINE",
"46 639 OFFCURVE",
"56 634 OFFCURVE",
"76 565 CURVE SMOOTH",
"214 79 LINE SMOOTH",
"224 44 OFFCURVE",
"228 27 OFFCURVE",
"234 -8 CURVE"
);
}
);
width = 1002;
},
{
anchors = (
{
name = bottom;
position = "{471, 0}";
},
{
name = top;
position = "{495, 665}";
}
);
layerId = "EA003B4E-FCCC-40A4-9C34-984F621C71B7";
paths = (
{
closed = 1;
nodes = (
"278 -8 LINE",
"286 27 OFFCURVE",
"290 42 OFFCURVE",
"303 79 CURVE SMOOTH",
"474 542 LINE",
"476 542 LINE",
"649 79 LINE SMOOTH",
"662 44 OFFCURVE",
"669 27 OFFCURVE",
"676 -8 CURVE",
"728 -8 LINE",
"733 27 OFFCURVE",
"737 44 OFFCURVE",
"746 79 CURVE SMOOTH",
"875 565 LINE SMOOTH",
"889 615 OFFCURVE",
"910 639 OFFCURVE",
"941 642 CURVE",
"941 665 LINE",
"750 665 LINE",
"749 642 LINE",
"816 639 OFFCURVE",
"840 614 OFFCURVE",
"827 565 CURVE SMOOTH",
"720 153 LINE",
"717 153 LINE",
"560 565 LINE SMOOTH",
"547 601 OFFCURVE",
"535 636 OFFCURVE",
"522 673 CURVE",
"471 673 LINE",
"283 153 LINE",
"281 153 LINE",
"177 565 LINE SMOOTH",
"161 631 OFFCURVE",
"168 639 OFFCURVE",
"249 642 CURVE",
"250 665 LINE",
"16 665 LINE",
"16 642 LINE",
"56 639 OFFCURVE",
"69 634 OFFCURVE",
"86 565 CURVE SMOOTH",
"208 79 LINE SMOOTH",
"217 44 OFFCURVE",
"221 27 OFFCURVE",
"226 -8 CURVE"
);
}
);
width = 955;
}
);
leftKerningGroup = W;
rightKerningGroup = W;
unicode = 0057;
},
{
glyphname = X;
layers = (
{
anchors = (
{
name = bottom;
position = "{349, 0}";
},
{
name = top;
position = "{379, 665}";
}
);
layerId = "C8DF7272-19F4-4290-A6F2-EFA6DE6A61D8";
paths = (
{
closed = 1;
nodes = (
"223 0 LINE",
"223 23 LINE",
"164 26 OFFCURVE",
"138 55 OFFCURVE",
"162 100 CURVE SMOOTH",
"271 305 LINE",
"273 305 LINE",
"403 100 LINE SMOOTH",
"430 58 OFFCURVE",
"423 26 OFFCURVE",
"370 23 CURVE",
"370 0 LINE",
"664 0 LINE",
"664 23 LINE",
"641 25 OFFCURVE",
"630 33 OFFCURVE",
"588 100 CURVE SMOOTH",
"430 349 LINE SMOOTH",
"419 366 OFFCURVE",
"422 384 OFFCURVE",
"432 402 CURVE SMOOTH",
"526 565 LINE SMOOTH",
"552 610 OFFCURVE",
"581 639 OFFCURVE",
"603 642 CURVE",
"603 665 LINE",
"432 665 LINE",
"432 642 LINE",
"481 639 OFFCURVE",
"495 610 OFFCURVE",
"469 565 CURVE SMOOTH",
"385 423 LINE",
"383 423 LINE",
"293 565 LINE SMOOTH",
"266 608 OFFCURVE",
"273 639 OFFCURVE",
"321 642 CURVE",
"321 665 LINE",
"36 665 LINE",
"36 642 LINE",
"60 639 OFFCURVE",
"66 631 OFFCURVE",
"108 565 CURVE SMOOTH",
"225 381 LINE SMOOTH",
"238 361 OFFCURVE",
"231 348 OFFCURVE",
"222 329 CURVE",
"102 100 LINE SMOOTH",
"78 55 OFFCURVE",
"46 25 OFFCURVE",
"3 23 CURVE",
"3 0 LINE"
);
}
);
width = 667;
},
{
anchors = (
{
name = bottom;
position = "{274, 0}";
},
{
name = top;
position = "{298, 665}";
}
);
layerId = "EA003B4E-FCCC-40A4-9C34-984F621C71B7";
paths = (
{
closed = 1;
nodes = (
"210 0 LINE",
"210 23 LINE",
"138 26 OFFCURVE",
"121 47 OFFCURVE",
"150 100 CURVE SMOOTH",
"267 315 LINE",
"269 315 LINE",
"387 100 LINE SMOOTH",
"424 33 OFFCURVE",
"408 26 OFFCURVE",
"349 23 CURVE",
"349 0 LINE",
"576 0 LINE",
"576 23 LINE",
"535 26 OFFCURVE",
"521 30 OFFCURVE",
"482 100 CURVE SMOOTH",
"345 348 LINE SMOOTH",
"335 367 OFFCURVE",
"336 387 OFFCURVE",
"347 405 CURVE SMOOTH",
"440 565 LINE SMOOTH",
"472 619 OFFCURVE",
"495 639 OFFCURVE",
"535 642 CURVE",
"535 665 LINE",
"353 665 LINE",
"353 642 LINE",
"411 639 OFFCURVE",
"419 617 OFFCURVE",
"390 565 CURVE SMOOTH",
"305 414 LINE",
"303 414 LINE",
"220 565 LINE SMOOTH",
"184 630 OFFCURVE",
"200 639 OFFCURVE",
"256 642 CURVE",
"256 665 LINE",
"23 665 LINE",
"23 642 LINE",
"73 639 OFFCURVE",
"89 633 OFFCURVE",
"126 565 CURVE SMOOTH",
"227 380 LINE SMOOTH",
"238 359 OFFCURVE",
"236 346 OFFCURVE",
"225 326 CURVE SMOOTH",
"99 100 LINE SMOOTH",
"69 46 OFFCURVE",
"43 26 OFFCURVE",
"0 23 CURVE",
"0 0 LINE"
);
}
);
width = 573;
}
);
leftKerningGroup = X;
rightKerningGroup = X;
unicode = 0058;
},
{
glyphname = Y;
layers = (
{
anchors = (
{
name = bottom;
position = "{308, 0}";
},
{
name = top;
position = "{358, 665}";
},
{
name = topleft;
position = "{17, 665}";
}
);
layerId = "C8DF7272-19F4-4290-A6F2-EFA6DE6A61D8";
paths = (
{
closed = 1;
nodes = (
"428 642 LINE",
"486 639 OFFCURVE",
"504 609 OFFCURVE",
"480 565 CURVE SMOOTH",
"376 374 LINE",
"374 374 LINE",
"270 565 LINE SMOOTH",
"246 608 OFFCURVE",
"242 639 OFFCURVE",
"301 642 CURVE",
"301 665 LINE",
"5 665 LINE",
"5 642 LINE",
"40 639 OFFCURVE",
"53 633 OFFCURVE",
"91 565 CURVE SMOOTH",
"220 337 LINE SMOOTH",
"232 315 OFFCURVE",
"237 304 OFFCURVE",
"237 269 CURVE SMOOTH",
"237 100 LINE SMOOTH",
"237 35 OFFCURVE",
"221 25 OFFCURVE",
"182 23 CURVE",
"182 0 LINE",
"467 0 LINE",
"467 23 LINE",
"413 25 OFFCURVE",
"397 35 OFFCURVE",
"397 100 CURVE SMOOTH",
"397 269 LINE SMOOTH",
"397 304 OFFCURVE",
"405 316 OFFCURVE",
"416 337 CURVE SMOOTH",
"539 565 LINE SMOOTH",
"562 608 OFFCURVE",
"585 639 OFFCURVE",
"615 642 CURVE",
"615 665 LINE",
"428 665 LINE"
);
}
);
width = 634;
},
{
anchors = (
{
name = bottom;
position = "{276, 0}";
},
{
name = top;
position = "{299, 665}";
},
{
name = topleft;
position = "{8, 665}";
}
);
layerId = "EA003B4E-FCCC-40A4-9C34-984F621C71B7";
paths = (
{
closed = 1;
nodes = (
"363 642 LINE",
"426 639 OFFCURVE",
"446 618 OFFCURVE",
"415 565 CURVE SMOOTH",
"301 372 LINE",
"299 372 LINE",
"193 565 LINE SMOOTH",
"157 629 OFFCURVE",
"165 639 OFFCURVE",
"224 642 CURVE",
"224 665 LINE",
"1 665 LINE",
"1 642 LINE",
"45 639 OFFCURVE",
"58 633 OFFCURVE",
"96 565 CURVE SMOOTH",
"216 351 LINE SMOOTH",
"228 329 OFFCURVE",
"233 318 OFFCURVE",
"233 283 CURVE SMOOTH",
"233 100 LINE SMOOTH",
"233 31 OFFCURVE",
"217 25 OFFCURVE",
"163 23 CURVE",
"163 0 LINE",
"412 0 LINE",
"412 23 LINE",
"334 25 OFFCURVE",
"318 31 OFFCURVE",
"318 100 CURVE SMOOTH",
"318 283 LINE SMOOTH",
"318 318 OFFCURVE",
"324 330 OFFCURVE",
"337 351 CURVE SMOOTH",
"464 565 LINE SMOOTH",
"496 618 OFFCURVE",
"519 639 OFFCURVE",
"549 642 CURVE",
"549 665 LINE",
"363 665 LINE"
);
}
);
width = 553;
}
);
leftKerningGroup = V;
rightKerningGroup = V;
unicode = 0059;
},
{
glyphname = Z;
layers = (
{
anchors = (
{
name = bottom;
position = "{340, 0}";
},
{
name = top;
position = "{350, 665}";
}
);
layerId = "C8DF7272-19F4-4290-A6F2-EFA6DE6A61D8";
paths = (
{
closed = 1;
nodes = (
"603 0 LINE",
"611 165 LINE",
"588 165 LINE",
"583 107 OFFCURVE",
"544 54 OFFCURVE",
"453 50 CURVE SMOOTH",
"248 42 LINE",
"248 44 LINE",
"568 590 LINE SMOOTH",
"578 607 OFFCURVE",
"590 625 OFFCURVE",
"603 642 CURVE",
"603 665 LINE",
"97 665 LINE",
"97 500 LINE",
"119 500 LINE",
"123 573 OFFCURVE",
"158 612 OFFCURVE",
"227 615 CURVE SMOOTH",
"402 622 LINE",
"402 620 LINE",
"84 75 LINE SMOOTH",
"74 58 OFFCURVE",
"61 39 OFFCURVE",
"48 23 CURVE",
"48 0 LINE"
);
}
);
width = 669;
},
{
anchors = (
{
name = bottom;
position = "{296, 0}";
},
{
name = top;
position = "{306, 665}";
}
);
layerId = "EA003B4E-FCCC-40A4-9C34-984F621C71B7";
paths = (
{
closed = 1;
nodes = (
"536 0 LINE",
"544 156 LINE",
"521 156 LINE",
"516 98 OFFCURVE",
"485 47 OFFCURVE",
"386 44 CURVE SMOOTH",
"149 36 LINE",
"149 38 LINE",
"491 590 LINE SMOOTH",
"502 607 OFFCURVE",
"513 625 OFFCURVE",
"526 642 CURVE",
"526 665 LINE",
"73 665 LINE",
"73 509 LINE",
"96 509 LINE",
"101 575 OFFCURVE",
"113 619 OFFCURVE",
"194 622 CURVE SMOOTH",
"414 629 LINE",
"414 627 LINE",
"73 75 LINE SMOOTH",
"62 58 OFFCURVE",
"50 39 OFFCURVE",
"37 23 CURVE",
"37 0 LINE"
);
}
);
width = 587;
}
);
leftKerningGroup = Z;
rightKerningGroup = Z;
unicode = 005A;
},
{
glyphname = Q.ss03;
layers = (
{
anchors = (
{
name = bottom;
position = "{403, 0}";
},
{
name = center;
position = "{399, 333}";
},
{
name = ogonek;
position = "{458, 0}";
},
{
name = top;
position = "{403, 665}";
},
{
name = topleft;
position = "{44, 665}";
},
{
name = topright;
position = "{753, 665}";
}
);
layerId = "C8DF7272-19F4-4290-A6F2-EFA6DE6A61D8";
paths = (
{
closed = 1;
nodes = (
"559 -101 OFFCURVE",
"454 -40 OFFCURVE",
"312 -54 CURVE",
"312 -52 LINE",
"338 -30 OFFCURVE",
"369 -18 OFFCURVE",
"423 -14 CURVE SMOOTH",
"600 0 OFFCURVE",
"737 134 OFFCURVE",
"737 334 CURVE SMOOTH",
"737 545 OFFCURVE",
"586 680 OFFCURVE",
"398 680 CURVE SMOOTH",
"208 680 OFFCURVE",
"58 541 OFFCURVE",
"58 331 CURVE SMOOTH",
"58 148 OFFCURVE",
"173 24 OFFCURVE",
"326 -6 CURVE",
"326 -8 LINE",
"278 -30 OFFCURVE",
"237 -67 OFFCURVE",
"207 -105 CURVE",
"223 -121 LINE",
"243 -109 OFFCURVE",
"270 -99 OFFCURVE",
"298 -99 CURVE SMOOTH",
"385 -99 OFFCURVE",
"444 -197 OFFCURVE",
"600 -220 CURVE",
"683 -198 OFFCURVE",
"718 -121 OFFCURVE",
"737 -67 CURVE",
"716 -59 LINE",
"691 -90 OFFCURVE",
"679 -101 OFFCURVE",
"643 -101 CURVE SMOOTH"
);
},
{
closed = 1;
nodes = (
"238 527 OFFCURVE",
"274 637 OFFCURVE",
"377 637 CURVE SMOOTH",
"485 637 OFFCURVE",
"557 517 OFFCURVE",
"557 300 CURVE SMOOTH",
"557 138 OFFCURVE",
"521 28 OFFCURVE",
"418 28 CURVE SMOOTH",
"310 28 OFFCURVE",
"238 148 OFFCURVE",
"238 365 CURVE SMOOTH"
);
}
);
width = 795;
},
{
anchors = (
{
name = bottom;
position = "{396, 0}";
},
{
name = center;
position = "{396, 333}";
},
{
name = ogonek;
position = "{463, 0}";
},
{
name = top;
position = "{396, 665}";
},
{
name = topleft;
position = "{41, 665}";
},
{
name = topright;
position = "{750, 665}";
}
);
layerId = "EA003B4E-FCCC-40A4-9C34-984F621C71B7";
paths = (
{
closed = 1;
nodes = (
"551 -131 OFFCURVE",
"448 -40 OFFCURVE",
"306 -54 CURVE",
"306 -52 LINE",
"331 -31 OFFCURVE",
"362 -17 OFFCURVE",
"414 -14 CURVE SMOOTH",
"587 -4 OFFCURVE",
"730 132 OFFCURVE",
"730 334 CURVE SMOOTH",
"730 545 OFFCURVE",
"575 680 OFFCURVE",
"395 680 CURVE SMOOTH",
"214 680 OFFCURVE",
"60 541 OFFCURVE",
"60 331 CURVE SMOOTH",
"60 146 OFFCURVE",
"179 23 OFFCURVE",
"329 -6 CURVE",
"329 -8 LINE",
"282 -30 OFFCURVE",
"241 -67 OFFCURVE",
"211 -95 CURVE",
"227 -111 LINE",
"253 -89 OFFCURVE",
"279 -79 OFFCURVE",
"304 -79 CURVE SMOOTH",
"387 -79 OFFCURVE",
"528 -187 OFFCURVE",
"633 -200 CURVE",
"676 -178 OFFCURVE",
"711 -131 OFFCURVE",
"730 -87 CURVE",
"709 -79 LINE",
"685 -119 OFFCURVE",
"672 -131 OFFCURVE",
"637 -131 CURVE SMOOTH"
);
},
{
closed = 1;
nodes = (
"157 540 OFFCURVE",
"256 640 OFFCURVE",
"381 640 CURVE SMOOTH",
"515 640 OFFCURVE",
"633 523 OFFCURVE",
"633 315 CURVE SMOOTH",
"633 125 OFFCURVE",
"533 25 OFFCURVE",
"409 25 CURVE SMOOTH",
"275 25 OFFCURVE",
"157 142 OFFCURVE",
"157 350 CURVE SMOOTH"
);
}
);
width = 790;
}
);
leftKerningGroup = O;
leftMetricsKey = "=O";
rightKerningGroup = O;
rightMetricsKey = "=O";
},
{
glyphname = A_H;
layers = (
{
anchors = (
{
name = caret_1;
position = "{575.5, 0}";
}
);
layerId = "C8DF7272-19F4-4290-A6F2-EFA6DE6A61D8";
paths = (
{
closed = 1;
nodes = (
"205 0 LINE",
"205 23 LINE",
"146 26 OFFCURVE",
"132 55 OFFCURVE",
"160 100 CURVE SMOOTH",
"431 545 LINE",
"433 545 LINE",
"451 620 LINE",
"420 620 LINE",
"101 100 LINE SMOOTH",
"73 55 OFFCURVE",
"48 26 OFFCURVE",
"19 23 CURVE",
"19 0 LINE"
);
},
{
closed = 1;
nodes = (
"235 227 OFFCURVE",
"245 232 OFFCURVE",
"279 232 CURVE SMOOTH",
"396 232 LINE SMOOTH",
"410 232 OFFCURVE",
"425 233 OFFCURVE",
"433 240 CURVE",
"433 304 LINE",
"433 280 OFFCURVE",
"426 275 OFFCURVE",
"406 275 CURVE",
"292 275 LINE",
"280 275 OFFCURVE",
"270 275 OFFCURVE",
"263 271 CURVE",
"209 183 LINE"
);
},
{
closed = 1;
nodes = (
"593 100 LINE",
"593 565 LINE",
"593 630 OFFCURVE",
"609 640 OFFCURVE",
"648 642 CURVE",
"648 665 LINE",
"323 665 LINE",
"323 642 LINE",
"397 640 OFFCURVE",
"433 610 OFFCURVE",
"433 545 CURVE SMOOTH",
"433 100 LINE"
);
},
{
closed = 1;
nodes = (
"433 100 LINE",
"433 35 OFFCURVE",
"417 25 OFFCURVE",
"378 23 CURVE",
"378 0 LINE",
"663 0 LINE",
"663 23 LINE",
"609 25 OFFCURVE",
"593 35 OFFCURVE",
"593 100 CURVE"
);
},
{
closed = 1;
nodes = (
"593 311 LINE",
"593 346 OFFCURVE",
"606 355 OFFCURVE",
"642 355 CURVE SMOOTH",
"831 355 LINE SMOOTH",
"851 355 OFFCURVE",
"867 357 OFFCURVE",
"878 366 CURVE",
"878 100 LINE SMOOTH",
"878 35 OFFCURVE",
"862 25 OFFCURVE",
"823 23 CURVE",
"823 0 LINE",
"1108 0 LINE",
"1108 23 LINE",
"1054 25 OFFCURVE",
"1038 35 OFFCURVE",
"1038 100 CURVE SMOOTH",
"1038 565 LINE SMOOTH",
"1038 630 OFFCURVE",
"1054 640 OFFCURVE",
"1093 642 CURVE",
"1093 665 LINE",
"808 665 LINE",
"808 642 LINE",
"862 640 OFFCURVE",
"878 630 OFFCURVE",
"878 565 CURVE SMOOTH",
"878 443 LINE SMOOTH",
"878 407 OFFCURVE",
"865 398 OFFCURVE",
"829 398 CURVE SMOOTH",
"640 398 LINE SMOOTH",
"619 398 OFFCURVE",
"604 396 OFFCURVE",
"593 388 CURVE"
);
}
);
width = 1151;
},
{
anchors = (
{
name = caret_1;
position = "{532.5, 0}";
}
);
layerId = "EA003B4E-FCCC-40A4-9C34-984F621C71B7";
paths = (
{
closed = 1;
nodes = (
"214 0 LINE",
"214 23 LINE",
"129 26 OFFCURVE",
"119 50 OFFCURVE",
"148 100 CURVE SMOOTH",
"414 563 LINE",
"416 563 LINE",
"437 629 LINE",
"407 629 LINE",
"97 100 LINE SMOOTH",
"67 50 OFFCURVE",
"45 26 OFFCURVE",
"2 23 CURVE",
"2 0 LINE"
);
},
{
closed = 1;
nodes = (
"242 269 OFFCURVE",
"251 274 OFFCURVE",
"285 274 CURVE",
"379 274 LINE",
"393 274 OFFCURVE",
"408 275 OFFCURVE",
"416 282 CURVE",
"416 339 LINE",
"416 315 OFFCURVE",
"410 310 OFFCURVE",
"390 310 CURVE",
"295 310 LINE",
"283 310 OFFCURVE",
"273 310 OFFCURVE",
"266 306 CURVE",
"220 225 LINE"
);
},
{
closed = 1;
nodes = (
"501 100 LINE",
"501 565 LINE",
"501 634 OFFCURVE",
"517 640 OFFCURVE",
"571 642 CURVE",
"571 665 LINE",
"308 665 LINE",
"308 642 LINE",
"380 640 OFFCURVE",
"416 632 OFFCURVE",
"416 563 CURVE SMOOTH",
"416 100 LINE"
);
},
{
closed = 1;
nodes = (
"416 100 LINE",
"416 31 OFFCURVE",
"400 25 OFFCURVE",
"346 23 CURVE",
"346 0 LINE",
"596 0 LINE",
"596 23 LINE",
"517 25 OFFCURVE",
"501 31 OFFCURVE",
"501 100 CURVE"
);
},
{
closed = 1;
nodes = (
"501 320 LINE",
"501 355 OFFCURVE",
"514 364 OFFCURVE",
"550 364 CURVE SMOOTH",
"797 364 LINE SMOOTH",
"817 364 OFFCURVE",
"833 366 OFFCURVE",
"844 375 CURVE",
"844 100 LINE SMOOTH",
"844 31 OFFCURVE",
"828 25 OFFCURVE",
"774 23 CURVE",
"774 0 LINE",
"1024 0 LINE",
"1024 23 LINE",
"945 25 OFFCURVE",
"929 31 OFFCURVE",
"929 100 CURVE SMOOTH",
"929 565 LINE SMOOTH",
"929 634 OFFCURVE",
"945 640 OFFCURVE",
"999 642 CURVE",
"999 665 LINE",
"749 665 LINE",
"749 642 LINE",
"828 640 OFFCURVE",
"844 634 OFFCURVE",
"844 565 CURVE SMOOTH",
"844 445 LINE SMOOTH",
"844 409 OFFCURVE",
"831 400 OFFCURVE",
"795 400 CURVE SMOOTH",
"548 400 LINE SMOOTH",
"527 400 OFFCURVE",
"512 398 OFFCURVE",
"501 390 CURVE"
);
}
);
width = 1065;
}
);
leftKerningGroup = A;
leftMetricsKey = A;
rightMetricsKey = H;
},
{
glyphname = T_T;
layers = (
{
anchors = (
{
name = caret_1;
position = "{591.5, 0}";
}
);
layerId = "C8DF7272-19F4-4290-A6F2-EFA6DE6A61D8";
paths = (
{
closed = 1;
nodes = (
"33 500 LINE",
"56 500 LINE",
"64 572 OFFCURVE",
"94 622 OFFCURVE",
"176 622 CURVE SMOOTH",
"238 622 LINE",
"238 100 LINE SMOOTH",
"238 35 OFFCURVE",
"222 25 OFFCURVE",
"183 23 CURVE",
"183 0 LINE",
"468 0 LINE",
"468 23 LINE",
"414 25 OFFCURVE",
"398 35 OFFCURVE",
"398 100 CURVE SMOOTH",
"398 622 LINE",
"459 622 LINE SMOOTH",
"543 622 OFFCURVE",
"572 572 OFFCURVE",
"580 500 CURVE",
"603 500 LINE",
"603 665 LINE",
"33 665 LINE"
);
},
{
closed = 1;
nodes = (
"580 500 LINE",
"603 500 LINE",
"611 572 OFFCURVE",
"641 622 OFFCURVE",
"723 622 CURVE SMOOTH",
"785 622 LINE",
"785 100 LINE SMOOTH",
"785 35 OFFCURVE",
"769 25 OFFCURVE",
"730 23 CURVE",
"730 0 LINE",
"1015 0 LINE",
"1015 23 LINE",
"961 25 OFFCURVE",
"945 35 OFFCURVE",
"945 100 CURVE SMOOTH",
"945 622 LINE",
"1006 622 LINE SMOOTH",
"1090 622 OFFCURVE",
"1119 572 OFFCURVE",
"1127 500 CURVE",
"1150 500 LINE",
"1150 665 LINE",
"580 665 LINE"
);
}
);
width = 1183;
},
{
anchors = (
{
name = caret_1;
position = "{568, 0}";
}
);
layerId = "EA003B4E-FCCC-40A4-9C34-984F621C71B7";
paths = (
{
closed = 1;
nodes = (
"41 509 LINE",
"64 509 LINE",
"67 579 OFFCURVE",
"84 629 OFFCURVE",
"184 629 CURVE SMOOTH",
"268 629 LINE",
"268 100 LINE SMOOTH",
"268 31 OFFCURVE",
"252 25 OFFCURVE",
"198 23 CURVE",
"198 0 LINE",
"448 0 LINE",
"448 23 LINE",
"369 25 OFFCURVE",
"353 31 OFFCURVE",
"353 100 CURVE SMOOTH",
"353 629 LINE",
"436 629 LINE SMOOTH",
"537 629 OFFCURVE",
"553 579 OFFCURVE",
"557 509 CURVE",
"580 509 LINE",
"580 665 LINE",
"41 665 LINE"
);
},
{
closed = 1;
nodes = (
"556 509 LINE",
"579 509 LINE",
"582 579 OFFCURVE",
"599 629 OFFCURVE",
"699 629 CURVE SMOOTH",
"783 629 LINE",
"783 100 LINE SMOOTH",
"783 31 OFFCURVE",
"767 25 OFFCURVE",
"713 23 CURVE",
"713 0 LINE",
"963 0 LINE",
"963 23 LINE",
"884 25 OFFCURVE",
"868 31 OFFCURVE",
"868 100 CURVE SMOOTH",
"868 629 LINE",
"951 629 LINE SMOOTH",
"1052 629 OFFCURVE",
"1068 579 OFFCURVE",
"1072 509 CURVE",
"1095 509 LINE",
"1095 665 LINE",
"556 665 LINE"
);
}
);
width = 1136;
}
);
leftKerningGroup = T;
leftMetricsKey = T;
rightKerningGroup = T;
rightMetricsKey = T;
},
{
glyphname = T_h;
layers = (
{
anchors = (
{
name = caret_1;
position = "{560.5, 0}";
}
);
layerId = "C8DF7272-19F4-4290-A6F2-EFA6DE6A61D8";
paths = (
{
closed = 1;
nodes = (
"1040 351 LINE SMOOTH",
"1040 437 OFFCURVE",
"1002 475 OFFCURVE",
"920 475 CURVE SMOOTH",
"842 475 OFFCURVE",
"780 423 OFFCURVE",
"740 378 CURVE",
"740 608 LINE SMOOTH",
"740 672 OFFCURVE",
"742 714 OFFCURVE",
"744 734 CURVE",
"738 740 LINE",
"520 639 LINE",
"590 599 LINE",
"590 110 LINE SMOOTH",
"590 35 OFFCURVE",
"579 25 OFFCURVE",
"545 23 CURVE",
"545 0 LINE",
"800 0 LINE",
"800 23 LINE",
"751 25 OFFCURVE",
"740 35 OFFCURVE",
"740 110 CURVE SMOOTH",
"740 343 LINE",
"781 369 OFFCURVE",
"811 375 OFFCURVE",
"837 375 CURVE SMOOTH",
"883 375 OFFCURVE",
"890 347 OFFCURVE",
"890 309 CURVE SMOOTH",
"890 110 LINE SMOOTH",
"890 35 OFFCURVE",
"879 25 OFFCURVE",
"845 23 CURVE",
"845 0 LINE",
"1100 0 LINE",
"1100 23 LINE",
"1051 25 OFFCURVE",
"1040 35 OFFCURVE",
"1040 110 CURVE SMOOTH"
);
},
{
closed = 1;
nodes = (
"33 500 LINE",
"56 500 LINE",
"64 572 OFFCURVE",
"94 622 OFFCURVE",
"176 622 CURVE SMOOTH",
"238 622 LINE",
"238 100 LINE SMOOTH",
"238 35 OFFCURVE",
"222 25 OFFCURVE",
"183 23 CURVE",
"183 0 LINE",
"468 0 LINE",
"468 23 LINE",
"414 25 OFFCURVE",
"398 35 OFFCURVE",
"398 100 CURVE SMOOTH",
"398 622 LINE",
"469 622 LINE SMOOTH",
"553 622 OFFCURVE",
"590 602 OFFCURVE",
"590 530 CURVE",
"613 530 LINE",
"613 665 LINE",
"33 665 LINE"
);
}
);
width = 1121;
},
{
anchors = (
{
name = caret_1;
position = "{533.5, 0}";
}
);
layerId = "EA003B4E-FCCC-40A4-9C34-984F621C71B7";
paths = (
{
closed = 1;
nodes = (
"968 340 LINE SMOOTH",
"968 409 OFFCURVE",
"938 455 OFFCURVE",
"855 455 CURVE SMOOTH",
"786 455 OFFCURVE",
"728 417 OFFCURVE",
"676 364 CURVE",
"676 582 LINE SMOOTH",
"676 646 OFFCURVE",
"678 696 OFFCURVE",
"680 708 CURVE",
"674 714 LINE",
"545 654 LINE",
"596 633 LINE",
"596 101 LINE SMOOTH",
"596 31 OFFCURVE",
"581 25 OFFCURVE",
"536 23 CURVE",
"536 0 LINE",
"761 0 LINE",
"761 23 LINE",
"692 25 OFFCURVE",
"676 31 OFFCURVE",
"676 101 CURVE SMOOTH",
"676 333 LINE",
"726 373 OFFCURVE",
"776 391 OFFCURVE",
"819 391 CURVE SMOOTH",
"871 391 OFFCURVE",
"888 363 OFFCURVE",
"888 316 CURVE SMOOTH",
"888 101 LINE SMOOTH",
"888 31 OFFCURVE",
"873 25 OFFCURVE",
"828 23 CURVE",
"828 0 LINE",
"1052 0 LINE",
"1052 23 LINE",
"983 25 OFFCURVE",
"968 31 OFFCURVE",
"968 101 CURVE SMOOTH"
);
},
{
closed = 1;
nodes = (
"41 509 LINE",
"64 509 LINE",
"67 579 OFFCURVE",
"84 629 OFFCURVE",
"184 629 CURVE SMOOTH",
"268 629 LINE",
"268 100 LINE SMOOTH",
"268 31 OFFCURVE",
"252 25 OFFCURVE",
"198 23 CURVE",
"198 0 LINE",
"448 0 LINE",
"448 23 LINE",
"369 25 OFFCURVE",
"353 31 OFFCURVE",
"353 100 CURVE SMOOTH",
"353 629 LINE",
"475 629 LINE SMOOTH",
"576 629 OFFCURVE",
"596 609 OFFCURVE",
"596 539 CURVE",
"619 539 LINE",
"619 665 LINE",
"41 665 LINE"
);
}
);
width = 1067;
}
);
leftKerningGroup = T;
leftMetricsKey = "=T";
rightKerningGroup = h;
rightMetricsKey = "=h";
},
{
glyphname = Gsmall;
layers = (
{
anchors = (
{
name = bottom;
position = "{258, 0}";
},
{
name = top;
position = "{264, 440}";
}
);
layerId = "EA003B4E-FCCC-40A4-9C34-984F621C71B7";
paths = (
{
closed = 1;
nodes = (
"365 -13 OFFCURVE",
"424 34 OFFCURVE",
"455 70 CURVE",
"449 99 OFFCURVE",
"449 110 OFFCURVE",
"449 131 CURVE SMOOTH",
"449 147 LINE SMOOTH",
"449 166 OFFCURVE",
"452 180 OFFCURVE",
"474 182 CURVE",
"474 205 LINE",
"317 205 LINE",
"317 182 LINE",
"366 179 OFFCURVE",
"376 174 OFFCURVE",
"376 130 CURVE SMOOTH",
"376 101 OFFCURVE",
"374 86 OFFCURVE",
"368 71 CURVE SMOOTH",
"355 39 OFFCURVE",
"320 25 OFFCURVE",
"274 25 CURVE SMOOTH",
"169 25 OFFCURVE",
"128 141 OFFCURVE",
"128 235 CURVE",
"46 207 LINE",
"46 95 OFFCURVE",
"114 -13 OFFCURVE",
"265 -13 CURVE SMOOTH"
);
},
{
closed = 1;
nodes = (
"128 343 OFFCURVE",
"178 418 OFFCURVE",
"276 418 CURVE SMOOTH",
"329 418 OFFCURVE",
"394 391 OFFCURVE",
"405 308 CURVE",
"428 308 LINE",
"428 419 LINE",
"389 445 OFFCURVE",
"336 455 OFFCURVE",
"285 455 CURVE SMOOTH",
"160 455 OFFCURVE",
"46 365 OFFCURVE",
"46 207 CURVE",
"128 235 LINE"
);
}
);
userData = {
RMXScaler = {
height = 83.8;
width = 80;
};
};
width = 511;
},
{
anchors = (
{
name = bottom;
position = "{264, 0}";
},
{
name = top;
position = "{288, 460}";
}
);
layerId = "C8DF7272-19F4-4290-A6F2-EFA6DE6A61D8";
paths = (
{
closed = 1;
nodes = (
"366 -15 OFFCURVE",
"455 23 OFFCURVE",
"490 74 CURVE",
"484 103 OFFCURVE",
"484 106 OFFCURVE",
"484 141 CURVE SMOOTH",
"484 154 LINE SMOOTH",
"484 182 OFFCURVE",
"487 193 OFFCURVE",
"500 195 CURVE",
"500 218 LINE",
"316 218 LINE",
"316 195 LINE",
"347 190 OFFCURVE",
"348 187 OFFCURVE",
"349 131 CURVE SMOOTH",
"350 89 OFFCURVE",
"351 62 OFFCURVE",
"342 52 CURVE SMOOTH",
"327 36 OFFCURVE",
"307 36 OFFCURVE",
"291 36 CURVE SMOOTH",
"210 36 OFFCURVE",
"190 137 OFFCURVE",
"190 246 CURVE",
"30 222 LINE",
"30 89 OFFCURVE",
"125 -15 OFFCURVE",
"281 -15 CURVE SMOOTH"
);
},
{
closed = 1;
nodes = (
"190 369 OFFCURVE",
"234 432 OFFCURVE",
"304 432 CURVE SMOOTH",
"356 432 OFFCURVE",
"409 401 OFFCURVE",
"427 310 CURVE",
"450 310 LINE",
"450 443 LINE",
"418 465 OFFCURVE",
"355 475 OFFCURVE",
"309 475 CURVE SMOOTH",
"176 475 OFFCURVE",
"30 394 OFFCURVE",
"30 222 CURVE",
"190 246 LINE"
);
}
);
userData = {
RMXScaler = {
height = 87.6;
width = 80;
};
};
width = 524;
}
);
leftKerningGroup = o;
leftMetricsKey = "=c";
rightKerningGroup = o;
rightMetricsKey = "=c";
unicode = 0262;
userData = {
RMXScaler = {
source = g.sc;
};
};
},
{
glyphname = Gsmallhook;
layers = (
{
components = (
{
name = Gsmall;
}
);
layerId = "EA003B4E-FCCC-40A4-9C34-984F621C71B7";
paths = (
{
closed = 1;
nodes = (
"399 399 LINE",
"428 308 LINE",
"428 380 OFFCURVE",
"427 544 OFFCURVE",
"498 544 CURVE SMOOTH",
"531 544 OFFCURVE",
"551 509 OFFCURVE",
"556 452 CURVE",
"579 452 LINE",
"587 497 OFFCURVE",
"587 545 OFFCURVE",
"579 590 CURVE",
"450 604 OFFCURVE",
"380 543 OFFCURVE",
"357 424 CURVE"
);
}
);
width = 509;
},
{
components = (
{
name = Gsmall;
}
);
layerId = "C8DF7272-19F4-4290-A6F2-EFA6DE6A61D8";
paths = (
{
closed = 1;
nodes = (
"404 425 LINE",
"440 310 LINE",
"440 526 OFFCURVE",
"471 577 OFFCURVE",
"500 577 CURVE SMOOTH",
"522 577 OFFCURVE",
"536 552 OFFCURVE",
"544 490 CURVE",
"567 490 LINE",
"575 535 OFFCURVE",
"575 589 OFFCURVE",
"567 634 CURVE",
"439 646 OFFCURVE",
"359 594 OFFCURVE",
"335 457 CURVE"
);
}
);
width = 500;
}
);
leftKerningGroup = o;
leftMetricsKey = "=c";
rightMetricsKey = "=f";
unicode = 029B;
},
{
glyphname = Ismall;
layers = (
{
layerId = "EA003B4E-FCCC-40A4-9C34-984F621C71B7";
paths = (
{
closed = 1;
nodes = (
"276 0 LINE",
"276 23 LINE",
"206 25 OFFCURVE",
"191 31 OFFCURVE",
"191 101 CURVE SMOOTH",
"191 338 LINE SMOOTH",
"191 408 OFFCURVE",
"206 414 OFFCURVE",
"251 416 CURVE",
"251 439 LINE",
"26 439 LINE",
"26 416 LINE",
"96 414 OFFCURVE",
"111 408 OFFCURVE",
"111 338 CURVE SMOOTH",
"111 101 LINE SMOOTH",
"111 31 OFFCURVE",
"96 25 OFFCURVE",
"51 23 CURVE",
"51 0 LINE"
);
}
);
width = 302;
},
{
layerId = "C8DF7272-19F4-4290-A6F2-EFA6DE6A61D8";
paths = (
{
closed = 1;
nodes = (
"293 0 LINE",
"293 23 LINE",
"244 25 OFFCURVE",
"233 35 OFFCURVE",
"233 110 CURVE SMOOTH",
"233 350 LINE SMOOTH",
"233 425 OFFCURVE",
"244 435 OFFCURVE",
"278 437 CURVE",
"278 460 LINE",
"23 460 LINE",
"23 437 LINE",
"72 435 OFFCURVE",
"83 425 OFFCURVE",
"83 350 CURVE SMOOTH",
"83 110 LINE SMOOTH",
"83 35 OFFCURVE",
"72 25 OFFCURVE",
"38 23 CURVE",
"38 0 LINE"
);
}
);
width = 316;
}
);
leftKerningGroup = n;
leftMetricsKey = "=en-cy";
rightKerningGroup = n;
rightMetricsKey = "=en-cy";
unicode = 026A;
},
{
glyphname = Lsmall;
layers = (
{
anchors = (
{
name = bottom;
position = "{238, 0}";
},
{
name = center;
position = "{222, 220}";
},
{
name = top;
position = "{154, 440}";
},
{
name = topright;
position = "{400, 440}";
}
);
layerId = "EA003B4E-FCCC-40A4-9C34-984F621C71B7";
paths = (
{
closed = 1;
nodes = (
"379 80 OFFCURVE",
"363 31 OFFCURVE",
"300 31 CURVE SMOOTH",
"252 31 LINE SMOOTH",
"199 31 OFFCURVE",
"191 59 OFFCURVE",
"191 101 CURVE SMOOTH",
"191 339 LINE SMOOTH",
"191 409 OFFCURVE",
"206 415 OFFCURVE",
"251 417 CURVE",
"251 440 LINE",
"26 440 LINE",
"26 417 LINE",
"96 415 OFFCURVE",
"111 409 OFFCURVE",
"111 339 CURVE SMOOTH",
"111 101 LINE SMOOTH",
"111 31 OFFCURVE",
"96 25 OFFCURVE",
"51 23 CURVE",
"51 0 LINE",
"401 0 LINE",
"407 132 LINE",
"384 132 LINE"
);
}
);
userData = {
RMXScaler = {
height = 83.8;
width = 80;
};
};
width = 426;
},
{
anchors = (
{
name = bottom;
position = "{215, 0}";
},
{
name = center;
position = "{226, 230}";
},
{
name = top;
position = "{166, 460}";
},
{
name = topright;
position = "{406, 460}";
}
);
layerId = "C8DF7272-19F4-4290-A6F2-EFA6DE6A61D8";
paths = (
{
closed = 1;
nodes = (
"390 88 OFFCURVE",
"367 40 OFFCURVE",
"315 40 CURVE SMOOTH",
"294 40 LINE SMOOTH",
"240 40 OFFCURVE",
"233 55 OFFCURVE",
"233 88 CURVE SMOOTH",
"233 350 LINE SMOOTH",
"233 425 OFFCURVE",
"244 435 OFFCURVE",
"278 437 CURVE",
"278 460 LINE",
"23 460 LINE",
"23 437 LINE",
"72 435 OFFCURVE",
"83 425 OFFCURVE",
"83 350 CURVE SMOOTH",
"83 110 LINE SMOOTH",
"83 35 OFFCURVE",
"72 25 OFFCURVE",
"38 23 CURVE",
"38 0 LINE",
"412 0 LINE",
"418 147 LINE",
"395 147 LINE"
);
}
);
userData = {
RMXScaler = {
height = 87.6;
width = 80;
};
};
width = 434;
}
);
leftKerningGroup = n;
leftMetricsKey = "=en-cy";
rightKerningGroup = l.sc;
rightMetricsKey = "=l.sc";
unicode = 029F;
userData = {
RMXScaler = {
source = l.sc;
};
};
},
{
glyphname = Nsmall;
layers = (
{
anchors = (
{
name = bottom;
position = "{276, 0}";
},
{
name = top;
position = "{271, 440}";
}
);
layerId = "EA003B4E-FCCC-40A4-9C34-984F621C71B7";
paths = (
{
closed = 1;
nodes = (
"465 -7 LINE",
"463 25 OFFCURVE",
"463 53 OFFCURVE",
"463 84 CURVE SMOOTH",
"463 352 LINE SMOOTH",
"463 393 OFFCURVE",
"476 414 OFFCURVE",
"508 417 CURVE",
"508 440 LINE",
"361 440 LINE",
"361 417 LINE",
"413 414 OFFCURVE",
"425 392 OFFCURVE",
"425 352 CURVE SMOOTH",
"425 135 LINE",
"423 135 LINE",
"180 366 LINE SMOOTH",
"155 390 OFFCURVE",
"140 413 OFFCURVE",
"123 440 CURVE",
"26 440 LINE",
"26 421 LINE",
"72 418 OFFCURVE",
"88 399 OFFCURVE",
"88 356 CURVE SMOOTH",
"88 88 LINE SMOOTH",
"88 56 OFFCURVE",
"81 26 OFFCURVE",
"44 23 CURVE",
"44 0 LINE",
"199 0 LINE",
"199 23 LINE",
"140 26 OFFCURVE",
"126 48 OFFCURVE",
"126 88 CURVE SMOOTH",
"126 305 LINE",
"128 305 LINE",
"369 75 LINE SMOOTH",
"403 42 OFFCURVE",
"418 17 OFFCURVE",
"434 -7 CURVE"
);
}
);
userData = {
RMXScaler = {
height = 83.8;
width = 80;
};
};
width = 534;
},
{
anchors = (
{
name = bottom;
position = "{271, 0}";
},
{
name = top;
position = "{275, 460}";
}
);
layerId = "C8DF7272-19F4-4290-A6F2-EFA6DE6A61D8";
paths = (
{
closed = 1;
nodes = (
"474 -7 LINE",
"472 26 OFFCURVE",
"472 55 OFFCURVE",
"472 88 CURVE SMOOTH",
"472 369 LINE SMOOTH",
"472 407 OFFCURVE",
"485 435 OFFCURVE",
"512 437 CURVE",
"512 460 LINE",
"361 460 LINE",
"361 437 LINE",
"411 435 OFFCURVE",
"428 407 OFFCURVE",
"428 369 CURVE SMOOTH",
"428 209 LINE",
"426 209 LINE",
"171 404 LINE SMOOTH",
"148 421 OFFCURVE",
"130 440 OFFCURVE",
"114 460 CURVE",
"23 460 LINE",
"23 440 LINE",
"63 438 OFFCURVE",
"70 432 OFFCURVE",
"70 372 CURVE SMOOTH",
"70 91 LINE SMOOTH",
"70 53 OFFCURVE",
"58 25 OFFCURVE",
"31 23 CURVE",
"31 0 LINE",
"190 0 LINE",
"190 23 LINE",
"132 25 OFFCURVE",
"115 52 OFFCURVE",
"115 91 CURVE SMOOTH",
"115 251 LINE",
"117 251 LINE",
"369 58 LINE SMOOTH",
"411 26 OFFCURVE",
"418 11 OFFCURVE",
"434 -7 CURVE"
);
}
);
userData = {
RMXScaler = {
height = 87.6;
width = 80;
};
};
width = 535;
}
);
leftKerningGroup = n;
leftMetricsKey = "=en-cy";
rightKerningGroup = n;
rightMetricsKey = "=en-cy";
unicode = 0274;
userData = {
RMXScaler = {
source = n.sc;
};
};
},
{
glyphname = OEsmall;
layers = (
{
anchors = (
{
name = bottom;
position = "{628, 0}";
},
{
name = center;
position = "{178, 220}";
},
{
name = ogonek;
position = "{811, 0}";
},
{
name = top;
position = "{385, 440}";
},
{
name = topleft;
position = "{442, 440}";
},
{
name = topright;
position = "{410, 440}";
}
);
layerId = "EA003B4E-FCCC-40A4-9C34-984F621C71B7";
paths = (
{
closed = 1;
nodes = (
"609 80 OFFCURVE",
"585 36 OFFCURVE",
"522 36 CURVE SMOOTH",
"482 36 LINE SMOOTH",
"429 36 OFFCURVE",
"421 47 OFFCURVE",
"421 89 CURVE SMOOTH",
"421 190 LINE SMOOTH",
"421 221 OFFCURVE",
"435 227 OFFCURVE",
"461 227 CURVE SMOOTH",
"509 227 LINE SMOOTH",
"542 227 OFFCURVE",
"551 217 OFFCURVE",
"552 180 CURVE",
"576 180 LINE",
"576 305 LINE",
"552 305 LINE",
"551 269 OFFCURVE",
"537 263 OFFCURVE",
"509 263 CURVE SMOOTH",
"459 263 LINE SMOOTH",
"445 263 OFFCURVE",
"431 262 OFFCURVE",
"421 255 CURVE",
"421 351 LINE SMOOTH",
"421 403 OFFCURVE",
"440 403 OFFCURVE",
"457 403 CURVE SMOOTH",
"491 403 LINE SMOOTH",
"551 403 OFFCURVE",
"568 388 OFFCURVE",
"571 337 CURVE",
"594 337 LINE",
"594 440 LINE",
"292 440 LINE SMOOTH",
"147 440 OFFCURVE",
"46 346 OFFCURVE",
"46 220 CURVE SMOOTH",
"46 97 OFFCURVE",
"142 0 OFFCURVE",
"276 0 CURVE SMOOTH",
"631 0 LINE",
"637 130 LINE",
"614 130 LINE"
);
},
{
closed = 1;
nodes = (
"339 50 OFFCURVE",
"331 38 OFFCURVE",
"288 36 CURVE",
"190 36 OFFCURVE",
"133 125 OFFCURVE",
"133 234 CURVE SMOOTH",
"133 340 OFFCURVE",
"186 403 OFFCURVE",
"291 403 CURVE SMOOTH",
"332 403 OFFCURVE",
"339 388 OFFCURVE",
"339 339 CURVE SMOOTH",
"339 96 LINE SMOOTH"
);
}
);
userData = {
RMXScaler = {
height = 83.8;
width = 80;
};
};
width = 656;
},
{
anchors = (
{
name = bottom;
position = "{333, 0}";
},
{
name = center;
position = "{-110, 230}";
},
{
name = ogonek;
position = "{519, 0}";
},
{
name = top;
position = "{389, 460}";
},
{
name = topleft;
position = "{157, 460}";
},
{
name = topright;
position = "{125, 460}";
}
);
layerId = "C8DF7272-19F4-4290-A6F2-EFA6DE6A61D8";
paths = (
{
closed = 1;
nodes = (
"617 78 OFFCURVE",
"577 43 OFFCURVE",
"549 43 CURVE SMOOTH",
"514 43 LINE SMOOTH",
"482 43 OFFCURVE",
"473 56 OFFCURVE",
"473 88 CURVE SMOOTH",
"473 189 LINE SMOOTH",
"473 222 OFFCURVE",
"487 227 OFFCURVE",
"513 227 CURVE SMOOTH",
"526 227 LINE SMOOTH",
"541 227 OFFCURVE",
"568 227 OFFCURVE",
"569 182 CURVE",
"593 182 LINE",
"593 316 LINE",
"569 316 LINE",
"568 282 OFFCURVE",
"545 270 OFFCURVE",
"526 270 CURVE SMOOTH",
"511 270 LINE SMOOTH",
"494 270 OFFCURVE",
"482 268 OFFCURVE",
"473 261 CURVE",
"473 369 LINE SMOOTH",
"473 412 OFFCURVE",
"491 417 OFFCURVE",
"509 417 CURVE SMOOTH",
"525 417 LINE SMOOTH",
"557 417 OFFCURVE",
"586 391 OFFCURVE",
"588 344 CURVE",
"611 344 LINE",
"611 460 LINE",
"269 460 LINE SMOOTH",
"147 460 OFFCURVE",
"30 370 OFFCURVE",
"30 229 CURVE SMOOTH",
"30 94 OFFCURVE",
"138 0 OFFCURVE",
"279 0 CURVE SMOOTH",
"639 0 LINE",
"645 136 LINE",
"622 136 LINE"
);
},
{
closed = 1;
nodes = (
"318 62 OFFCURVE",
"307 43 OFFCURVE",
"285 43 CURVE SMOOTH",
"224 43 OFFCURVE",
"196 144 OFFCURVE",
"196 255 CURVE SMOOTH",
"196 362 OFFCURVE",
"222 417 OFFCURVE",
"269 417 CURVE SMOOTH",
"314 417 OFFCURVE",
"318 387 OFFCURVE",
"318 350 CURVE SMOOTH",
"318 107 LINE SMOOTH"
);
}
);
userData = {
RMXScaler = {
height = 87.6;
width = 80;
};
};
width = 661;
}
);
leftKerningGroup = o;
leftMetricsKey = "=o";
rightKerningGroup = n;
rightMetricsKey = "=l.sc";
unicode = 0276;
userData = {
RMXScaler = {
source = oe.sc;
};
};
},
{
glyphname = Rsmall;
layers = (
{
anchors = (
{
name = bottom;
position = "{253, 0}";
},
{
name = top;
position = "{253, 440}";
}
);
layerId = "EA003B4E-FCCC-40A4-9C34-984F621C71B7";
paths = (
{
closed = 1;
nodes = (
"464 -7 OFFCURVE",
"481 -5 OFFCURVE",
"497 0 CURVE",
"497 23 LINE",
"463 23 OFFCURVE",
"444 34 OFFCURVE",
"408 86 CURVE SMOOTH",
"311 225 LINE",
"311 227 LINE",
"383 244 OFFCURVE",
"416 287 OFFCURVE",
"416 340 CURVE SMOOTH",
"416 399 OFFCURVE",
"374 444 OFFCURVE",
"253 444 CURVE SMOOTH",
"220 444 OFFCURVE",
"179 440 OFFCURVE",
"109 440 CURVE SMOOTH",
"26 440 LINE",
"26 417 LINE",
"96 415 OFFCURVE",
"111 409 OFFCURVE",
"111 339 CURVE SMOOTH",
"111 101 LINE SMOOTH",
"111 31 OFFCURVE",
"96 25 OFFCURVE",
"51 23 CURVE",
"51 0 LINE",
"256 0 LINE",
"256 23 LINE",
"206 25 OFFCURVE",
"191 31 OFFCURVE",
"191 101 CURVE SMOOTH",
"191 356 LINE SMOOTH",
"191 401 OFFCURVE",
"204 413 OFFCURVE",
"246 413 CURVE SMOOTH",
"296 413 OFFCURVE",
"330 390 OFFCURVE",
"330 335 CURVE SMOOTH",
"330 279 OFFCURVE",
"295 238 OFFCURVE",
"207 243 CURVE",
"207 217 LINE",
"218 216 OFFCURVE",
"226 211 OFFCURVE",
"236 195 CURVE SMOOTH",
"326 64 LINE SMOOTH",
"352 26 OFFCURVE",
"378 -7 OFFCURVE",
"445 -7 CURVE SMOOTH"
);
}
);
userData = {
RMXScaler = {
height = 83.8;
width = 80;
};
};
width = 494;
},
{
anchors = (
{
name = bottom;
position = "{279, 0}";
},
{
name = top;
position = "{279, 460}";
}
);
layerId = "C8DF7272-19F4-4290-A6F2-EFA6DE6A61D8";
paths = (
{
closed = 1;
nodes = (
"504 -10 OFFCURVE",
"526 -10 OFFCURVE",
"561 0 CURVE",
"561 23 LINE",
"542 23 OFFCURVE",
"521 48 OFFCURVE",
"493 96 CURVE SMOOTH",
"408 241 LINE",
"408 242 LINE",
"429 256 OFFCURVE",
"480 279 OFFCURVE",
"480 347 CURVE SMOOTH",
"480 413 OFFCURVE",
"435 464 OFFCURVE",
"275 464 CURVE SMOOTH",
"239 464 OFFCURVE",
"167 460 OFFCURVE",
"83 460 CURVE SMOOTH",
"23 460 LINE",
"23 437 LINE",
"72 435 OFFCURVE",
"83 425 OFFCURVE",
"83 350 CURVE SMOOTH",
"83 110 LINE SMOOTH",
"83 35 OFFCURVE",
"72 25 OFFCURVE",
"38 23 CURVE",
"38 0 LINE",
"273 0 LINE",
"273 23 LINE",
"244 25 OFFCURVE",
"233 35 OFFCURVE",
"233 110 CURVE SMOOTH",
"233 372 LINE SMOOTH",
"233 411 OFFCURVE",
"240 425 OFFCURVE",
"262 425 CURVE SMOOTH",
"291 425 OFFCURVE",
"314 395 OFFCURVE",
"314 337 CURVE SMOOTH",
"314 289 OFFCURVE",
"302 255 OFFCURVE",
"249 243 CURVE",
"249 211 LINE",
"258 210 OFFCURVE",
"266 205 OFFCURVE",
"275 187 CURVE SMOOTH",
"325 85 LINE SMOOTH",
"351 32 OFFCURVE",
"392 -10 OFFCURVE",
"469 -10 CURVE SMOOTH"
);
}
);
userData = {
RMXScaler = {
height = 87.6;
width = 80;
};
};
width = 554;
}
);
leftKerningGroup = n;
leftMetricsKey = "=en-cy";
rightKerningGroup = x;
unicode = 0280;
userData = {
RMXScaler = {
source = r.sc;
};
};
},
{
glyphname = Rsmallinverted;
layers = (
{
anchors = (
{
name = bottom;
position = "{248, 0}";
},
{
name = top;
position = "{248, 440}";
}
);
layerId = "EA003B4E-FCCC-40A4-9C34-984F621C71B7";
paths = (
{
closed = 1;
nodes = (
"373 447 OFFCURVE",
"347 414 OFFCURVE",
"321 376 CURVE SMOOTH",
"231 245 LINE SMOOTH",
"221 229 OFFCURVE",
"213 224 OFFCURVE",
"202 223 CURVE",
"202 197 LINE",
"290 202 OFFCURVE",
"325 161 OFFCURVE",
"325 105 CURVE SMOOTH",
"325 50 OFFCURVE",
"291 27 OFFCURVE",
"241 27 CURVE SMOOTH",
"199 27 OFFCURVE",
"186 39 OFFCURVE",
"186 84 CURVE SMOOTH",
"186 339 LINE SMOOTH",
"186 409 OFFCURVE",
"201 415 OFFCURVE",
"251 417 CURVE",
"251 440 LINE",
"26 440 LINE",
"26 417 LINE",
"91 415 OFFCURVE",
"106 409 OFFCURVE",
"106 339 CURVE SMOOTH",
"106 101 LINE SMOOTH",
"106 31 OFFCURVE",
"91 25 OFFCURVE",
"46 23 CURVE",
"46 0 LINE",
"104 0 LINE SMOOTH",
"174 0 OFFCURVE",
"215 -4 OFFCURVE",
"248 -4 CURVE SMOOTH",
"369 -4 OFFCURVE",
"411 41 OFFCURVE",
"411 100 CURVE SMOOTH",
"411 153 OFFCURVE",
"378 196 OFFCURVE",
"306 213 CURVE",
"306 215 LINE",
"403 354 LINE SMOOTH",
"439 406 OFFCURVE",
"458 417 OFFCURVE",
"492 417 CURVE",
"492 440 LINE",
"476 445 OFFCURVE",
"459 447 OFFCURVE",
"440 447 CURVE SMOOTH"
);
}
);
width = 489;
},
{
anchors = (
{
name = bottom;
position = "{274, 460}";
},
{
name = top;
position = "{274, 0}";
}
);
layerId = "C8DF7272-19F4-4290-A6F2-EFA6DE6A61D8";
paths = (
{
closed = 1;
nodes = (
"387 470 OFFCURVE",
"346 428 OFFCURVE",
"320 375 CURVE SMOOTH",
"270 273 LINE SMOOTH",
"261 255 OFFCURVE",
"253 250 OFFCURVE",
"244 249 CURVE",
"244 217 LINE",
"297 205 OFFCURVE",
"309 171 OFFCURVE",
"309 123 CURVE SMOOTH",
"309 65 OFFCURVE",
"286 35 OFFCURVE",
"257 35 CURVE SMOOTH",
"235 35 OFFCURVE",
"228 49 OFFCURVE",
"228 88 CURVE SMOOTH",
"228 350 LINE SMOOTH",
"228 425 OFFCURVE",
"239 435 OFFCURVE",
"268 437 CURVE",
"268 460 LINE",
"23 460 LINE",
"23 437 LINE",
"67 435 OFFCURVE",
"72 418 OFFCURVE",
"72 372 CURVE SMOOTH",
"72 88 LINE SMOOTH",
"72 40 OFFCURVE",
"47 25 OFFCURVE",
"28 23 CURVE",
"28 0 LINE",
"72 0 LINE SMOOTH",
"156 0 OFFCURVE",
"234 -4 OFFCURVE",
"270 -4 CURVE SMOOTH",
"430 -4 OFFCURVE",
"475 47 OFFCURVE",
"475 113 CURVE SMOOTH",
"475 181 OFFCURVE",
"424 204 OFFCURVE",
"403 218 CURVE",
"403 219 LINE",
"488 364 LINE SMOOTH",
"516 412 OFFCURVE",
"537 437 OFFCURVE",
"556 437 CURVE",
"556 460 LINE",
"521 470 OFFCURVE",
"499 470 OFFCURVE",
"464 470 CURVE SMOOTH"
);
}
);
width = 549;
}
);
leftKerningGroup = n;
leftMetricsKey = "=en-cy";
rightKerningGroup = x;
unicode = 0281;
},
{
glyphname = Ysmall;
layers = (
{
anchors = (
{
name = bottom;
position = "{206, 0}";
},
{
name = top;
position = "{223, 440}";
},
{
name = topleft;
position = "{19, 440}";
}
);
layerId = "EA003B4E-FCCC-40A4-9C34-984F621C71B7";
paths = (
{
closed = 1;
nodes = (
"264 421 LINE",
"310 418 OFFCURVE",
"325 397 OFFCURVE",
"300 356 CURVE SMOOTH",
"231 244 LINE",
"229 244 LINE",
"169 356 LINE SMOOTH",
"145 400 OFFCURVE",
"142 418 OFFCURVE",
"186 421 CURVE",
"186 440 LINE",
"1 440 LINE",
"1 421 LINE",
"39 418 OFFCURVE",
"49 407 OFFCURVE",
"77 356 CURVE SMOOTH",
"150 224 LINE SMOOTH",
"162 202 OFFCURVE",
"164 192 OFFCURVE",
"164 167 CURVE SMOOTH",
"164 101 LINE SMOOTH",
"164 31 OFFCURVE",
"149 25 OFFCURVE",
"104 23 CURVE",
"104 0 LINE",
"329 0 LINE",
"329 23 LINE",
"259 25 OFFCURVE",
"244 31 OFFCURVE",
"244 101 CURVE SMOOTH",
"244 167 LINE SMOOTH",
"244 196 OFFCURVE",
"248 206 OFFCURVE",
"259 224 CURVE SMOOTH",
"340 356 LINE SMOOTH",
"363 394 OFFCURVE",
"379 418 OFFCURVE",
"412 421 CURVE",
"412 440 LINE",
"264 440 LINE"
);
}
);
userData = {
RMXScaler = {
height = 83.8;
width = 80;
};
};
width = 416;
},
{
anchors = (
{
name = bottom;
position = "{240, 0}";
},
{
name = top;
position = "{283, 460}";
},
{
name = topleft;
position = "{23, 460}";
}
);
layerId = "C8DF7272-19F4-4290-A6F2-EFA6DE6A61D8";
paths = (
{
closed = 1;
nodes = (
"333 437 LINE",
"387 434 OFFCURVE",
"388 403 OFFCURVE",
"372 373 CURVE SMOOTH",
"307 252 LINE",
"305 252 LINE",
"242 373 LINE SMOOTH",
"229 398 OFFCURVE",
"219 434 OFFCURVE",
"258 437 CURVE",
"258 460 LINE",
"5 460 LINE",
"5 437 LINE",
"32 434 OFFCURVE",
"43 426 OFFCURVE",
"72 373 CURVE SMOOTH",
"158 217 LINE SMOOTH",
"170 195 OFFCURVE",
"172 185 OFFCURVE",
"172 157 CURVE SMOOTH",
"172 110 LINE SMOOTH",
"172 35 OFFCURVE",
"161 25 OFFCURVE",
"127 23 CURVE",
"127 0 LINE",
"383 0 LINE",
"383 23 LINE",
"333 25 OFFCURVE",
"322 35 OFFCURVE",
"322 110 CURVE SMOOTH",
"322 157 LINE SMOOTH",
"322 187 OFFCURVE",
"327 197 OFFCURVE",
"338 217 CURVE SMOOTH",
"422 372 LINE SMOOTH",
"438 402 OFFCURVE",
"457 434 OFFCURVE",
"486 437 CURVE",
"486 460 LINE",
"333 460 LINE"
);
}
);
userData = {
RMXScaler = {
height = 87.6;
width = 80;
};
};
width = 503;
}
);
leftKerningGroup = v;
leftMetricsKey = "=y.sc";
rightKerningGroup = v;
rightMetricsKey = "=y.sc";
unicode = 028F;
userData = {
RMXScaler = {
source = y.sc;
};
};
},
{
glyphname = a;
layers = (
{
anchors = (
{
name = bottom;
position = "{253, 0}";
},
{
name = ogonek;
position = "{470, 0}";
},
{
name = top;
position = "{263, 460}";
}
);
layerId = "C8DF7272-19F4-4290-A6F2-EFA6DE6A61D8";
paths = (
{
closed = 1;
nodes = (
"200 -15 OFFCURVE",
"255 13 OFFCURVE",
"286 66 CURVE",
"286 106 LINE",
"271 90 OFFCURVE",
"250 75 OFFCURVE",
"224 75 CURVE SMOOTH",
"194 75 OFFCURVE",
"178 97 OFFCURVE",
"178 125 CURVE SMOOTH",
"178 152 OFFCURVE",
"193 209 OFFCURVE",
"286 236 CURVE",
"286 276 LINE",
"117 231 OFFCURVE",
"38 182 OFFCURVE",
"38 94 CURVE SMOOTH",
"38 37 OFFCURVE",
"72 -15 OFFCURVE",
"146 -15 CURVE SMOOTH"
);
},
{
closed = 1;
nodes = (
"506 80 OFFCURVE",
"489 75 OFFCURVE",
"476 75 CURVE SMOOTH",
"452 75 OFFCURVE",
"446 92 OFFCURVE",
"446 123 CURVE SMOOTH",
"446 341 LINE SMOOTH",
"446 431 OFFCURVE",
"390 475 OFFCURVE",
"273 475 CURVE SMOOTH",
"187 475 OFFCURVE",
"111 451 OFFCURVE",
"66 428 CURVE",
"66 284 LINE",
"89 284 LINE",
"105 365 OFFCURVE",
"148 417 OFFCURVE",
"212 417 CURVE SMOOTH",
"258 417 OFFCURVE",
"286 392 OFFCURVE",
"286 329 CURVE SMOOTH",
"286 66 LINE",
"288 66 LINE",
"302 16 OFFCURVE",
"335 -10 OFFCURVE",
"401 -10 CURVE SMOOTH",
"462 -10 OFFCURVE",
"511 20 OFFCURVE",
"541 81 CURVE",
"525 97 LINE"
);
}
);
width = 534;
},
{
anchors = (
{
name = bottom;
position = "{232, 0}";
},
{
name = ogonek;
position = "{432, 0}";
},
{
name = top;
position = "{241, 440}";
}
);
layerId = "EA003B4E-FCCC-40A4-9C34-984F621C71B7";
paths = (
{
closed = 1;
nodes = (
"211 -15 OFFCURVE",
"258 9 OFFCURVE",
"295 57 CURVE",
"295 88 LINE",
"261 59 OFFCURVE",
"228 44 OFFCURVE",
"195 44 CURVE SMOOTH",
"161 44 OFFCURVE",
"134 61 OFFCURVE",
"134 100 CURVE SMOOTH",
"134 136 OFFCURVE",
"151 186 OFFCURVE",
"295 222 CURVE",
"295 253 LINE",
"113 208 OFFCURVE",
"52 154 OFFCURVE",
"52 80 CURVE SMOOTH",
"52 18 OFFCURVE",
"95 -15 OFFCURVE",
"158 -15 CURVE SMOOTH"
);
},
{
closed = 1;
nodes = (
"444 52 OFFCURVE",
"424 44 OFFCURVE",
"408 44 CURVE SMOOTH",
"385 44 OFFCURVE",
"375 62 OFFCURVE",
"375 97 CURVE SMOOTH",
"375 339 LINE SMOOTH",
"375 408 OFFCURVE",
"346 455 OFFCURVE",
"237 455 CURVE SMOOTH",
"173 455 OFFCURVE",
"121 439 OFFCURVE",
"75 417 CURVE",
"75 292 LINE",
"98 292 LINE",
"113 374 OFFCURVE",
"148 413 OFFCURVE",
"211 413 CURVE SMOOTH",
"276 413 OFFCURVE",
"295 373 OFFCURVE",
"295 318 CURVE SMOOTH",
"295 57 LINE",
"297 57 LINE",
"307 12 OFFCURVE",
"334 -10 OFFCURVE",
"378 -10 CURVE SMOOTH",
"421 -10 OFFCURVE",
"457 16 OFFCURVE",
"488 69 CURVE",
"472 85 LINE"
);
}
);
width = 480;
}
);
leftKerningGroup = o;
rightKerningGroup = n;
unicode = 0061;
},
{
glyphname = "alpha-latin";
layers = (
{
anchors = (
{
name = bottom;
position = "{272, 0}";
},
{
name = center;
position = "{282, 221}";
},
{
name = ogonek;
position = "{435, 0}";
},
{
name = top;
position = "{242, 750}";
},
{
name = topright;
position = "{536, 590}";
}
);
layerId = "EA003B4E-FCCC-40A4-9C34-984F621C71B7";
paths = (
{
closed = 1;
nodes = (
"521 71 OFFCURVE",
"507 68 OFFCURVE",
"493 68 CURVE SMOOTH",
"474 68 OFFCURVE",
"462 75 OFFCURVE",
"462 112 CURVE SMOOTH",
"462 450 LINE",
"408 437 LINE",
"381 448 OFFCURVE",
"347 455 OFFCURVE",
"303 455 CURVE SMOOTH",
"181 455 OFFCURVE",
"46 365 OFFCURVE",
"46 195 CURVE SMOOTH",
"46 60 OFFCURVE",
"129 -15 OFFCURVE",
"223 -15 CURVE SMOOTH",
"296 -15 OFFCURVE",
"348 28 OFFCURVE",
"383 77 CURVE",
"384 77 LINE",
"384 37 OFFCURVE",
"380 -3 OFFCURVE",
"377 -15 CURVE",
"383 -21 LINE",
"546 54 LINE",
"536 77 LINE"
);
},
{
closed = 1;
nodes = (
"179 45 OFFCURVE",
"128 114 OFFCURVE",
"128 229 CURVE SMOOTH",
"128 354 OFFCURVE",
"191 410 OFFCURVE",
"277 410 CURVE SMOOTH",
"306 410 OFFCURVE",
"350 403 OFFCURVE",
"382 369 CURVE",
"382 107 LINE",
"345 72 OFFCURVE",
"300 45 OFFCURVE",
"254 45 CURVE SMOOTH"
);
}
);
width = 564;
},
{
anchors = (
{
name = bottom;
position = "{298, 0}";
},
{
name = center;
position = "{298, 230}";
},
{
name = ogonek;
position = "{390, 0}";
},
{
name = top;
position = "{253, 750}";
},
{
name = topright;
position = "{593, 590}";
}
);
layerId = "C8DF7272-19F4-4290-A6F2-EFA6DE6A61D8";
paths = (
{
closed = 1;
nodes = (
"558 96 OFFCURVE",
"551 95 OFFCURVE",
"542 95 CURVE SMOOTH",
"528 95 OFFCURVE",
"520 100 OFFCURVE",
"520 120 CURVE SMOOTH",
"520 470 LINE",
"440 451 LINE",
"408 464 OFFCURVE",
"372 475 OFFCURVE",
"303 475 CURVE SMOOTH",
"180 475 OFFCURVE",
"30 405 OFFCURVE",
"30 214 CURVE SMOOTH",
"30 71 OFFCURVE",
"115 -15 OFFCURVE",
"211 -15 CURVE SMOOTH",
"288 -15 OFFCURVE",
"346 27 OFFCURVE",
"371 82 CURVE",
"373 82 LINE",
"373 42 OFFCURVE",
"370 -3 OFFCURVE",
"367 -15 CURVE",
"373 -21 LINE",
"580 76 LINE",
"570 99 LINE"
);
},
{
closed = 1;
nodes = (
"236 85 OFFCURVE",
"190 141 OFFCURVE",
"190 257 CURVE SMOOTH",
"190 360 OFFCURVE",
"235 427 OFFCURVE",
"294 427 CURVE SMOOTH",
"325 427 OFFCURVE",
"352 411 OFFCURVE",
"370 383 CURVE",
"370 117 LINE",
"348 95 OFFCURVE",
"319 85 OFFCURVE",
"294 85 CURVE SMOOTH"
);
}
);
width = 603;
}
);
leftKerningGroup = o;
leftMetricsKey = "=o";
rightKerningGroup = n;
rightMetricsKey = "=d";
unicode = 0251;
},
{
glyphname = "alphaturned-latin";
layers = (
{
anchors = (
{
name = bottom;
position = "{322, -310}";
},
{
name = bottomleft;
position = "{28, -150}";
},
{
name = center;
position = "{282, 219}";
},
{
name = ogonek;
position = "{129, 440}";
},
{
name = top;
position = "{292, 440}";
}
);
layerId = "EA003B4E-FCCC-40A4-9C34-984F621C71B7";
paths = (
{
closed = 1;
nodes = (
"43 369 OFFCURVE",
"57 372 OFFCURVE",
"71 372 CURVE SMOOTH",
"90 372 OFFCURVE",
"102 365 OFFCURVE",
"102 328 CURVE SMOOTH",
"102 -10 LINE",
"156 3 LINE",
"183 -8 OFFCURVE",
"217 -15 OFFCURVE",
"261 -15 CURVE SMOOTH",
"383 -15 OFFCURVE",
"518 75 OFFCURVE",
"518 245 CURVE SMOOTH",
"518 380 OFFCURVE",
"435 455 OFFCURVE",
"341 455 CURVE SMOOTH",
"268 455 OFFCURVE",
"216 412 OFFCURVE",
"181 363 CURVE",
"180 363 LINE",
"180 403 OFFCURVE",
"184 443 OFFCURVE",
"187 455 CURVE",
"181 461 LINE",
"18 386 LINE",
"28 363 LINE"
);
},
{
closed = 1;
nodes = (
"385 395 OFFCURVE",
"436 326 OFFCURVE",
"436 211 CURVE SMOOTH",
"436 86 OFFCURVE",
"373 30 OFFCURVE",
"287 30 CURVE SMOOTH",
"258 30 OFFCURVE",
"214 37 OFFCURVE",
"182 71 CURVE",
"182 333 LINE",
"219 368 OFFCURVE",
"264 395 OFFCURVE",
"310 395 CURVE SMOOTH"
);
}
);
width = 564;
},
{
anchors = (
{
name = bottom;
position = "{350, -290}";
},
{
name = bottomleft;
position = "{10, -130}";
},
{
name = center;
position = "{305, 230}";
},
{
name = ogonek;
position = "{213, 460}";
},
{
name = top;
position = "{305, 460}";
}
);
layerId = "C8DF7272-19F4-4290-A6F2-EFA6DE6A61D8";
paths = (
{
closed = 1;
nodes = (
"45 364 OFFCURVE",
"52 365 OFFCURVE",
"61 365 CURVE SMOOTH",
"75 365 OFFCURVE",
"83 360 OFFCURVE",
"83 340 CURVE SMOOTH",
"83 -10 LINE",
"163 9 LINE",
"195 -4 OFFCURVE",
"231 -15 OFFCURVE",
"300 -15 CURVE SMOOTH",
"423 -15 OFFCURVE",
"573 55 OFFCURVE",
"573 246 CURVE SMOOTH",
"573 389 OFFCURVE",
"488 475 OFFCURVE",
"392 475 CURVE SMOOTH",
"315 475 OFFCURVE",
"257 433 OFFCURVE",
"232 378 CURVE",
"230 378 LINE",
"230 418 OFFCURVE",
"233 463 OFFCURVE",
"236 475 CURVE",
"230 481 LINE",
"23 384 LINE",
"33 361 LINE"
);
},
{
closed = 1;
nodes = (
"367 375 OFFCURVE",
"413 319 OFFCURVE",
"413 203 CURVE SMOOTH",
"413 100 OFFCURVE",
"368 33 OFFCURVE",
"309 33 CURVE SMOOTH",
"278 33 OFFCURVE",
"251 49 OFFCURVE",
"233 77 CURVE",
"233 343 LINE",
"255 365 OFFCURVE",
"284 375 OFFCURVE",
"309 375 CURVE SMOOTH"
);
}
);
width = 603;
}
);
leftKerningGroup = o;
rightKerningGroup = n;
unicode = 0252;
},
{
glyphname = aogonek;
layers = (
{
anchors = (
{
name = bottom;
position = "{273, 0}";
},
{
name = ogonek;
position = "{470, 0}";
},
{
name = top;
position = "{263, 460}";
}
);
layerId = "C8DF7272-19F4-4290-A6F2-EFA6DE6A61D8";
paths = (
{
closed = 1;
nodes = (
"423 -235 OFFCURVE",
"459 -219 OFFCURVE",
"481 -190 CURVE",
"470 -174 LINE",
"431 -181 OFFCURVE",
"400 -167 OFFCURVE",
"400 -125 CURVE SMOOTH",
"400 -38 OFFCURVE",
"498 -12 OFFCURVE",
"541 76 CURVE",
"525 92 LINE",
"506 75 OFFCURVE",
"489 70 OFFCURVE",
"476 70 CURVE SMOOTH",
"452 70 OFFCURVE",
"446 87 OFFCURVE",
"446 118 CURVE SMOOTH",
"446 341 LINE SMOOTH",
"446 431 OFFCURVE",
"390 475 OFFCURVE",
"273 475 CURVE SMOOTH",
"187 475 OFFCURVE",
"111 451 OFFCURVE",
"66 428 CURVE",
"66 285 LINE",
"89 285 LINE",
"105 366 OFFCURVE",
"148 417 OFFCURVE",
"212 417 CURVE SMOOTH",
"258 417 OFFCURVE",
"286 392 OFFCURVE",
"286 329 CURVE SMOOTH",
"286 276 LINE",
"117 231 OFFCURVE",
"38 182 OFFCURVE",
"38 94 CURVE SMOOTH",
"38 37 OFFCURVE",
"72 -15 OFFCURVE",
"146 -15 CURVE SMOOTH",
"200 -15 OFFCURVE",
"255 13 OFFCURVE",
"286 66 CURVE",
"288 66 LINE",
"301 13 OFFCURVE",
"337 -10 OFFCURVE",
"413 -15 CURVE",
"413 -17 LINE",
"338 -46 OFFCURVE",
"293 -100 OFFCURVE",
"293 -148 CURVE SMOOTH",
"293 -211 OFFCURVE",
"343 -235 OFFCURVE",
"389 -235 CURVE SMOOTH"
);
},
{
closed = 1;
nodes = (
"194 75 OFFCURVE",
"178 97 OFFCURVE",
"178 125 CURVE SMOOTH",
"178 152 OFFCURVE",
"193 209 OFFCURVE",
"286 236 CURVE",
"286 106 LINE",
"271 90 OFFCURVE",
"250 75 OFFCURVE",
"224 75 CURVE SMOOTH"
);
}
);
width = 534;
},
{
anchors = (
{
name = bottom;
position = "{243, 0}";
},
{
name = ogonek;
position = "{442, 0}";
},
{
name = top;
position = "{242, 442}";
}
);
layerId = "EA003B4E-FCCC-40A4-9C34-984F621C71B7";
paths = (
{
closed = 1;
nodes = (
"387 -235 OFFCURVE",
"422 -226 OFFCURVE",
"444 -201 CURVE",
"433 -185 LINE",
"388 -196 OFFCURVE",
"345 -182 OFFCURVE",
"345 -136 CURVE SMOOTH",
"345 -54 OFFCURVE",
"447 -16 OFFCURVE",
"489 64 CURVE",
"473 80 LINE",
"445 47 OFFCURVE",
"425 39 OFFCURVE",
"409 39 CURVE SMOOTH",
"386 39 OFFCURVE",
"376 57 OFFCURVE",
"376 92 CURVE SMOOTH",
"376 339 LINE SMOOTH",
"376 408 OFFCURVE",
"347 455 OFFCURVE",
"238 455 CURVE SMOOTH",
"174 455 OFFCURVE",
"122 434 OFFCURVE",
"76 417 CURVE",
"76 291 LINE",
"99 291 LINE",
"114 373 OFFCURVE",
"149 412 OFFCURVE",
"212 412 CURVE SMOOTH",
"277 412 OFFCURVE",
"296 368 OFFCURVE",
"296 318 CURVE SMOOTH",
"296 253 LINE",
"114 208 OFFCURVE",
"52 154 OFFCURVE",
"52 80 CURVE SMOOTH",
"52 18 OFFCURVE",
"96 -15 OFFCURVE",
"159 -15 CURVE SMOOTH",
"212 -15 OFFCURVE",
"259 9 OFFCURVE",
"296 57 CURVE",
"298 57 LINE",
"306 15 OFFCURVE",
"335 -11 OFFCURVE",
"375 -15 CURVE",
"375 -17 LINE",
"307 -64 OFFCURVE",
"275 -109 OFFCURVE",
"275 -154 CURVE SMOOTH",
"275 -204 OFFCURVE",
"313 -235 OFFCURVE",
"361 -235 CURVE SMOOTH"
);
},
{
closed = 1;
nodes = (
"162 44 OFFCURVE",
"135 61 OFFCURVE",
"135 100 CURVE SMOOTH",
"135 136 OFFCURVE",
"152 186 OFFCURVE",
"296 222 CURVE",
"296 88 LINE",
"262 59 OFFCURVE",
"229 44 OFFCURVE",
"196 44 CURVE SMOOTH"
);
}
);
width = 481;
}
);
leftKerningGroup = o;
leftMetricsKey = "=a";
rightKerningGroup = n;
rightMetricsKey = "=a";
unicode = 0105;
},
{
glyphname = aturned;
layers = (
{
anchors = (
{
name = bottom;
position = "{239, 0}";
},
{
name = ogonek;
position = "{48, 440}";
},
{
name = top;
position = "{248, 440}";
}
);
layerId = "EA003B4E-FCCC-40A4-9C34-984F621C71B7";
paths = (
{
closed = 1;
nodes = (
"269 455 OFFCURVE",
"222 431 OFFCURVE",
"185 383 CURVE",
"185 352 LINE",
"219 381 OFFCURVE",
"252 396 OFFCURVE",
"285 396 CURVE SMOOTH",
"319 396 OFFCURVE",
"346 379 OFFCURVE",
"346 340 CURVE SMOOTH",
"346 304 OFFCURVE",
"329 254 OFFCURVE",
"185 218 CURVE",
"185 187 LINE",
"367 232 OFFCURVE",
"428 286 OFFCURVE",
"428 360 CURVE SMOOTH",
"428 422 OFFCURVE",
"385 455 OFFCURVE",
"322 455 CURVE SMOOTH"
);
},
{
closed = 1;
nodes = (
"36 388 OFFCURVE",
"56 396 OFFCURVE",
"72 396 CURVE SMOOTH",
"95 396 OFFCURVE",
"105 378 OFFCURVE",
"105 343 CURVE SMOOTH",
"105 101 LINE SMOOTH",
"105 32 OFFCURVE",
"134 -15 OFFCURVE",
"243 -15 CURVE SMOOTH",
"307 -15 OFFCURVE",
"359 1 OFFCURVE",
"405 23 CURVE",
"405 148 LINE",
"382 148 LINE",
"367 66 OFFCURVE",
"332 27 OFFCURVE",
"269 27 CURVE SMOOTH",
"204 27 OFFCURVE",
"185 67 OFFCURVE",
"185 122 CURVE SMOOTH",
"185 383 LINE",
"183 383 LINE",
"173 428 OFFCURVE",
"146 450 OFFCURVE",
"102 450 CURVE SMOOTH",
"59 450 OFFCURVE",
"23 424 OFFCURVE",
"-8 371 CURVE",
"8 355 LINE"
);
}
);
width = 480;
},
{
anchors = (
{
name = bottom;
position = "{271, 0}";
},
{
name = ogonek;
position = "{64, 460}";
},
{
name = top;
position = "{281, 460}";
}
);
layerId = "C8DF7272-19F4-4290-A6F2-EFA6DE6A61D8";
paths = (
{
closed = 1;
nodes = (
"334 475 OFFCURVE",
"279 447 OFFCURVE",
"248 394 CURVE",
"248 354 LINE",
"263 370 OFFCURVE",
"284 385 OFFCURVE",
"310 385 CURVE SMOOTH",
"340 385 OFFCURVE",
"356 363 OFFCURVE",
"356 335 CURVE SMOOTH",
"356 308 OFFCURVE",
"341 251 OFFCURVE",
"248 224 CURVE",
"248 184 LINE",
"417 229 OFFCURVE",
"496 278 OFFCURVE",
"496 366 CURVE SMOOTH",
"496 423 OFFCURVE",
"462 475 OFFCURVE",
"388 475 CURVE SMOOTH"
);
},
{
closed = 1;
nodes = (
"28 380 OFFCURVE",
"45 385 OFFCURVE",
"58 385 CURVE SMOOTH",
"82 385 OFFCURVE",
"88 368 OFFCURVE",
"88 337 CURVE SMOOTH",
"88 119 LINE SMOOTH",
"88 29 OFFCURVE",
"144 -15 OFFCURVE",
"261 -15 CURVE SMOOTH",
"347 -15 OFFCURVE",
"423 9 OFFCURVE",
"468 32 CURVE",
"468 176 LINE",
"445 176 LINE",
"429 95 OFFCURVE",
"386 43 OFFCURVE",
"322 43 CURVE SMOOTH",
"276 43 OFFCURVE",
"248 68 OFFCURVE",
"248 131 CURVE SMOOTH",
"248 394 LINE",
"246 394 LINE",
"232 444 OFFCURVE",
"199 470 OFFCURVE",
"133 470 CURVE SMOOTH",
"72 470 OFFCURVE",
"23 440 OFFCURVE",
"-7 379 CURVE",
"9 363 LINE"
);
}
);
width = 534;
}
);
leftKerningGroup = n;
rightKerningGroup = o;
unicode = 0250;
},
{
glyphname = ae;
layers = (
{
anchors = (
{
name = bottom;
position = "{369, 0}";
},
{
name = top;
position = "{379, 460}";
}
);
layerId = "C8DF7272-19F4-4290-A6F2-EFA6DE6A61D8";
paths = (
{
closed = 1;
nodes = (
"667 111 OFFCURVE",
"612 100 OFFCURVE",
"574 100 CURVE SMOOTH",
"499 100 OFFCURVE",
"438 143 OFFCURVE",
"428 249 CURVE",
"717 296 LINE",
"717 403 OFFCURVE",
"653 475 OFFCURVE",
"530 475 CURVE SMOOTH",
"479 475 OFFCURVE",
"431 462 OFFCURVE",
"392 438 CURVE",
"367 463 OFFCURVE",
"326 475 OFFCURVE",
"266 475 CURVE SMOOTH",
"180 475 OFFCURVE",
"108 449 OFFCURVE",
"66 428 CURVE",
"66 290 LINE",
"89 290 LINE",
"105 371 OFFCURVE",
"148 422 OFFCURVE",
"212 422 CURVE SMOOTH",
"258 422 OFFCURVE",
"286 397 OFFCURVE",
"286 329 CURVE SMOOTH",
"286 266 LINE",
"133 236 OFFCURVE",
"38 177 OFFCURVE",
"38 90 CURVE SMOOTH",
"38 38 OFFCURVE",
"72 -15 OFFCURVE",
"158 -15 CURVE SMOOTH",
"207 -15 OFFCURVE",
"275 2 OFFCURVE",
"320 88 CURVE",
"358 22 OFFCURVE",
"427 -15 OFFCURVE",
"515 -15 CURVE SMOOTH",
"625 -15 OFFCURVE",
"686 43 OFFCURVE",
"723 133 CURVE",
"707 149 LINE"
);
},
{
closed = 1;
nodes = (
"552 432 OFFCURVE",
"569 377 OFFCURVE",
"571 313 CURVE",
"426 289 LINE",
"427 377 OFFCURVE",
"458 432 OFFCURVE",
"505 432 CURVE SMOOTH"
);
},
{
closed = 1;
nodes = (
"194 75 OFFCURVE",
"178 97 OFFCURVE",
"178 125 CURVE SMOOTH",
"178 166 OFFCURVE",
"214 204 OFFCURVE",
"286 224 CURVE",
"286 186 OFFCURVE",
"292 151 OFFCURVE",
"304 121 CURVE",
"279 88 OFFCURVE",
"249 75 OFFCURVE",
"225 75 CURVE SMOOTH"
);
}
);
width = 745;
},
{
anchors = (
{
name = bottom;
position = "{352, 0}";
},
{
name = top;
position = "{371, 442}";
}
);
layerId = "EA003B4E-FCCC-40A4-9C34-984F621C71B7";
paths = (
{
closed = 1;
nodes = (
"624 76 OFFCURVE",
"578 51 OFFCURVE",
"525 51 CURVE SMOOTH",
"436 51 OFFCURVE",
"376 122 OFFCURVE",
"372 238 CURVE",
"671 297 LINE",
"671 404 OFFCURVE",
"596 455 OFFCURVE",
"510 455 CURVE SMOOTH",
"452 455 OFFCURVE",
"400 431 OFFCURVE",
"361 390 CURVE",
"347 430 OFFCURVE",
"310 455 OFFCURVE",
"238 455 CURVE SMOOTH",
"174 455 OFFCURVE",
"122 439 OFFCURVE",
"76 417 CURVE",
"76 297 LINE",
"99 297 LINE",
"114 379 OFFCURVE",
"149 418 OFFCURVE",
"212 418 CURVE SMOOTH",
"277 418 OFFCURVE",
"296 374 OFFCURVE",
"296 318 CURVE SMOOTH",
"296 255 LINE",
"104 213 OFFCURVE",
"52 151 OFFCURVE",
"52 79 CURVE SMOOTH",
"52 19 OFFCURVE",
"96 -15 OFFCURVE",
"160 -15 CURVE SMOOTH",
"207 -15 OFFCURVE",
"270 1 OFFCURVE",
"327 79 CURVE",
"363 16 OFFCURVE",
"427 -15 OFFCURVE",
"494 -15 CURVE SMOOTH",
"575 -15 OFFCURVE",
"638 29 OFFCURVE",
"676 93 CURVE",
"660 109 LINE"
);
},
{
closed = 1;
nodes = (
"553 418 OFFCURVE",
"575 371 OFFCURVE",
"582 311 CURVE",
"373 271 LINE",
"378 351 OFFCURVE",
"413 418 OFFCURVE",
"490 418 CURVE SMOOTH"
);
},
{
closed = 1;
nodes = (
"162 44 OFFCURVE",
"135 61 OFFCURVE",
"135 100 CURVE SMOOTH",
"135 136 OFFCURVE",
"148 189 OFFCURVE",
"296 223 CURVE",
"296 178 OFFCURVE",
"300 143 OFFCURVE",
"312 109 CURVE",
"274 62 OFFCURVE",
"227 44 OFFCURVE",
"196 44 CURVE SMOOTH"
);
}
);
width = 707;
}
);
leftKerningGroup = o;
leftMetricsKey = "=a";
rightKerningGroup = o;
rightMetricsKey = "=e";
unicode = 00E6;
},
{
glyphname = b;
layers = (
{
anchors = (
{
name = bottom;
position = "{333, 0}";
},
{
name = ogonek;
position = "{318, 0}";
},
{
name = top;
position = "{341, 750}";
}
);
layerId = "C8DF7272-19F4-4290-A6F2-EFA6DE6A61D8";
paths = (
{
closed = 1;
nodes = (
"308 475 OFFCURVE",
"251 434 OFFCURVE",
"225 380 CURVE",
"225 658 LINE SMOOTH",
"225 722 OFFCURVE",
"227 764 OFFCURVE",
"229 784 CURVE",
"223 790 LINE",
"5 689 LINE",
"15 666 LINE",
"30 671 OFFCURVE",
"42 674 OFFCURVE",
"53 674 CURVE SMOOTH",
"67 674 OFFCURVE",
"75 669 OFFCURVE",
"75 649 CURVE SMOOTH",
"75 -10 LINE",
"155 9 LINE",
"187 -4 OFFCURVE",
"223 -15 OFFCURVE",
"292 -15 CURVE SMOOTH",
"415 -15 OFFCURVE",
"565 55 OFFCURVE",
"565 246 CURVE SMOOTH",
"565 389 OFFCURVE",
"480 475 OFFCURVE",
"384 475 CURVE SMOOTH"
);
},
{
closed = 1;
nodes = (
"270 33 OFFCURVE",
"243 49 OFFCURVE",
"225 77 CURVE",
"225 343 LINE",
"247 365 OFFCURVE",
"276 375 OFFCURVE",
"301 375 CURVE SMOOTH",
"359 375 OFFCURVE",
"405 319 OFFCURVE",
"405 203 CURVE SMOOTH",
"405 100 OFFCURVE",
"360 33 OFFCURVE",
"301 33 CURVE SMOOTH"
);
}
);
width = 595;
},
{
anchors = (
{
name = bottom;
position = "{308, 0}";
},
{
name = ogonek;
position = "{282, 0}";
},
{
name = top;
position = "{320, 750}";
}
);
layerId = "EA003B4E-FCCC-40A4-9C34-984F621C71B7";
paths = (
{
closed = 1;
nodes = (
"265 457 OFFCURVE",
"213 415 OFFCURVE",
"178 366 CURVE",
"178 658 LINE SMOOTH",
"178 722 OFFCURVE",
"180 773 OFFCURVE",
"182 784 CURVE",
"176 790 LINE",
"3 710 LINE",
"13 687 LINE",
"29 695 OFFCURVE",
"49 701 OFFCURVE",
"67 701 CURVE SMOOTH",
"86 701 OFFCURVE",
"98 694 OFFCURVE",
"98 657 CURVE SMOOTH",
"98 -10 LINE",
"152 5 LINE",
"179 -6 OFFCURVE",
"213 -13 OFFCURVE",
"257 -13 CURVE SMOOTH",
"379 -13 OFFCURVE",
"514 77 OFFCURVE",
"514 247 CURVE SMOOTH",
"514 382 OFFCURVE",
"431 457 OFFCURVE",
"337 457 CURVE SMOOTH"
);
},
{
closed = 1;
nodes = (
"254 32 OFFCURVE",
"210 39 OFFCURVE",
"178 73 CURVE",
"178 335 LINE",
"215 370 OFFCURVE",
"260 397 OFFCURVE",
"306 397 CURVE SMOOTH",
"381 397 OFFCURVE",
"432 328 OFFCURVE",
"432 213 CURVE SMOOTH",
"432 88 OFFCURVE",
"369 32 OFFCURVE",
"283 32 CURVE SMOOTH"
);
}
);
width = 560;
}
);
leftKerningGroup = l;
rightKerningGroup = o;
rightMetricsKey = "=o";
unicode = 0062;
},
{
glyphname = bhook;
layers = (
{
anchors = (
{
name = bottom;
position = "{308, 0}";
},
{
name = ogonek;
position = "{282, 0}";
},
{
name = top;
position = "{320, 750}";
}
);
layerId = "EA003B4E-FCCC-40A4-9C34-984F621C71B7";
paths = (
{
closed = 1;
nodes = (
"265 457 OFFCURVE",
"213 415 OFFCURVE",
"178 366 CURVE",
"178 508 LINE SMOOTH",
"178 580 OFFCURVE",
"177 744 OFFCURVE",
"248 744 CURVE SMOOTH",
"281 744 OFFCURVE",
"301 709 OFFCURVE",
"306 652 CURVE",
"329 652 LINE",
"337 697 OFFCURVE",
"337 745 OFFCURVE",
"329 790 CURVE",
"167 807 OFFCURVE",
"98 708 OFFCURVE",
"98 521 CURVE SMOOTH",
"98 -10 LINE",
"152 5 LINE",
"179 -6 OFFCURVE",
"213 -13 OFFCURVE",
"257 -13 CURVE SMOOTH",
"379 -13 OFFCURVE",
"514 77 OFFCURVE",
"514 247 CURVE SMOOTH",
"514 382 OFFCURVE",
"431 457 OFFCURVE",
"337 457 CURVE SMOOTH"
);
},
{
closed = 1;
nodes = (
"254 32 OFFCURVE",
"210 39 OFFCURVE",
"178 73 CURVE",
"178 335 LINE",
"215 370 OFFCURVE",
"260 397 OFFCURVE",
"306 397 CURVE SMOOTH",
"381 397 OFFCURVE",
"432 328 OFFCURVE",
"432 213 CURVE SMOOTH",
"432 88 OFFCURVE",
"369 32 OFFCURVE",
"283 32 CURVE SMOOTH"
);
}
);
width = 560;
},
{
anchors = (
{
name = bottom;
position = "{333, 0}";
},
{
name = ogonek;
position = "{318, 0}";
},
{
name = top;
position = "{341, 750}";
}
);
layerId = "C8DF7272-19F4-4290-A6F2-EFA6DE6A61D8";
paths = (
{
closed = 1;
nodes = (
"308 475 OFFCURVE",
"251 434 OFFCURVE",
"225 380 CURVE",
"225 543 LINE SMOOTH",
"225 682 OFFCURVE",
"246 733 OFFCURVE",
"285 733 CURVE SMOOTH",
"312 733 OFFCURVE",
"336 708 OFFCURVE",
"349 626 CURVE",
"372 626 LINE",
"380 671 OFFCURVE",
"380 745 OFFCURVE",
"372 790 CURVE",
"198 807 OFFCURVE",
"75 704 OFFCURVE",
"75 508 CURVE SMOOTH",
"75 -10 LINE",
"155 9 LINE",
"187 -4 OFFCURVE",
"223 -15 OFFCURVE",
"292 -15 CURVE SMOOTH",
"415 -15 OFFCURVE",
"565 55 OFFCURVE",
"565 246 CURVE SMOOTH",
"565 389 OFFCURVE",
"480 475 OFFCURVE",
"384 475 CURVE SMOOTH"
);
},
{
closed = 1;
nodes = (
"270 33 OFFCURVE",
"243 49 OFFCURVE",
"225 77 CURVE",
"225 343 LINE",
"247 365 OFFCURVE",
"276 375 OFFCURVE",
"301 375 CURVE SMOOTH",
"359 375 OFFCURVE",
"405 319 OFFCURVE",
"405 203 CURVE SMOOTH",
"405 100 OFFCURVE",
"360 33 OFFCURVE",
"301 33 CURVE SMOOTH"
);
}
);
width = 595;
}
);
leftKerningGroup = l;
rightKerningGroup = o;
rightMetricsKey = "=b";
unicode = 0253;
},
{
glyphname = bidentalpercussive;
layers = (
{
layerId = "EA003B4E-FCCC-40A4-9C34-984F621C71B7";
paths = (
{
closed = 1;
nodes = (
"26 264 LINE",
"49 264 LINE",
"53 314 OFFCURVE",
"69 364 OFFCURVE",
"159 364 CURVE SMOOTH",
"189 364 LINE",
"230 364 LINE",
"258 364 LINE SMOOTH",
"349 364 OFFCURVE",
"366 314 OFFCURVE",
"369 264 CURVE",
"392 264 LINE",
"392 440 LINE",
"26 440 LINE"
);
},
{
closed = 1;
nodes = (
"26 0 LINE",
"49 0 LINE",
"53 50 OFFCURVE",
"69 100 OFFCURVE",
"159 100 CURVE SMOOTH",
"189 100 LINE",
"230 100 LINE",
"258 100 LINE SMOOTH",
"349 100 OFFCURVE",
"366 50 OFFCURVE",
"369 0 CURVE",
"392 0 LINE",
"392 176 LINE",
"26 176 LINE"
);
}
);
width = 418;
},
{
layerId = "C8DF7272-19F4-4290-A6F2-EFA6DE6A61D8";
paths = (
{
closed = 1;
nodes = (
"23 265 LINE",
"46 265 LINE",
"54 337 OFFCURVE",
"84 367 OFFCURVE",
"155 367 CURVE SMOOTH",
"197 367 LINE",
"252 367 LINE",
"293 367 LINE SMOOTH",
"368 367 OFFCURVE",
"397 337 OFFCURVE",
"405 265 CURVE",
"428 265 LINE",
"428 460 LINE",
"23 460 LINE"
);
},
{
closed = 1;
nodes = (
"23 0 LINE",
"46 0 LINE",
"54 72 OFFCURVE",
"84 102 OFFCURVE",
"155 102 CURVE SMOOTH",
"197 102 LINE",
"252 102 LINE",
"293 102 LINE SMOOTH",
"368 102 OFFCURVE",
"397 72 OFFCURVE",
"405 0 CURVE",
"428 0 LINE",
"428 195 LINE",
"23 195 LINE"
);
}
);
width = 451;
}
);
leftKerningGroup = n;
leftMetricsKey = "=n";
rightKerningGroup = n;
rightMetricsKey = "=|n";
unicode = 02AD;
},
{
glyphname = bilabialpercussive;
layers = (
{
layerId = "EA003B4E-FCCC-40A4-9C34-984F621C71B7";
paths = (
{
closed = 1;
nodes = (
"343.06 363.05 LINE",
"349.11 386.04 OFFCURVE",
"351.53 395.72 OFFCURVE",
"361.21 419.92 CURVE SMOOTH",
"430.18 599 LINE SMOOTH",
"442.28 632.88 OFFCURVE",
"454.38 647.4 OFFCURVE",
"476.16 649.82 CURVE",
"476.16 665.55 LINE",
"363.63 665.55 LINE",
"363.63 649.82 LINE",
"404.77 647.4 OFFCURVE",
"410.82 634.09 OFFCURVE",
"397.51 599 CURVE SMOOTH",
"347.9 464.69 LINE",
"346.69 464.69 LINE",
"294.66 599 LINE SMOOTH",
"281.35 634.09 OFFCURVE",
"281.35 647.4 OFFCURVE",
"317.65 649.82 CURVE",
"317.65 665.55 LINE",
"178.5 665.55 LINE",
"178.5 649.82 LINE",
"193.02 647.4 OFFCURVE",
"201.49 643.77 OFFCURVE",
"219.64 599 CURVE SMOOTH",
"289.82 421.13 LINE SMOOTH",
"298.29 398.14 OFFCURVE",
"304.34 386.04 OFFCURVE",
"311.6 363.05 CURVE"
);
},
{
closed = 1;
nodes = (
"163.98 363.05 LINE",
"168.82 386.04 OFFCURVE",
"172.45 395.72 OFFCURVE",
"183.34 419.92 CURVE SMOOTH",
"254.73 592.95 LINE",
"223.27 592.95 LINE",
"170.03 464.69 LINE",
"168.82 464.69 LINE",
"114.37 599 LINE SMOOTH",
"101.06 634.09 OFFCURVE",
"99.85 647.4 OFFCURVE",
"132.52 649.82 CURVE",
"132.52 665.55 LINE",
"-10.26 665.55 LINE",
"-10.26 649.82 LINE",
"11.52 647.4 OFFCURVE",
"18.78 643.77 OFFCURVE",
"36.93 599 CURVE SMOOTH",
"110.74 419.92 LINE SMOOTH",
"120.42 398.14 OFFCURVE",
"125.26 386.04 OFFCURVE",
"132.52 363.05 CURVE"
);
},
{
closed = 1;
nodes = (
"343.06 1.05 LINE",
"349.11 24.04 OFFCURVE",
"351.53 33.72 OFFCURVE",
"361.21 57.92 CURVE SMOOTH",
"430.18 237 LINE SMOOTH",
"442.28 270.88 OFFCURVE",
"454.38 285.4 OFFCURVE",
"476.16 287.82 CURVE",
"476.16 303.55 LINE",
"363.63 303.55 LINE",
"363.63 287.82 LINE",
"404.77 285.4 OFFCURVE",
"410.82 272.09 OFFCURVE",
"397.51 237 CURVE SMOOTH",
"347.9 102.69 LINE",
"346.69 102.69 LINE",
"294.66 237 LINE SMOOTH",
"281.35 272.09 OFFCURVE",
"281.35 285.4 OFFCURVE",
"317.65 287.82 CURVE",
"317.65 303.55 LINE",
"178.5 303.55 LINE",
"178.5 287.82 LINE",
"193.02 285.4 OFFCURVE",
"201.49 281.77 OFFCURVE",
"219.64 237 CURVE SMOOTH",
"289.82 59.13 LINE SMOOTH",
"298.29 36.14 OFFCURVE",
"304.34 24.04 OFFCURVE",
"311.6 1.05 CURVE"
);
},
{
closed = 1;
nodes = (
"163.98 1.05 LINE",
"168.82 24.04 OFFCURVE",
"172.45 33.72 OFFCURVE",
"183.34 57.92 CURVE SMOOTH",
"254.73 230.95 LINE",
"223.27 230.95 LINE",
"170.03 102.69 LINE",
"168.82 102.69 LINE",
"114.37 237 LINE SMOOTH",
"101.06 272.09 OFFCURVE",
"99.85 285.4 OFFCURVE",
"132.52 287.82 CURVE",
"132.52 303.55 LINE",
"-10.26 303.55 LINE",
"-10.26 287.82 LINE",
"11.52 285.4 OFFCURVE",
"18.78 281.77 OFFCURVE",
"36.93 237 CURVE SMOOTH",
"110.74 57.92 LINE SMOOTH",
"120.42 36.14 OFFCURVE",
"125.26 24.04 OFFCURVE",
"132.52 1.05 CURVE"
);
}
);
width = 472;
},
{
layerId = "C8DF7272-19F4-4290-A6F2-EFA6DE6A61D8";
paths = (
{
closed = 1;
nodes = (
"363.63 351.84 LINE",
"369.68 374.83 OFFCURVE",
"373.31 385.72 OFFCURVE",
"382.99 409.92 CURVE SMOOTH",
"455.59 599.89 LINE SMOOTH",
"462.85 618.04 OFFCURVE",
"477.37 648.29 OFFCURVE",
"496.73 649.5 CURVE",
"496.73 665.23 LINE",
"392.67 665.23 LINE",
"392.67 649.5 LINE",
"428.97 648.29 OFFCURVE",
"426.55 616.83 OFFCURVE",
"420.5 598.68 CURVE SMOOTH",
"384.2 499.46 LINE",
"382.99 499.46 LINE",
"341.85 598.68 LINE SMOOTH",
"334.59 616.83 OFFCURVE",
"326.12 648.29 OFFCURVE",
"356.37 649.5 CURVE",
"356.37 665.23 LINE",
"190.6 665.23 LINE",
"190.6 649.5 LINE",
"199.07 648.29 OFFCURVE",
"203.91 642.24 OFFCURVE",
"222.06 598.68 CURVE SMOOTH",
"300.71 411.13 LINE SMOOTH",
"309.18 390.56 OFFCURVE",
"316.44 374.83 OFFCURVE",
"323.7 351.84 CURVE"
);
},
{
closed = 1;
nodes = (
"171.24 351.84 LINE",
"176.08 374.83 OFFCURVE",
"179.71 385.72 OFFCURVE",
"190.6 409.92 CURVE SMOOTH",
"266.83 581.74 LINE",
"230.53 581.74 LINE",
"194.23 499.46 LINE",
"193.02 499.46 LINE",
"148.25 598.68 LINE SMOOTH",
"139.78 616.83 OFFCURVE",
"132.52 648.29 OFFCURVE",
"155.51 649.5 CURVE",
"155.51 665.23 LINE",
"-11.47 665.23 LINE",
"-11.47 649.5 LINE",
"4.26 648.29 OFFCURVE",
"6.68 642.24 OFFCURVE",
"26.04 598.68 CURVE SMOOTH",
"108.32 411.13 LINE SMOOTH",
"118 389.35 OFFCURVE",
"124.05 374.83 OFFCURVE",
"131.31 351.84 CURVE"
);
},
{
closed = 1;
nodes = (
"363.63 -0.16 LINE",
"369.68 22.83 OFFCURVE",
"373.31 33.72 OFFCURVE",
"382.99 57.92 CURVE SMOOTH",
"455.59 247.89 LINE SMOOTH",
"462.85 266.04 OFFCURVE",
"477.37 296.29 OFFCURVE",
"496.73 297.5 CURVE",
"496.73 313.23 LINE",
"392.67 313.23 LINE",
"392.67 297.5 LINE",
"428.97 296.29 OFFCURVE",
"426.55 264.83 OFFCURVE",
"420.5 246.68 CURVE SMOOTH",
"384.2 147.46 LINE",
"382.99 147.46 LINE",
"341.85 246.68 LINE SMOOTH",
"334.59 264.83 OFFCURVE",
"326.12 296.29 OFFCURVE",
"356.37 297.5 CURVE",
"356.37 313.23 LINE",
"190.6 313.23 LINE",
"190.6 297.5 LINE",
"199.07 296.29 OFFCURVE",
"203.91 290.24 OFFCURVE",
"222.06 246.68 CURVE SMOOTH",
"300.71 59.13 LINE SMOOTH",
"309.18 38.56 OFFCURVE",
"316.44 22.83 OFFCURVE",
"323.7 -0.16 CURVE"
);
},
{
closed = 1;
nodes = (
"171.24 -0.16 LINE",
"176.08 22.83 OFFCURVE",
"179.71 33.72 OFFCURVE",
"190.6 57.92 CURVE SMOOTH",
"266.83 229.74 LINE",
"230.53 229.74 LINE",
"194.23 147.46 LINE",
"193.02 147.46 LINE",
"148.25 246.68 LINE SMOOTH",
"139.78 264.83 OFFCURVE",
"132.52 296.29 OFFCURVE",
"155.51 297.5 CURVE",
"155.51 313.23 LINE",
"-11.47 313.23 LINE",
"-11.47 297.5 LINE",
"4.26 296.29 OFFCURVE",
"6.68 290.24 OFFCURVE",
"26.04 246.68 CURVE SMOOTH",
"108.32 59.13 LINE SMOOTH",
"118 37.35 OFFCURVE",
"124.05 22.83 OFFCURVE",
"131.31 -0.16 CURVE"
);
}
);
width = 491;
}
);
leftKerningGroup = H;
leftMetricsKey = "=w";
rightMetricsKey = "=w";
unicode = 02AC;
},
{
glyphname = bmiddletilde;
layers = (
{
anchors = (
{
name = bottom;
position = "{308, 0}";
},
{
name = ogonek;
position = "{282, 0}";
},
{
name = top;
position = "{140.1, 583}";
}
);
layerId = "EA003B4E-FCCC-40A4-9C34-984F621C71B7";
paths = (
{
closed = 1;
nodes = (
"265 457 OFFCURVE",
"213 415 OFFCURVE",
"178 366 CURVE",
"178 658 LINE SMOOTH",
"178 722 OFFCURVE",
"180 773 OFFCURVE",
"182 784 CURVE",
"176 790 LINE",
"3 710 LINE",
"13 687 LINE",
"29 695 OFFCURVE",
"49 701 OFFCURVE",
"67 701 CURVE SMOOTH",
"86 701 OFFCURVE",
"98 694 OFFCURVE",
"98 657 CURVE SMOOTH",
"98 -10 LINE",
"152 5 LINE",
"179 -6 OFFCURVE",
"213 -13 OFFCURVE",
"257 -13 CURVE SMOOTH",
"379 -13 OFFCURVE",
"514 77 OFFCURVE",
"514 247 CURVE SMOOTH",
"514 382 OFFCURVE",
"431 457 OFFCURVE",
"337 457 CURVE SMOOTH"
);
},
{
closed = 1;
nodes = (
"254 32 OFFCURVE",
"210 39 OFFCURVE",
"178 73 CURVE",
"178 335 LINE",
"215 370 OFFCURVE",
"260 397 OFFCURVE",
"306 397 CURVE SMOOTH",
"381 397 OFFCURVE",
"432 328 OFFCURVE",
"432 213 CURVE SMOOTH",
"432 88 OFFCURVE",
"369 32 OFFCURVE",
"283 32 CURVE SMOOTH"
);
},
{
closed = 1;
nodes = (
"107.1 559 OFFCURVE",
"142.3 500 OFFCURVE",
"207.2 500 CURVE SMOOTH",
"258.9 500 OFFCURVE",
"293 529 OFFCURVE",
"302.9 613 CURVE",
"277.6 618 LINE",
"266.6 576 OFFCURVE",
"249 559 OFFCURVE",
"217.1 559 CURVE SMOOTH",
"169.8 559 OFFCURVE",
"134.6 618 OFFCURVE",
"69.7 618 CURVE SMOOTH",
"18 618 OFFCURVE",
"-16.1 589 OFFCURVE",
"-26 505 CURVE",
"-0.7 500 LINE",
"10.3 542 OFFCURVE",
"27.9 559 OFFCURVE",
"59.8 559 CURVE SMOOTH"
);
}
);
width = 560;
},
{
anchors = (
{
name = bottom;
position = "{333, 0}";
},
{
name = ogonek;
position = "{318, 0}";
},
{
name = top;
position = "{165.59, 608}";
}
);
layerId = "C8DF7272-19F4-4290-A6F2-EFA6DE6A61D8";
paths = (
{
closed = 1;
nodes = (
"308 475 OFFCURVE",
"251 434 OFFCURVE",
"225 380 CURVE",
"225 658 LINE SMOOTH",
"225 722 OFFCURVE",
"227 764 OFFCURVE",
"229 784 CURVE",
"223 790 LINE",
"5 689 LINE",
"15 666 LINE",
"30 671 OFFCURVE",
"42 674 OFFCURVE",
"53 674 CURVE SMOOTH",
"67 674 OFFCURVE",
"75 669 OFFCURVE",
"75 649 CURVE SMOOTH",
"75 -10 LINE",
"155 9 LINE",
"187 -4 OFFCURVE",
"223 -15 OFFCURVE",
"292 -15 CURVE SMOOTH",
"415 -15 OFFCURVE",
"565 55 OFFCURVE",
"565 246 CURVE SMOOTH",
"565 389 OFFCURVE",
"480 475 OFFCURVE",
"384 475 CURVE SMOOTH"
);
},
{
closed = 1;
nodes = (
"270 33 OFFCURVE",
"243 49 OFFCURVE",
"225 77 CURVE",
"225 343 LINE",
"247 365 OFFCURVE",
"276 375 OFFCURVE",
"301 375 CURVE SMOOTH",
"359 375 OFFCURVE",
"405 319 OFFCURVE",
"405 203 CURVE SMOOTH",
"405 100 OFFCURVE",
"360 33 OFFCURVE",
"301 33 CURVE SMOOTH"
);
},
{
closed = 1;
nodes = (
"99.04 536 OFFCURVE",
"163.17 477 OFFCURVE",
"228.51 477 CURVE SMOOTH",
"301.11 477 OFFCURVE",
"336.2 530 OFFCURVE",
"348.3 616 CURVE",
"320.47 621 LINE",
"309.58 580 OFFCURVE",
"286.59 562 OFFCURVE",
"247.87 562 CURVE SMOOTH",
"198.26 562 OFFCURVE",
"134.13 621 OFFCURVE",
"68.79 621 CURVE SMOOTH",
"-3.81 621 OFFCURVE",
"-38.9 568 OFFCURVE",
"-51 482 CURVE",
"-23.17 477 LINE",
"-12.28 518 OFFCURVE",
"10.71 536 OFFCURVE",
"49.43 536 CURVE SMOOTH"
);
}
);
width = 595;
}
);
leftKerningGroup = l;
rightKerningGroup = o;
unicode = 1D6C;
},
{
glyphname = c;
layers = (
{
anchors = (
{
name = bottom;
position = "{267, 0}";
},
{
name = ogonek;
position = "{270, 0}";
},
{
name = top;
position = "{267, 460}";
}
);
layerId = "C8DF7272-19F4-4290-A6F2-EFA6DE6A61D8";
paths = (
{
closed = 1;
nodes = (
"364 -15 OFFCURVE",
"422 49 OFFCURVE",
"457 133 CURVE",
"441 149 LINE",
"401 111 OFFCURVE",
"351 100 OFFCURVE",
"320 100 CURVE SMOOTH",
"250 100 OFFCURVE",
"190 146 OFFCURVE",
"190 266 CURVE SMOOTH",
"190 369 OFFCURVE",
"234 432 OFFCURVE",
"294 432 CURVE SMOOTH",
"346 432 OFFCURVE",
"399 391 OFFCURVE",
"417 290 CURVE",
"440 290 LINE",
"440 443 LINE",
"408 465 OFFCURVE",
"345 475 OFFCURVE",
"299 475 CURVE SMOOTH",
"176 475 OFFCURVE",
"30 394 OFFCURVE",
"30 222 CURVE SMOOTH",
"30 76 OFFCURVE",
"124 -15 OFFCURVE",
"255 -15 CURVE SMOOTH"
);
}
);
width = 481;
},
{
anchors = (
{
name = bottom;
position = "{260, 0}";
},
{
name = ogonek;
position = "{255, 0}";
},
{
name = top;
position = "{256, 440}";
}
);
layerId = "EA003B4E-FCCC-40A4-9C34-984F621C71B7";
paths = (
{
closed = 1;
nodes = (
"330 -15 OFFCURVE",
"396 30 OFFCURVE",
"434 93 CURVE",
"418 109 LINE",
"380 73 OFFCURVE",
"333 51 OFFCURVE",
"286 51 CURVE SMOOTH",
"195 51 OFFCURVE",
"128 127 OFFCURVE",
"128 245 CURVE SMOOTH",
"128 343 OFFCURVE",
"178 418 OFFCURVE",
"266 418 CURVE SMOOTH",
"319 418 OFFCURVE",
"384 391 OFFCURVE",
"395 288 CURVE",
"418 288 LINE",
"418 419 LINE",
"379 445 OFFCURVE",
"326 455 OFFCURVE",
"285 455 CURVE SMOOTH",
"160 455 OFFCURVE",
"46 365 OFFCURVE",
"46 207 CURVE SMOOTH",
"46 59 OFFCURVE",
"144 -15 OFFCURVE",
"249 -15 CURVE SMOOTH"
);
}
);
width = 471;
}
);
leftKerningGroup = o;
leftMetricsKey = "=o";
rightKerningGroup = o;
rightMetricsKey = "=o*0.8";
unicode = 0063;
},
{
glyphname = ccurl;
layers = (
{
anchors = (
{
name = bottom;
position = "{260, 0}";
},
{
name = ogonek;
position = "{255, 0}";
},
{
name = top;
position = "{256, 440}";
}
);
layerId = "EA003B4E-FCCC-40A4-9C34-984F621C71B7";
paths = (
{
closed = 1;
nodes = (
"175 -105 LINE",
"185 17 OFFCURVE",
"196 165 OFFCURVE",
"304 165 CURVE",
"348 165 OFFCURVE",
"371 140 OFFCURVE",
"371 102 CURVE",
"371 59 OFFCURVE",
"330 42 OFFCURVE",
"284 42 CURVE SMOOTH",
"191 42 OFFCURVE",
"128 117 OFFCURVE",
"128 237 CURVE SMOOTH",
"128 343 OFFCURVE",
"178 418 OFFCURVE",
"266 418 CURVE SMOOTH",
"319 418 OFFCURVE",
"384 391 OFFCURVE",
"395 288 CURVE",
"418 288 LINE",
"418 419 LINE",
"379 445 OFFCURVE",
"326 455 OFFCURVE",
"285 455 CURVE SMOOTH",
"160 455 OFFCURVE",
"46 365 OFFCURVE",
"46 207 CURVE SMOOTH",
"46 70 OFFCURVE",
"132 -15 OFFCURVE",
"262 -15 CURVE SMOOTH",
"359 -15 OFFCURVE",
"428 33 OFFCURVE",
"428 106 CURVE",
"428 163 OFFCURVE",
"382 201 OFFCURVE",
"314 201 CURVE",
"172 201 OFFCURVE",
"152 38 OFFCURVE",
"152 -105 CURVE"
);
}
);
width = 465;
},
{
anchors = (
{
name = bottom;
position = "{267, 0}";
},
{
name = ogonek;
position = "{270, 0}";
},
{
name = top;
position = "{267, 460}";
}
);
layerId = "C8DF7272-19F4-4290-A6F2-EFA6DE6A61D8";
paths = (
{
closed = 1;
nodes = (
"180 -105 LINE",
"190 21 OFFCURVE",
"212 175 OFFCURVE",
"328 175 CURVE SMOOTH",
"366 175 OFFCURVE",
"393 159 OFFCURVE",
"393 125 CURVE SMOOTH",
"393 89 OFFCURVE",
"364 70 OFFCURVE",
"321 70 CURVE SMOOTH",
"231 70 OFFCURVE",
"190 155 OFFCURVE",
"190 262 CURVE SMOOTH",
"190 371 OFFCURVE",
"234 432 OFFCURVE",
"294 432 CURVE SMOOTH",
"346 432 OFFCURVE",
"399 391 OFFCURVE",
"417 290 CURVE",
"440 290 LINE",
"440 443 LINE",
"408 465 OFFCURVE",
"345 475 OFFCURVE",
"299 475 CURVE SMOOTH",
"176 475 OFFCURVE",
"30 395 OFFCURVE",
"30 219 CURVE SMOOTH",
"30 77 OFFCURVE",
"124 -15 OFFCURVE",
"267 -15 CURVE SMOOTH",
"373 -15 OFFCURVE",
"460 36 OFFCURVE",
"460 121 CURVE SMOOTH",
"460 185 OFFCURVE",
"411 221 OFFCURVE",
"343 221 CURVE SMOOTH",
"190 221 OFFCURVE",
"157 37 OFFCURVE",
"157 -105 CURVE"
);
}
);
width = 484;
}
);
leftKerningGroup = o;
leftMetricsKey = "=c";
rightKerningGroup = o;
rightMetricsKey = "=c";
unicode = 0255;
},
{
glyphname = "chi-latin";
layers = (
{
layerId = "EA003B4E-FCCC-40A4-9C34-984F621C71B7";
paths = (
{
closed = 1;
nodes = (
"193 -81 OFFCURVE",
"336 276 OFFCURVE",
"427 440 CURVE",
"337 446 LINE",
"268 287 OFFCURVE",
"128 -41 OFFCURVE",
"39 -220 CURVE",
"129 -225 LINE"
);
},
{
closed = 1;
nodes = (
"413 -235 OFFCURVE",
"447 -205 OFFCURVE",
"447 -153 CURVE SMOOTH",
"447 -131 OFFCURVE",
"441 -109 OFFCURVE",
"432 -85 CURVE",
"409 -85 LINE",
"405 -142 OFFCURVE",
"396 -170 OFFCURVE",
"369 -170 CURVE SMOOTH",
"306 -170 OFFCURVE",
"278 -10 OFFCURVE",
"245 147 CURVE",
"215 88 LINE",
"247 -92 OFFCURVE",
"277 -235 OFFCURVE",
"370 -235 CURVE SMOOTH"
);
},
{
closed = 1;
nodes = (
"238 147 LINE",
"212 302 OFFCURVE",
"182 455 OFFCURVE",
"94 455 CURVE SMOOTH",
"58 455 OFFCURVE",
"15 429 OFFCURVE",
"15 372 CURVE SMOOTH",
"15 351 OFFCURVE",
"21 329 OFFCURVE",
"30 305 CURVE",
"53 305 LINE",
"57 362 OFFCURVE",
"68 390 OFFCURVE",
"93 390 CURVE SMOOTH",
"151 390 OFFCURVE",
"174 240 OFFCURVE",
"205 88 CURVE"
);
}
);
width = 442;
},
{
layerId = "C8DF7272-19F4-4290-A6F2-EFA6DE6A61D8";
paths = (
{
closed = 1;
nodes = (
"176 -128 OFFCURVE",
"422 358 OFFCURVE",
"468 460 CURVE",
"313 470 LINE",
"240 299 OFFCURVE",
"66 -49 OFFCURVE",
"-15 -220 CURVE",
"140 -230 LINE"
);
},
{
closed = 1;
nodes = (
"427 -235 OFFCURVE",
"456 -193 OFFCURVE",
"456 -146 CURVE SMOOTH",
"456 -123 OFFCURVE",
"451 -91 OFFCURVE",
"440 -60 CURVE",
"417 -60 LINE",
"408 -109 OFFCURVE",
"394 -134 OFFCURVE",
"364 -134 CURVE SMOOTH",
"294 -134 OFFCURVE",
"287 12 OFFCURVE",
"251 160 CURVE",
"214 103 LINE",
"252 -60 OFFCURVE",
"262 -235 OFFCURVE",
"372 -235 CURVE SMOOTH"
);
},
{
closed = 1;
nodes = (
"231 160 LINE",
"195 363 OFFCURVE",
"186 475 OFFCURVE",
"83 475 CURVE SMOOTH",
"21 475 OFFCURVE",
"-10 434 OFFCURVE",
"-10 383 CURVE SMOOTH",
"-10 363 OFFCURVE",
"-5 331 OFFCURVE",
"6 300 CURVE",
"29 300 LINE",
"38 349 OFFCURVE",
"51 374 OFFCURVE",
"84 374 CURVE SMOOTH",
"158 374 OFFCURVE",
"170 243 OFFCURVE",
"194 103 CURVE"
);
}
);
width = 468;
}
);
unicode = AB53;
},
{
glyphname = chook;
layers = (
{
anchors = (
{
name = bottom;
position = "{260, 0}";
},
{
name = ogonek;
position = "{255, 0}";
},
{
name = top;
position = "{256, 440}";
}
);
layerId = "EA003B4E-FCCC-40A4-9C34-984F621C71B7";
paths = (
{
closed = 1;
nodes = (
"330 -15 OFFCURVE",
"396 30 OFFCURVE",
"434 93 CURVE",
"418 109 LINE",
"380 73 OFFCURVE",
"333 51 OFFCURVE",
"286 51 CURVE SMOOTH",
"195 51 OFFCURVE",
"128 127 OFFCURVE",
"128 245 CURVE SMOOTH",
"128 343 OFFCURVE",
"178 418 OFFCURVE",
"266 418 CURVE SMOOTH",
"319 418 OFFCURVE",
"384 391 OFFCURVE",
"395 288 CURVE",
"418 288 LINE",
"418 463 OFFCURVE",
"435 544 OFFCURVE",
"488 544 CURVE SMOOTH",
"521 544 OFFCURVE",
"541 509 OFFCURVE",
"546 452 CURVE",
"569 452 LINE",
"577 497 OFFCURVE",
"577 545 OFFCURVE",
"569 590 CURVE",
"438 604 OFFCURVE",
"367 541 OFFCURVE",
"346 418 CURVE",
"377 438 LINE",
"348 451 OFFCURVE",
"313 455 OFFCURVE",
"285 455 CURVE SMOOTH",
"160 455 OFFCURVE",
"46 365 OFFCURVE",
"46 207 CURVE SMOOTH",
"46 59 OFFCURVE",
"144 -15 OFFCURVE",
"249 -15 CURVE SMOOTH"
);
}
);
width = 499;
},
{
anchors = (
{
name = bottom;
position = "{267, 0}";
},
{
name = ogonek;
position = "{270, 0}";
},
{
name = top;
position = "{267, 460}";
}
);
layerId = "C8DF7272-19F4-4290-A6F2-EFA6DE6A61D8";
paths = (
{
closed = 1;
nodes = (
"364 -15 OFFCURVE",
"422 49 OFFCURVE",
"457 133 CURVE",
"441 149 LINE",
"401 111 OFFCURVE",
"351 100 OFFCURVE",
"320 100 CURVE SMOOTH",
"250 100 OFFCURVE",
"190 146 OFFCURVE",
"190 266 CURVE SMOOTH",
"190 369 OFFCURVE",
"234 432 OFFCURVE",
"294 432 CURVE SMOOTH",
"346 432 OFFCURVE",
"399 391 OFFCURVE",
"417 290 CURVE",
"440 290 LINE",
"440 526 OFFCURVE",
"471 577 OFFCURVE",
"500 577 CURVE SMOOTH",
"522 577 OFFCURVE",
"536 552 OFFCURVE",
"544 490 CURVE",
"567 490 LINE",
"575 535 OFFCURVE",
"575 589 OFFCURVE",
"567 634 CURVE",
"425 648 OFFCURVE",
"342 582 OFFCURVE",
"334 440 CURVE",
"394 460 LINE",
"367 470 OFFCURVE",
"336 475 OFFCURVE",
"299 475 CURVE SMOOTH",
"176 475 OFFCURVE",
"30 394 OFFCURVE",
"30 222 CURVE SMOOTH",
"30 76 OFFCURVE",
"124 -15 OFFCURVE",
"255 -15 CURVE SMOOTH"
);
}
);
width = 500;
}
);
leftKerningGroup = o;
leftMetricsKey = "=c";
rightMetricsKey = "=f";
unicode = 0188;
},
{
glyphname = d;
layers = (
{
anchors = (
{
name = bottom;
position = "{298, 0}";
},
{
name = center;
position = "{298, 230}";
},
{
name = ogonek;
position = "{390, 0}";
},
{
name = top;
position = "{253, 750}";
},
{
name = topright;
position = "{593, 590}";
}
);
layerId = "C8DF7272-19F4-4290-A6F2-EFA6DE6A61D8";
paths = (
{
closed = 1;
nodes = (
"558 96 OFFCURVE",
"551 95 OFFCURVE",
"542 95 CURVE SMOOTH",
"528 95 OFFCURVE",
"520 100 OFFCURVE",
"520 120 CURVE SMOOTH",
"520 658 LINE SMOOTH",
"520 722 OFFCURVE",
"522 764 OFFCURVE",
"524 784 CURVE",
"518 790 LINE",
"300 689 LINE",
"310 666 LINE",
"323 671 OFFCURVE",
"337 674 OFFCURVE",
"348 674 CURVE SMOOTH",
"362 674 OFFCURVE",
"370 669 OFFCURVE",
"370 649 CURVE SMOOTH",
"370 471 LINE",
"352 473 OFFCURVE",
"330 475 OFFCURVE",
"303 475 CURVE SMOOTH",
"180 475 OFFCURVE",
"30 405 OFFCURVE",
"30 214 CURVE SMOOTH",
"30 71 OFFCURVE",
"115 -15 OFFCURVE",
"211 -15 CURVE SMOOTH",
"288 -15 OFFCURVE",
"346 27 OFFCURVE",
"371 82 CURVE",
"373 82 LINE",
"373 42 OFFCURVE",
"370 -3 OFFCURVE",
"367 -15 CURVE",
"373 -21 LINE",
"580 76 LINE",
"570 99 LINE"
);
},
{
closed = 1;
nodes = (
"236 85 OFFCURVE",
"190 141 OFFCURVE",
"190 257 CURVE SMOOTH",
"190 360 OFFCURVE",
"235 427 OFFCURVE",
"294 427 CURVE SMOOTH",
"325 427 OFFCURVE",
"352 411 OFFCURVE",
"370 383 CURVE",
"370 117 LINE",
"348 95 OFFCURVE",
"319 85 OFFCURVE",
"294 85 CURVE SMOOTH"
);
}
);
width = 603;
},
{
anchors = (
{
name = bottom;
position = "{272, 0}";
},
{
name = center;
position = "{282, 221}";
},
{
name = ogonek;
position = "{435, 0}";
},
{
name = top;
position = "{242, 750}";
},
{
name = topright;
position = "{536, 590}";
}
);
layerId = "EA003B4E-FCCC-40A4-9C34-984F621C71B7";
paths = (
{
closed = 1;
nodes = (
"521 71 OFFCURVE",
"507 68 OFFCURVE",
"493 68 CURVE SMOOTH",
"474 68 OFFCURVE",
"462 75 OFFCURVE",
"462 112 CURVE SMOOTH",
"462 658 LINE SMOOTH",
"462 722 OFFCURVE",
"464 773 OFFCURVE",
"466 784 CURVE",
"460 790 LINE",
"287 710 LINE",
"297 687 LINE",
"313 695 OFFCURVE",
"333 701 OFFCURVE",
"351 701 CURVE SMOOTH",
"370 701 OFFCURVE",
"382 694 OFFCURVE",
"382 657 CURVE SMOOTH",
"382 446 LINE",
"360 452 OFFCURVE",
"334 455 OFFCURVE",
"303 455 CURVE SMOOTH",
"181 455 OFFCURVE",
"46 365 OFFCURVE",
"46 195 CURVE SMOOTH",
"46 60 OFFCURVE",
"129 -15 OFFCURVE",
"223 -15 CURVE SMOOTH",
"296 -15 OFFCURVE",
"348 28 OFFCURVE",
"383 77 CURVE",
"384 77 LINE",
"384 37 OFFCURVE",
"380 -3 OFFCURVE",
"377 -15 CURVE",
"383 -21 LINE",
"546 54 LINE",
"536 77 LINE"
);
},
{
closed = 1;
nodes = (
"179 45 OFFCURVE",
"128 114 OFFCURVE",
"128 229 CURVE SMOOTH",
"128 354 OFFCURVE",
"191 410 OFFCURVE",
"277 410 CURVE SMOOTH",
"306 410 OFFCURVE",
"350 403 OFFCURVE",
"382 369 CURVE",
"382 107 LINE",
"345 72 OFFCURVE",
"300 45 OFFCURVE",
"254 45 CURVE SMOOTH"
);
}
);
width = 564;
}
);
leftKerningGroup = o;
leftMetricsKey = "=o";
rightKerningGroup = H;
rightMetricsKey = "=l";
unicode = 0064;
},
{
glyphname = eth;
layers = (
{
anchors = (
{
name = bottom;
position = "{285, 0}";
},
{
name = center;
position = "{285, 230}";
},
{
name = ogonek;
position = "{511, 10}";
},
{
name = top;
position = "{285, 460}";
},
{
name = topright;
position = "{548, 460}";
}
);
layerId = "C8DF7272-19F4-4290-A6F2-EFA6DE6A61D8";
paths = (
{
closed = 1;
nodes = (
"416 -15 OFFCURVE",
"540 64 OFFCURVE",
"540 273 CURVE SMOOTH",
"540 473 OFFCURVE",
"464 695 OFFCURVE",
"141 790 CURVE",
"125 747 LINE",
"298 680 OFFCURVE",
"355 545 OFFCURVE",
"367 439 CURVE",
"365 439 LINE",
"341 449 OFFCURVE",
"316 455 OFFCURVE",
"275 455 CURVE SMOOTH",
"137 455 OFFCURVE",
"30 362 OFFCURVE",
"30 213 CURVE SMOOTH",
"30 80 OFFCURVE",
"132 -15 OFFCURVE",
"281 -15 CURVE SMOOTH"
);
},
{
closed = 1;
nodes = (
"216 28 OFFCURVE",
"190 131 OFFCURVE",
"190 234 CURVE SMOOTH",
"190 364 OFFCURVE",
"232 412 OFFCURVE",
"284 412 CURVE SMOOTH",
"359 412 OFFCURVE",
"385 309 OFFCURVE",
"385 206 CURVE SMOOTH",
"385 76 OFFCURVE",
"343 28 OFFCURVE",
"291 28 CURVE SMOOTH"
);
},
{
closed = 1;
nodes = (
"446 757 LINE",
"417 790 LINE",
"164 578 LINE",
"193 545 LINE"
);
}
);
width = 570;
},
{
anchors = (
{
name = bottom;
position = "{267, 0}";
},
{
name = center;
position = "{267, 221}";
},
{
name = ogonek;
position = "{481, 10}";
},
{
name = top;
position = "{267, 442}";
},
{
name = topright;
position = "{514, 442}";
}
);
layerId = "EA003B4E-FCCC-40A4-9C34-984F621C71B7";
paths = (
{
closed = 1;
nodes = (
"370 -15 OFFCURVE",
"484 56 OFFCURVE",
"484 265 CURVE SMOOTH",
"484 441 OFFCURVE",
"407 684 OFFCURVE",
"116 790 CURVE",
"106 758 LINE",
"287 682 OFFCURVE",
"367 515 OFFCURVE",
"387 398 CURVE",
"385 398 LINE",
"354 416 OFFCURVE",
"317 425 OFFCURVE",
"278 425 CURVE SMOOTH",
"161 425 OFFCURVE",
"46 344 OFFCURVE",
"46 205 CURVE SMOOTH",
"46 75 OFFCURVE",
"143 -15 OFFCURVE",
"260 -15 CURVE SMOOTH"
);
},
{
closed = 1;
nodes = (
"176 25 OFFCURVE",
"131 123 OFFCURVE",
"131 227 CURVE SMOOTH",
"131 341 OFFCURVE",
"189 389 OFFCURVE",
"264 389 CURVE SMOOTH",
"363 389 OFFCURVE",
"409 295 OFFCURVE",
"409 191 CURVE SMOOTH",
"409 73 OFFCURVE",
"351 25 OFFCURVE",
"276 25 CURVE SMOOTH"
);
},
{
closed = 1;
nodes = (
"332 771 LINE",
"313 790 LINE",
"141 629 LINE",
"160 610 LINE"
);
}
);
width = 530;
}
);
leftKerningGroup = o;
leftMetricsKey = "=o";
rightKerningGroup = O;
rightMetricsKey = "=o";
unicode = 00F0;
},
{
glyphname = dcaron;
layers = (
{
anchors = (
{
name = bottom;
position = "{298, 0}";
},
{
name = center;
position = "{298, 230}";
},
{
name = ogonek;
position = "{390, 0}";
},
{
name = top;
position = "{253, 750}";
},
{
name = topright;
position = "{593, 590}";
}
);
layerId = "C8DF7272-19F4-4290-A6F2-EFA6DE6A61D8";
paths = (
{
closed = 1;
nodes = (
"558 96 OFFCURVE",
"551 95 OFFCURVE",
"542 95 CURVE SMOOTH",
"528 95 OFFCURVE",
"520 100 OFFCURVE",
"520 120 CURVE SMOOTH",
"520 658 LINE SMOOTH",
"520 722 OFFCURVE",
"522 764 OFFCURVE",
"524 784 CURVE",
"518 790 LINE",
"300 689 LINE",
"310 666 LINE",
"323 671 OFFCURVE",
"337 674 OFFCURVE",
"348 674 CURVE SMOOTH",
"362 674 OFFCURVE",
"370 669 OFFCURVE",
"370 649 CURVE SMOOTH",
"370 471 LINE",
"352 473 OFFCURVE",
"330 475 OFFCURVE",
"303 475 CURVE SMOOTH",
"180 475 OFFCURVE",
"30 405 OFFCURVE",
"30 214 CURVE SMOOTH",
"30 71 OFFCURVE",
"115 -15 OFFCURVE",
"211 -15 CURVE SMOOTH",
"288 -15 OFFCURVE",
"346 27 OFFCURVE",
"371 82 CURVE",
"373 82 LINE",
"373 42 OFFCURVE",
"370 -3 OFFCURVE",
"367 -15 CURVE",
"373 -21 LINE",
"580 76 LINE",
"570 99 LINE"
);
},
{
closed = 1;
nodes = (
"236 85 OFFCURVE",
"190 141 OFFCURVE",
"190 257 CURVE SMOOTH",
"190 360 OFFCURVE",
"235 427 OFFCURVE",
"294 427 CURVE SMOOTH",
"325 427 OFFCURVE",
"352 411 OFFCURVE",
"370 383 CURVE",
"370 117 LINE",
"348 95 OFFCURVE",
"319 85 OFFCURVE",
"294 85 CURVE SMOOTH"
);
},
{
closed = 1;
nodes = (
"589 723 OFFCURVE",
"593 642 OFFCURVE",
"578 569 CURVE",
"603 569 LINE",
"650 629 OFFCURVE",
"681 720 OFFCURVE",
"686 790 CURVE",
"649 803 OFFCURVE",
"611 803 OFFCURVE",
"574 790 CURVE"
);
}
);
width = 591;
},
{
anchors = (
{
name = bottom;
position = "{272, 0}";
},
{
name = center;
position = "{282, 221}";
},
{
name = ogonek;
position = "{435, 0}";
},
{
name = top;
position = "{242, 750}";
},
{
name = topright;
position = "{536, 590}";
}
);
layerId = "EA003B4E-FCCC-40A4-9C34-984F621C71B7";
paths = (
{
closed = 1;
nodes = (
"521 71 OFFCURVE",
"507 68 OFFCURVE",
"493 68 CURVE SMOOTH",
"474 68 OFFCURVE",
"462 75 OFFCURVE",
"462 112 CURVE SMOOTH",
"462 658 LINE SMOOTH",
"462 722 OFFCURVE",
"464 773 OFFCURVE",
"466 784 CURVE",
"460 790 LINE",
"287 710 LINE",
"297 687 LINE",
"313 695 OFFCURVE",
"333 701 OFFCURVE",
"351 701 CURVE SMOOTH",
"370 701 OFFCURVE",
"382 694 OFFCURVE",
"382 657 CURVE SMOOTH",
"382 446 LINE",
"360 452 OFFCURVE",
"334 455 OFFCURVE",
"303 455 CURVE SMOOTH",
"181 455 OFFCURVE",
"46 365 OFFCURVE",
"46 195 CURVE SMOOTH",
"46 60 OFFCURVE",
"129 -15 OFFCURVE",
"223 -15 CURVE SMOOTH",
"296 -15 OFFCURVE",
"348 28 OFFCURVE",
"383 77 CURVE",
"384 77 LINE",
"384 37 OFFCURVE",
"380 -3 OFFCURVE",
"377 -15 CURVE",
"383 -21 LINE",
"546 54 LINE",
"536 77 LINE"
);
},
{
closed = 1;
nodes = (
"179 45 OFFCURVE",
"128 114 OFFCURVE",
"128 229 CURVE SMOOTH",
"128 354 OFFCURVE",
"191 410 OFFCURVE",
"277 410 CURVE SMOOTH",
"306 410 OFFCURVE",
"350 403 OFFCURVE",
"382 369 CURVE",
"382 107 LINE",
"345 72 OFFCURVE",
"300 45 OFFCURVE",
"254 45 CURVE SMOOTH"
);
},
{
closed = 1;
nodes = (
"537 727 OFFCURVE",
"538 639 OFFCURVE",
"519 573 CURVE",
"542 573 LINE",
"579 635 OFFCURVE",
"594 722 OFFCURVE",
"595 790 CURVE",
"572 800 OFFCURVE",
"548 799 OFFCURVE",
"527 788 CURVE"
);
}
);
width = 561;
}
);
leftKerningGroup = o;
rightKerningGroup = H;
unicode = 010F;
},
{
glyphname = dezh;
layers = (
{
anchors = (
{
name = bottom;
position = "{222, 0}";
},
{
name = center;
position = "{232, 221}";
},
{
name = ogonek;
position = "{385, 0}";
},
{
name = top;
position = "{192, 750}";
},
{
name = topright;
position = "{486, 590}";
}
);
layerId = "EA003B4E-FCCC-40A4-9C34-984F621C71B7";
paths = (
{
closed = 1;
nodes = (
"462 440 LINE",
"462 658 LINE SMOOTH",
"462 722 OFFCURVE",
"464 773 OFFCURVE",
"466 784 CURVE",
"460 790 LINE",
"287 710 LINE",
"297 687 LINE",
"313 695 OFFCURVE",
"333 701 OFFCURVE",
"351 701 CURVE SMOOTH",
"370 701 OFFCURVE",
"382 694 OFFCURVE",
"382 657 CURVE SMOOTH",
"382 446 LINE",
"360 452 OFFCURVE",
"334 455 OFFCURVE",
"303 455 CURVE SMOOTH",
"181 455 OFFCURVE",
"46 365 OFFCURVE",
"46 195 CURVE SMOOTH",
"46 60 OFFCURVE",
"129 -15 OFFCURVE",
"223 -15 CURVE SMOOTH",
"296 -15 OFFCURVE",
"348 28 OFFCURVE",
"383 77 CURVE",
"384 77 LINE",
"384 37 OFFCURVE",
"380 -3 OFFCURVE",
"377 -15 CURVE",
"383 -21 LINE",
"462 15 LINE",
"462 298 LINE SMOOTH",
"462 386 OFFCURVE",
"494 404 OFFCURVE",
"558 405 CURVE SMOOTH",
"736 409 LINE",
"736 406 LINE",
"586 190 LINE",
"590 167 LINE",
"683 145 OFFCURVE",
"761 109 OFFCURVE",
"761 2 CURVE SMOOTH",
"761 -96 OFFCURVE",
"691 -154 OFFCURVE",
"599 -154 CURVE SMOOTH",
"543 -154 OFFCURVE",
"499 -132 OFFCURVE",
"461 -96 CURVE",
"445 -112 LINE",
"485 -176 OFFCURVE",
"544 -220 OFFCURVE",
"629 -220 CURVE SMOOTH",
"731 -220 OFFCURVE",
"843 -156 OFFCURVE",
"843 -20 CURVE SMOOTH",
"843 92 OFFCURVE",
"771 150 OFFCURVE",
"673 184 CURVE",
"803 365 LINE SMOOTH",
"823 393 OFFCURVE",
"831 401 OFFCURVE",
"845 417 CURVE",
"845 440 LINE"
);
},
{
closed = 1;
nodes = (
"179 45 OFFCURVE",
"128 114 OFFCURVE",
"128 229 CURVE SMOOTH",
"128 354 OFFCURVE",
"191 410 OFFCURVE",
"277 410 CURVE SMOOTH",
"306 410 OFFCURVE",
"350 403 OFFCURVE",
"382 369 CURVE",
"382 107 LINE",
"345 72 OFFCURVE",
"300 45 OFFCURVE",
"254 45 CURVE SMOOTH"
);
}
);
width = 878;
},
{
anchors = (
{
name = bottom;
position = "{248, 0}";
},
{
name = center;
position = "{248, 230}";
},
{
name = ogonek;
position = "{340, 0}";
},
{
name = top;
position = "{203, 750}";
},
{
name = topright;
position = "{543, 590}";
}
);
layerId = "C8DF7272-19F4-4290-A6F2-EFA6DE6A61D8";
paths = (
{
closed = 1;
nodes = (
"520 460 LINE",
"520 658 LINE SMOOTH",
"520 722 OFFCURVE",
"522 764 OFFCURVE",
"524 784 CURVE",
"518 790 LINE",
"300 689 LINE",
"310 666 LINE",
"323 671 OFFCURVE",
"337 674 OFFCURVE",
"348 674 CURVE SMOOTH",
"362 674 OFFCURVE",
"370 669 OFFCURVE",
"370 649 CURVE SMOOTH",
"370 471 LINE",
"352 473 OFFCURVE",
"330 475 OFFCURVE",
"303 475 CURVE SMOOTH",
"180 475 OFFCURVE",
"30 405 OFFCURVE",
"30 214 CURVE SMOOTH",
"30 71 OFFCURVE",
"115 -15 OFFCURVE",
"211 -15 CURVE SMOOTH",
"288 -15 OFFCURVE",
"346 27 OFFCURVE",
"371 82 CURVE",
"373 82 LINE",
"373 42 OFFCURVE",
"370 -3 OFFCURVE",
"367 -15 CURVE",
"373 -21 LINE",
"520 48 LINE",
"520 300 LINE SMOOTH",
"520 360 OFFCURVE",
"543 405 OFFCURVE",
"598 409 CURVE SMOOTH",
"751 420 LINE",
"751 418 LINE",
"610 188 LINE",
"616 165 LINE",
"706 155 OFFCURVE",
"770 114 OFFCURVE",
"770 20 CURVE SMOOTH",
"770 -69 OFFCURVE",
"709 -105 OFFCURVE",
"632 -105 CURVE SMOOTH",
"599 -105 OFFCURVE",
"549 -94 OFFCURVE",
"509 -56 CURVE",
"493 -72 LINE",
"529 -157 OFFCURVE",
"584 -220 OFFCURVE",
"699 -220 CURVE SMOOTH",
"836 -220 OFFCURVE",
"930 -144 OFFCURVE",
"930 -10 CURVE SMOOTH",
"930 81 OFFCURVE",
"866 147 OFFCURVE",
"780 188 CURVE",
"905 385 LINE SMOOTH",
"919 406 OFFCURVE",
"933 425 OFFCURVE",
"944 437 CURVE",
"944 460 LINE"
);
},
{
closed = 1;
nodes = (
"236 85 OFFCURVE",
"190 141 OFFCURVE",
"190 257 CURVE SMOOTH",
"190 360 OFFCURVE",
"235 427 OFFCURVE",
"294 427 CURVE SMOOTH",
"325 427 OFFCURVE",
"352 411 OFFCURVE",
"370 383 CURVE",
"370 117 LINE",
"348 95 OFFCURVE",
"319 85 OFFCURVE",
"294 85 CURVE SMOOTH"
);
}
);
width = 967;
}
);
leftKerningGroup = o;
leftMetricsKey = "=d";
rightKerningGroup = n;
rightMetricsKey = "=ezh";
unicode = 02A4;
},
{
glyphname = dhook;
layers = (
{
anchors = (
{
name = bottom;
position = "{272, 0}";
},
{
name = center;
position = "{282, 221}";
},
{
name = ogonek;
position = "{435, 0}";
},
{
name = top;
position = "{242, 750}";
},
{
name = topright;
position = "{536, 590}";
}
);
layerId = "EA003B4E-FCCC-40A4-9C34-984F621C71B7";
paths = (
{
closed = 1;
nodes = (
"451 807 OFFCURVE",
"382 708 OFFCURVE",
"382 521 CURVE SMOOTH",
"382 77 LINE",
"384 77 LINE",
"384 37 OFFCURVE",
"380 -3 OFFCURVE",
"377 -15 CURVE",
"383 -21 LINE",
"546 54 LINE",
"536 77 LINE",
"521 71 OFFCURVE",
"507 68 OFFCURVE",
"493 68 CURVE SMOOTH",
"474 68 OFFCURVE",
"462 75 OFFCURVE",
"462 112 CURVE SMOOTH",
"462 508 LINE SMOOTH",
"462 580 OFFCURVE",
"461 744 OFFCURVE",
"532 744 CURVE SMOOTH",
"565 744 OFFCURVE",
"585 709 OFFCURVE",
"590 652 CURVE",
"613 652 LINE",
"621 697 OFFCURVE",
"621 745 OFFCURVE",
"613 790 CURVE"
);
},
{
closed = 1;
nodes = (
"306 410 OFFCURVE",
"350 403 OFFCURVE",
"382 369 CURVE",
"434 425 LINE",
"402 443 OFFCURVE",
"362 455 OFFCURVE",
"303 455 CURVE SMOOTH",
"181 455 OFFCURVE",
"46 365 OFFCURVE",
"46 195 CURVE SMOOTH",
"46 60 OFFCURVE",
"129 -15 OFFCURVE",
"223 -15 CURVE SMOOTH",
"296 -15 OFFCURVE",
"348 28 OFFCURVE",
"383 77 CURVE",
"382 107 LINE",
"345 72 OFFCURVE",
"300 45 OFFCURVE",
"254 45 CURVE SMOOTH",
"179 45 OFFCURVE",
"128 114 OFFCURVE",
"128 229 CURVE SMOOTH",
"128 354 OFFCURVE",
"191 410 OFFCURVE",
"277 410 CURVE SMOOTH"
);
}
);
width = 564;
},
{
anchors = (
{
name = bottom;
position = "{298, 0}";
},
{
name = center;
position = "{298, 230}";
},
{
name = ogonek;
position = "{390, 0}";
},
{
name = top;
position = "{253, 750}";
},
{
name = topright;
position = "{593, 590}";
}
);
layerId = "C8DF7272-19F4-4290-A6F2-EFA6DE6A61D8";
paths = (
{
closed = 1;
nodes = (
"493 807 OFFCURVE",
"370 704 OFFCURVE",
"370 508 CURVE SMOOTH",
"370 82 LINE",
"373 82 LINE",
"373 42 OFFCURVE",
"370 -3 OFFCURVE",
"367 -15 CURVE",
"373 -21 LINE",
"580 76 LINE",
"570 99 LINE",
"558 96 OFFCURVE",
"551 95 OFFCURVE",
"542 95 CURVE SMOOTH",
"528 95 OFFCURVE",
"520 100 OFFCURVE",
"520 120 CURVE SMOOTH",
"520 543 LINE SMOOTH",
"520 682 OFFCURVE",
"541 733 OFFCURVE",
"580 733 CURVE SMOOTH",
"607 733 OFFCURVE",
"631 708 OFFCURVE",
"644 626 CURVE",
"667 626 LINE",
"675 671 OFFCURVE",
"675 745 OFFCURVE",
"667 790 CURVE"
);
},
{
closed = 1;
nodes = (
"325 427 OFFCURVE",
"352 411 OFFCURVE",
"370 383 CURVE",
"441 451 LINE",
"409 464 OFFCURVE",
"373 475 OFFCURVE",
"303 475 CURVE SMOOTH",
"180 475 OFFCURVE",
"30 405 OFFCURVE",
"30 214 CURVE SMOOTH",
"30 71 OFFCURVE",
"115 -15 OFFCURVE",
"211 -15 CURVE SMOOTH",
"288 -15 OFFCURVE",
"346 27 OFFCURVE",
"371 82 CURVE",
"370 117 LINE",
"348 95 OFFCURVE",
"319 85 OFFCURVE",
"294 85 CURVE SMOOTH",
"236 85 OFFCURVE",
"190 141 OFFCURVE",
"190 257 CURVE SMOOTH",
"190 360 OFFCURVE",
"235 427 OFFCURVE",
"294 427 CURVE SMOOTH"
);
}
);
width = 603;
}
);
leftKerningGroup = o;
leftMetricsKey = "=d";
unicode = 0257;
},
{
glyphname = dmiddletilde;
layers = (
{
anchors = (
{
name = bottom;
position = "{272, 0}";
},
{
name = center;
position = "{282, 221}";
},
{
name = ogonek;
position = "{435, 0}";
},
{
name = top;
position = "{410.1, 583}";
},
{
name = topright;
position = "{536, 590}";
}
);
layerId = "EA003B4E-FCCC-40A4-9C34-984F621C71B7";
paths = (
{
closed = 1;
nodes = (
"521 71 OFFCURVE",
"507 68 OFFCURVE",
"493 68 CURVE SMOOTH",
"474 68 OFFCURVE",
"462 75 OFFCURVE",
"462 112 CURVE SMOOTH",
"462 658 LINE SMOOTH",
"462 722 OFFCURVE",
"464 773 OFFCURVE",
"466 784 CURVE",
"460 790 LINE",
"287 710 LINE",
"297 687 LINE",
"313 695 OFFCURVE",
"333 701 OFFCURVE",
"351 701 CURVE SMOOTH",
"370 701 OFFCURVE",
"382 694 OFFCURVE",
"382 657 CURVE SMOOTH",
"382 446 LINE",
"360 452 OFFCURVE",
"334 455 OFFCURVE",
"303 455 CURVE SMOOTH",
"181 455 OFFCURVE",
"46 365 OFFCURVE",
"46 195 CURVE SMOOTH",
"46 60 OFFCURVE",
"129 -15 OFFCURVE",
"223 -15 CURVE SMOOTH",
"296 -15 OFFCURVE",
"348 28 OFFCURVE",
"383 77 CURVE",
"384 77 LINE",
"384 37 OFFCURVE",
"380 -3 OFFCURVE",
"377 -15 CURVE",
"383 -21 LINE",
"546 54 LINE",
"536 77 LINE"
);
},
{
closed = 1;
nodes = (
"179 45 OFFCURVE",
"128 114 OFFCURVE",
"128 229 CURVE SMOOTH",
"128 354 OFFCURVE",
"191 410 OFFCURVE",
"277 410 CURVE SMOOTH",
"306 410 OFFCURVE",
"350 403 OFFCURVE",
"382 369 CURVE",
"382 107 LINE",
"345 72 OFFCURVE",
"300 45 OFFCURVE",
"254 45 CURVE SMOOTH"
);
},
{
closed = 1;
nodes = (
"377.1 559 OFFCURVE",
"412.3 500 OFFCURVE",
"477.2 500 CURVE SMOOTH",
"528.9 500 OFFCURVE",
"563 529 OFFCURVE",
"572.9 613 CURVE",
"547.6 618 LINE",
"536.6 576 OFFCURVE",
"519 559 OFFCURVE",
"487.1 559 CURVE SMOOTH",
"439.8 559 OFFCURVE",
"404.6 618 OFFCURVE",
"339.7 618 CURVE SMOOTH",
"288 618 OFFCURVE",
"253.9 589 OFFCURVE",
"244 505 CURVE",
"269.3 500 LINE",
"280.3 542 OFFCURVE",
"297.9 559 OFFCURVE",
"329.8 559 CURVE SMOOTH"
);
}
);
width = 564;
},
{
anchors = (
{
name = bottom;
position = "{298, 0}";
},
{
name = center;
position = "{298, 230}";
},
{
name = ogonek;
position = "{390, 0}";
},
{
name = top;
position = "{455.59, 608}";
},
{
name = topright;
position = "{593, 590}";
}
);
layerId = "C8DF7272-19F4-4290-A6F2-EFA6DE6A61D8";
paths = (
{
closed = 1;
nodes = (
"558 96 OFFCURVE",
"551 95 OFFCURVE",
"542 95 CURVE SMOOTH",
"528 95 OFFCURVE",
"520 100 OFFCURVE",
"520 120 CURVE SMOOTH",
"520 658 LINE SMOOTH",
"520 722 OFFCURVE",
"522 764 OFFCURVE",
"524 784 CURVE",
"518 790 LINE",
"300 689 LINE",
"310 666 LINE",
"323 671 OFFCURVE",
"337 674 OFFCURVE",
"348 674 CURVE SMOOTH",
"362 674 OFFCURVE",
"370 669 OFFCURVE",
"370 649 CURVE SMOOTH",
"370 471 LINE",
"352 473 OFFCURVE",
"330 475 OFFCURVE",
"303 475 CURVE SMOOTH",
"180 475 OFFCURVE",
"30 405 OFFCURVE",
"30 214 CURVE SMOOTH",
"30 71 OFFCURVE",
"115 -15 OFFCURVE",
"211 -15 CURVE SMOOTH",
"288 -15 OFFCURVE",
"346 27 OFFCURVE",
"371 82 CURVE",
"373 82 LINE",
"373 42 OFFCURVE",
"370 -3 OFFCURVE",
"367 -15 CURVE",
"373 -21 LINE",
"580 76 LINE",
"570 99 LINE"
);
},
{
closed = 1;
nodes = (
"236 85 OFFCURVE",
"190 141 OFFCURVE",
"190 257 CURVE SMOOTH",
"190 360 OFFCURVE",
"235 427 OFFCURVE",
"294 427 CURVE SMOOTH",
"325 427 OFFCURVE",
"352 411 OFFCURVE",
"370 383 CURVE",
"370 117 LINE",
"348 95 OFFCURVE",
"319 85 OFFCURVE",
"294 85 CURVE SMOOTH"
);
},
{
closed = 1;
nodes = (
"389.04 536 OFFCURVE",
"453.17 477 OFFCURVE",
"518.51 477 CURVE SMOOTH",
"591.11 477 OFFCURVE",
"626.2 530 OFFCURVE",
"638.3 616 CURVE",
"610.47 621 LINE",
"599.58 580 OFFCURVE",
"576.59 562 OFFCURVE",
"537.87 562 CURVE SMOOTH",
"488.26 562 OFFCURVE",
"424.13 621 OFFCURVE",
"358.79 621 CURVE SMOOTH",
"286.19 621 OFFCURVE",
"251.1 568 OFFCURVE",
"239 482 CURVE",
"266.83 477 LINE",
"277.72 518 OFFCURVE",
"300.71 536 OFFCURVE",
"339.43 536 CURVE SMOOTH"
);
}
);
width = 603;
}
);
leftKerningGroup = o;
unicode = 1D6D;
},
{
glyphname = dtail;
layers = (
{
anchors = (
{
name = bottom;
position = "{272, 0}";
},
{
name = center;
position = "{282, 221}";
},
{
name = ogonek;
position = "{435, 0}";
},
{
name = top;
position = "{242, 750}";
},
{
name = topright;
position = "{536, 590}";
}
);
layerId = "EA003B4E-FCCC-40A4-9C34-984F621C71B7";
paths = (
{
closed = 1;
nodes = (
"590 -92 LINE",
"585 -149 OFFCURVE",
"565 -184 OFFCURVE",
"532 -184 CURVE SMOOTH",
"461 -184 OFFCURVE",
"462 -20 OFFCURVE",
"462 52 CURVE SMOOTH",
"462 658 LINE SMOOTH",
"462 722 OFFCURVE",
"464 773 OFFCURVE",
"466 784 CURVE",
"460 790 LINE",
"287 710 LINE",
"297 687 LINE",
"313 695 OFFCURVE",
"333 701 OFFCURVE",
"351 701 CURVE SMOOTH",
"370 701 OFFCURVE",
"382 694 OFFCURVE",
"382 657 CURVE SMOOTH",
"382 39 LINE SMOOTH",
"382 -148 OFFCURVE",
"451 -247 OFFCURVE",
"613 -230 CURVE",
"621 -185 OFFCURVE",
"621 -137 OFFCURVE",
"613 -92 CURVE"
);
},
{
closed = 1;
nodes = (
"306 410 OFFCURVE",
"350 403 OFFCURVE",
"382 369 CURVE",
"434 425 LINE",
"402 443 OFFCURVE",
"362 455 OFFCURVE",
"303 455 CURVE SMOOTH",
"181 455 OFFCURVE",
"46 365 OFFCURVE",
"46 195 CURVE SMOOTH",
"46 60 OFFCURVE",
"129 -15 OFFCURVE",
"223 -15 CURVE SMOOTH",
"296 -15 OFFCURVE",
"348 28 OFFCURVE",
"383 77 CURVE",
"382 107 LINE",
"345 72 OFFCURVE",
"300 45 OFFCURVE",
"254 45 CURVE SMOOTH",
"179 45 OFFCURVE",
"128 114 OFFCURVE",
"128 229 CURVE SMOOTH",
"128 354 OFFCURVE",
"191 410 OFFCURVE",
"277 410 CURVE SMOOTH"
);
}
);
width = 564;
},
{
anchors = (
{
name = bottom;
position = "{298, 0}";
},
{
name = center;
position = "{298, 230}";
},
{
name = ogonek;
position = "{390, 0}";
},
{
name = top;
position = "{253, 750}";
},
{
name = topright;
position = "{593, 590}";
}
);
layerId = "C8DF7272-19F4-4290-A6F2-EFA6DE6A61D8";
paths = (
{
closed = 1;
nodes = (
"644 -66 LINE",
"631 -148 OFFCURVE",
"607 -173 OFFCURVE",
"580 -173 CURVE SMOOTH",
"541 -173 OFFCURVE",
"520 -122 OFFCURVE",
"520 17 CURVE SMOOTH",
"520 658 LINE SMOOTH",
"520 722 OFFCURVE",
"522 764 OFFCURVE",
"524 784 CURVE",
"518 790 LINE",
"300 689 LINE",
"310 666 LINE",
"323 671 OFFCURVE",
"337 674 OFFCURVE",
"348 674 CURVE SMOOTH",
"362 674 OFFCURVE",
"370 669 OFFCURVE",
"370 649 CURVE SMOOTH",
"370 52 LINE SMOOTH",
"370 -144 OFFCURVE",
"493 -247 OFFCURVE",
"667 -230 CURVE",
"675 -185 OFFCURVE",
"675 -111 OFFCURVE",
"667 -66 CURVE"
);
},
{
closed = 1;
nodes = (
"325 427 OFFCURVE",
"352 411 OFFCURVE",
"370 383 CURVE",
"441 451 LINE",
"409 464 OFFCURVE",
"373 475 OFFCURVE",
"303 475 CURVE SMOOTH",
"180 475 OFFCURVE",
"30 405 OFFCURVE",
"30 214 CURVE SMOOTH",
"30 71 OFFCURVE",
"115 -15 OFFCURVE",
"211 -15 CURVE SMOOTH",
"288 -15 OFFCURVE",
"346 27 OFFCURVE",
"371 82 CURVE",
"370 117 LINE",
"348 95 OFFCURVE",
"319 85 OFFCURVE",
"294 85 CURVE SMOOTH",
"236 85 OFFCURVE",
"190 141 OFFCURVE",
"190 257 CURVE SMOOTH",
"190 360 OFFCURVE",
"235 427 OFFCURVE",
"294 427 CURVE SMOOTH"
);
}
);
width = 603;
}
);
leftKerningGroup = o;
leftMetricsKey = "=d";
unicode = 0256;
},
{
glyphname = dzaltone;
layers = (
{
anchors = (
{
name = bottom;
position = "{272, 0}";
},
{
name = center;
position = "{282, 221}";
},
{
name = ogonek;
position = "{435, 0}";
},
{
name = top;
position = "{242, 750}";
},
{
name = topright;
position = "{536, 590}";
}
);
layerId = "EA003B4E-FCCC-40A4-9C34-984F621C71B7";
paths = (
{
closed = 1;
nodes = (
"462 658 LINE",
"462 722 OFFCURVE",
"464 773 OFFCURVE",
"466 784 CURVE",
"460 790 LINE",
"287 710 LINE",
"297 687 LINE",
"313 695 OFFCURVE",
"333 701 OFFCURVE",
"351 701 CURVE SMOOTH",
"370 701 OFFCURVE",
"382 694 OFFCURVE",
"382 657 CURVE SMOOTH",
"382 77 LINE",
"384 77 LINE",
"384 37 OFFCURVE",
"380 -3 OFFCURVE",
"377 -15 CURVE",
"383 -21 LINE",
"462 15 LINE"
);
},
{
closed = 1;
nodes = (
"903 0 LINE",
"911 147 LINE",
"888 147 LINE",
"882 87 OFFCURVE",
"853 37 OFFCURVE",
"756 35 CURVE SMOOTH",
"621 31 LINE",
"621 34 LINE",
"853 365 LINE SMOOTH",
"865 382 OFFCURVE",
"881 402 OFFCURVE",
"895 417 CURVE",
"895 440 LINE",
"439 440 LINE",
"439 298 LINE",
"462 298 LINE",
"462 367 OFFCURVE",
"476 404 OFFCURVE",
"558 405 CURVE SMOOTH",
"786 409 LINE",
"786 406 LINE",
"555 75 LINE SMOOTH",
"543 58 OFFCURVE",
"527 39 OFFCURVE",
"513 23 CURVE",
"513 0 LINE"
);
},
{
closed = 1;
nodes = (
"306 410 OFFCURVE",
"350 403 OFFCURVE",
"382 369 CURVE",
"434 425 LINE",
"402 443 OFFCURVE",
"362 455 OFFCURVE",
"303 455 CURVE SMOOTH",
"181 455 OFFCURVE",
"46 365 OFFCURVE",
"46 195 CURVE SMOOTH",
"46 60 OFFCURVE",
"129 -15 OFFCURVE",
"223 -15 CURVE SMOOTH",
"296 -15 OFFCURVE",
"348 28 OFFCURVE",
"383 77 CURVE",
"382 107 LINE",
"345 72 OFFCURVE",
"300 45 OFFCURVE",
"254 45 CURVE SMOOTH",
"179 45 OFFCURVE",
"128 114 OFFCURVE",
"128 229 CURVE SMOOTH",
"128 354 OFFCURVE",
"191 410 OFFCURVE",
"277 410 CURVE SMOOTH"
);
}
);
width = 944;
},
{
anchors = (
{
name = bottom;
position = "{298, 0}";
},
{
name = center;
position = "{298, 230}";
},
{
name = ogonek;
position = "{390, 0}";
},
{
name = top;
position = "{253, 750}";
},
{
name = topright;
position = "{593, 590}";
}
);
layerId = "C8DF7272-19F4-4290-A6F2-EFA6DE6A61D8";
paths = (
{
closed = 1;
nodes = (
"520 658 LINE",
"520 722 OFFCURVE",
"522 764 OFFCURVE",
"524 784 CURVE",
"518 790 LINE",
"300 689 LINE",
"310 666 LINE",
"323 671 OFFCURVE",
"337 674 OFFCURVE",
"348 674 CURVE SMOOTH",
"362 674 OFFCURVE",
"370 669 OFFCURVE",
"370 649 CURVE SMOOTH",
"370 82 LINE",
"373 82 LINE",
"373 42 OFFCURVE",
"370 -3 OFFCURVE",
"367 -15 CURVE",
"373 -21 LINE",
"520 48 LINE"
);
},
{
closed = 1;
nodes = (
"1003 0 LINE",
"1011 165 LINE",
"988 165 LINE",
"982 113 OFFCURVE",
"952 55 OFFCURVE",
"883 50 CURVE SMOOTH",
"749 40 LINE",
"749 42 LINE",
"965 385 LINE SMOOTH",
"978 405 OFFCURVE",
"992 424 OFFCURVE",
"1004 437 CURVE",
"1004 460 LINE",
"497 460 LINE",
"497 300 LINE",
"520 300 LINE",
"520 360 OFFCURVE",
"543 407 OFFCURVE",
"598 410 CURVE SMOOTH",
"811 420 LINE",
"811 418 LINE",
"591 75 LINE SMOOTH",
"576 51 OFFCURVE",
"564 36 OFFCURVE",
"551 23 CURVE",
"551 0 LINE"
);
},
{
closed = 1;
nodes = (
"325 427 OFFCURVE",
"352 411 OFFCURVE",
"370 383 CURVE",
"441 451 LINE",
"409 464 OFFCURVE",
"373 475 OFFCURVE",
"303 475 CURVE SMOOTH",
"180 475 OFFCURVE",
"30 405 OFFCURVE",
"30 214 CURVE SMOOTH",
"30 71 OFFCURVE",
"115 -15 OFFCURVE",
"211 -15 CURVE SMOOTH",
"288 -15 OFFCURVE",
"346 27 OFFCURVE",
"371 82 CURVE",
"370 117 LINE",
"348 95 OFFCURVE",
"319 85 OFFCURVE",
"294 85 CURVE SMOOTH",
"236 85 OFFCURVE",
"190 141 OFFCURVE",
"190 257 CURVE SMOOTH",
"190 360 OFFCURVE",
"235 427 OFFCURVE",
"294 427 CURVE SMOOTH"
);
}
);
width = 1034;
}
);
leftKerningGroup = o;
leftMetricsKey = "=d";
rightKerningGroup = n;
rightMetricsKey = "=z";
unicode = 02A3;
},
{
glyphname = dzcurl;
layers = (
{
anchors = (
{
name = bottom;
position = "{272, 0}";
},
{
name = center;
position = "{282, 221}";
},
{
name = ogonek;
position = "{435, 0}";
},
{
name = top;
position = "{242, 750}";
},
{
name = topright;
position = "{536, 590}";
}
);
layerId = "EA003B4E-FCCC-40A4-9C34-984F621C71B7";
paths = (
{
closed = 1;
nodes = (
"462 658 LINE",
"462 722 OFFCURVE",
"464 773 OFFCURVE",
"466 784 CURVE",
"460 790 LINE",
"287 710 LINE",
"297 687 LINE",
"313 695 OFFCURVE",
"333 701 OFFCURVE",
"351 701 CURVE SMOOTH",
"370 701 OFFCURVE",
"382 694 OFFCURVE",
"382 657 CURVE SMOOTH",
"382 77 LINE",
"384 77 LINE",
"384 37 OFFCURVE",
"380 -3 OFFCURVE",
"377 -15 CURVE",
"383 -21 LINE",
"462 15 LINE"
);
},
{
closed = 1;
nodes = (
"638 59 LINE",
"638 62 LINE",
"853 365 LINE SMOOTH",
"865 382 OFFCURVE",
"882 402 OFFCURVE",
"895 417 CURVE",
"895 440 LINE",
"439 440 LINE",
"439 298 LINE",
"462 298 LINE",
"462 379 OFFCURVE",
"485 404 OFFCURVE",
"558 405 CURVE SMOOTH",
"786 409 LINE",
"786 406 LINE",
"555 75 LINE SMOOTH",
"543 58 OFFCURVE",
"529 43 OFFCURVE",
"513 23 CURVE",
"513 0 LINE"
);
},
{
closed = 1;
nodes = (
"719 -105 LINE",
"729 17 OFFCURVE",
"740 165 OFFCURVE",
"828 165 CURVE",
"862 165 OFFCURVE",
"875 144 OFFCURVE",
"875 116 CURVE",
"875 83 OFFCURVE",
"848 59 OFFCURVE",
"808 59 CURVE SMOOTH",
"638 59 LINE",
"513 0 LINE",
"786 0 LINE",
"873 0 OFFCURVE",
"932 42 OFFCURVE",
"932 120 CURVE",
"932 174 OFFCURVE",
"896 201 OFFCURVE",
"838 201 CURVE",
"716 201 OFFCURVE",
"696 38 OFFCURVE",
"696 -105 CURVE"
);
},
{
closed = 1;
nodes = (
"306 410 OFFCURVE",
"350 403 OFFCURVE",
"382 369 CURVE",
"434 425 LINE",
"402 443 OFFCURVE",
"362 455 OFFCURVE",
"303 455 CURVE SMOOTH",
"181 455 OFFCURVE",
"46 365 OFFCURVE",
"46 195 CURVE SMOOTH",
"46 60 OFFCURVE",
"129 -15 OFFCURVE",
"223 -15 CURVE SMOOTH",
"296 -15 OFFCURVE",
"348 28 OFFCURVE",
"383 77 CURVE",
"382 107 LINE",
"345 72 OFFCURVE",
"300 45 OFFCURVE",
"254 45 CURVE SMOOTH",
"179 45 OFFCURVE",
"128 114 OFFCURVE",
"128 229 CURVE SMOOTH",
"128 354 OFFCURVE",
"191 410 OFFCURVE",
"277 410 CURVE SMOOTH"
);
}
);
width = 965;
},
{
anchors = (
{
name = bottom;
position = "{298, 0}";
},
{
name = center;
position = "{298, 230}";
},
{
name = ogonek;
position = "{390, 0}";
},
{
name = top;
position = "{253, 750}";
},
{
name = topright;
position = "{593, 590}";
}
);
layerId = "C8DF7272-19F4-4290-A6F2-EFA6DE6A61D8";
paths = (
{
closed = 1;
nodes = (
"520 658 LINE",
"520 722 OFFCURVE",
"522 764 OFFCURVE",
"524 784 CURVE",
"518 790 LINE",
"300 689 LINE",
"310 666 LINE",
"323 671 OFFCURVE",
"337 674 OFFCURVE",
"348 674 CURVE SMOOTH",
"362 674 OFFCURVE",
"370 669 OFFCURVE",
"370 649 CURVE SMOOTH",
"370 82 LINE",
"373 82 LINE",
"373 42 OFFCURVE",
"370 -3 OFFCURVE",
"367 -15 CURVE",
"373 -21 LINE",
"520 48 LINE"
);
},
{
closed = 1;
nodes = (
"762 70 LINE",
"762 72 LINE",
"965 385 LINE SMOOTH",
"978 405 OFFCURVE",
"992 423 OFFCURVE",
"1004 437 CURVE",
"1004 460 LINE",
"497 460 LINE",
"497 300 LINE",
"520 300 LINE",
"520 360 OFFCURVE",
"543 407 OFFCURVE",
"598 410 CURVE SMOOTH",
"811 420 LINE",
"811 418 LINE",
"591 75 LINE SMOOTH",
"588 70 OFFCURVE",
"568 39 OFFCURVE",
"551 23 CURVE",
"551 0 LINE"
);
},
{
closed = 1;
nodes = (
"833 -105 LINE",
"843 21 OFFCURVE",
"853 175 OFFCURVE",
"949 175 CURVE SMOOTH",
"983 175 OFFCURVE",
"1001 155 OFFCURVE",
"1001 127 CURVE SMOOTH",
"1001 88 OFFCURVE",
"966 70 OFFCURVE",
"924 70 CURVE SMOOTH",
"762 70 LINE",
"551 0 LINE",
"890 1 LINE",
"997 1 OFFCURVE",
"1068 43 OFFCURVE",
"1068 125 CURVE SMOOTH",
"1068 188 OFFCURVE",
"1027 221 OFFCURVE",
"968 221 CURVE SMOOTH",
"832 221 OFFCURVE",
"810 47 OFFCURVE",
"810 -105 CURVE"
);
},
{
closed = 1;
nodes = (
"325 427 OFFCURVE",
"352 411 OFFCURVE",
"370 383 CURVE",
"441 451 LINE",
"409 464 OFFCURVE",
"373 475 OFFCURVE",
"303 475 CURVE SMOOTH",
"180 475 OFFCURVE",
"30 405 OFFCURVE",
"30 214 CURVE SMOOTH",
"30 71 OFFCURVE",
"115 -15 OFFCURVE",
"211 -15 CURVE SMOOTH",
"288 -15 OFFCURVE",
"346 27 OFFCURVE",
"371 82 CURVE",
"370 117 LINE",
"348 95 OFFCURVE",
"319 85 OFFCURVE",
"294 85 CURVE SMOOTH",
"236 85 OFFCURVE",
"190 141 OFFCURVE",
"190 257 CURVE SMOOTH",
"190 360 OFFCURVE",
"235 427 OFFCURVE",
"294 427 CURVE SMOOTH"
);
}
);
width = 1091;
}
);
leftKerningGroup = o;
leftMetricsKey = "=o";
rightKerningGroup = n;
rightMetricsKey = "=z";
unicode = 02A5;
},
{
glyphname = e;
layers = (
{
anchors = (
{
name = bottom;
position = "{263, 0}";
},
{
name = ogonek;
position = "{385, 0}";
},
{
name = top;
position = "{253, 460}";
}
);
layerId = "C8DF7272-19F4-4290-A6F2-EFA6DE6A61D8";
paths = (
{
closed = 1;
nodes = (
"384 -15 OFFCURVE",
"445 43 OFFCURVE",
"482 133 CURVE",
"466 149 LINE",
"426 111 OFFCURVE",
"371 100 OFFCURVE",
"333 100 CURVE SMOOTH",
"250 100 OFFCURVE",
"180 152 OFFCURVE",
"180 284 CURVE SMOOTH",
"180 375 OFFCURVE",
"211 432 OFFCURVE",
"259 432 CURVE SMOOTH",
"312 432 OFFCURVE",
"326 363 OFFCURVE",
"326 289 CURVE",
"476 296 LINE",
"476 403 OFFCURVE",
"412 475 OFFCURVE",
"289 475 CURVE SMOOTH",
"152 475 OFFCURVE",
"30 385 OFFCURVE",
"30 225 CURVE SMOOTH",
"30 76 OFFCURVE",
"137 -15 OFFCURVE",
"274 -15 CURVE SMOOTH"
);
},
{
closed = 1;
nodes = (
"476 296 LINE",
"469 335 LINE",
"144 295 LINE",
"146 255 LINE"
);
}
);
width = 504;
},
{
anchors = (
{
name = bottom;
position = "{263, 0}";
},
{
name = ogonek;
position = "{357, 0}";
},
{
name = top;
position = "{246, 440}";
}
);
layerId = "EA003B4E-FCCC-40A4-9C34-984F621C71B7";
paths = (
{
closed = 1;
nodes = (
"330 -15 OFFCURVE",
"393 29 OFFCURVE",
"431 93 CURVE",
"415 109 LINE",
"379 76 OFFCURVE",
"333 51 OFFCURVE",
"280 51 CURVE SMOOTH",
"187 51 OFFCURVE",
"126 124 OFFCURVE",
"126 247 CURVE SMOOTH",
"126 339 OFFCURVE",
"161 418 OFFCURVE",
"244 418 CURVE SMOOTH",
"312 418 OFFCURVE",
"333 363 OFFCURVE",
"338 296 CURVE",
"426 297 LINE",
"426 404 OFFCURVE",
"351 455 OFFCURVE",
"265 455 CURVE SMOOTH",
"146 455 OFFCURVE",
"46 356 OFFCURVE",
"46 205 CURVE SMOOTH",
"46 55 OFFCURVE",
"146 -15 OFFCURVE",
"249 -15 CURVE SMOOTH"
);
},
{
closed = 1;
nodes = (
"426 297 LINE",
"422 328 LINE",
"120 289 LINE",
"122 257 LINE"
);
}
);
width = 462;
}
);
leftKerningGroup = o;
leftMetricsKey = "=o";
rightKerningGroup = o;
unicode = 0065;
},
{
glyphname = eogonek;
layers = (
{
anchors = (
{
name = _ogonek;
position = "{385, 0}";
},
{
name = bottom;
position = "{246, 0}";
},
{
name = ogonek;
position = "{348, 0}";
},
{
name = top;
position = "{276, 460}";
}
);
layerId = "C8DF7272-19F4-4290-A6F2-EFA6DE6A61D8";
paths = (
{
closed = 1;
nodes = (
"476 296 LINE",
"469 335 LINE",
"144 295 LINE",
"146 255 LINE"
);
},
{
closed = 1;
nodes = (
"417 43 OFFCURVE",
"455 76 OFFCURVE",
"482 133 CURVE",
"466 149 LINE",
"426 111 OFFCURVE",
"371 100 OFFCURVE",
"333 100 CURVE SMOOTH",
"250 100 OFFCURVE",
"180 152 OFFCURVE",
"180 284 CURVE SMOOTH",
"180 375 OFFCURVE",
"211 432 OFFCURVE",
"259 432 CURVE SMOOTH",
"312 432 OFFCURVE",
"326 363 OFFCURVE",
"326 289 CURVE",
"476 296 LINE",
"476 403 OFFCURVE",
"412 475 OFFCURVE",
"289 475 CURVE SMOOTH",
"152 475 OFFCURVE",
"30 385 OFFCURVE",
"30 225 CURVE SMOOTH",
"30 76 OFFCURVE",
"135 -15 OFFCURVE",
"266 -15 CURVE SMOOTH",
"280 -15 OFFCURVE",
"301 -14 OFFCURVE",
"308 -13 CURVE",
"308 -15 LINE",
"244 -50 OFFCURVE",
"208 -102 OFFCURVE",
"208 -150 CURVE SMOOTH",
"208 -208 OFFCURVE",
"257 -235 OFFCURVE",
"303 -235 CURVE SMOOTH",
"338 -235 OFFCURVE",
"374 -219 OFFCURVE",
"396 -190 CURVE",
"385 -174 LINE",
"347 -180 OFFCURVE",
"315 -172 OFFCURVE",
"315 -121 CURVE SMOOTH",
"315 -101 OFFCURVE",
"322 -37 OFFCURVE",
"386 17 CURVE SMOOTH"
);
}
);
width = 504;
},
{
anchors = (
{
name = _ogonek;
position = "{357, 0}";
},
{
name = bottom;
position = "{227, 0}";
},
{
name = ogonek;
position = "{305, 0}";
},
{
name = top;
position = "{249, 442}";
}
);
layerId = "EA003B4E-FCCC-40A4-9C34-984F621C71B7";
paths = (
{
closed = 1;
nodes = (
"426 297 LINE",
"422 328 LINE",
"120 289 LINE",
"122 257 LINE"
);
},
{
closed = 1;
nodes = (
"380 36 OFFCURVE",
"409 56 OFFCURVE",
"431 93 CURVE",
"415 109 LINE",
"379 76 OFFCURVE",
"333 51 OFFCURVE",
"279 51 CURVE SMOOTH",
"187 51 OFFCURVE",
"126 124 OFFCURVE",
"126 247 CURVE SMOOTH",
"126 339 OFFCURVE",
"161 418 OFFCURVE",
"244 418 CURVE SMOOTH",
"312 418 OFFCURVE",
"333 363 OFFCURVE",
"338 296 CURVE",
"426 297 LINE",
"426 404 OFFCURVE",
"351 455 OFFCURVE",
"265 455 CURVE SMOOTH",
"146 455 OFFCURVE",
"46 356 OFFCURVE",
"46 205 CURVE SMOOTH",
"46 55 OFFCURVE",
"143 -15 OFFCURVE",
"246 -15 CURVE SMOOTH",
"259 -15 OFFCURVE",
"275 -14 OFFCURVE",
"286 -11 CURVE",
"286 -13 LINE",
"241 -48 OFFCURVE",
"195 -100 OFFCURVE",
"195 -154 CURVE SMOOTH",
"195 -204 OFFCURVE",
"233 -235 OFFCURVE",
"280 -235 CURVE SMOOTH",
"306 -235 OFFCURVE",
"341 -226 OFFCURVE",
"363 -201 CURVE",
"352 -185 LINE",
"309 -195 OFFCURVE",
"265 -186 OFFCURVE",
"265 -131 CURVE SMOOTH",
"265 -93 OFFCURVE",
"286 -46 OFFCURVE",
"355 14 CURVE SMOOTH"
);
}
);
width = 462;
}
);
leftKerningGroup = o;
leftMetricsKey = "=e";
rightKerningGroup = o;
rightMetricsKey = "=e";
unicode = 0119;
},
{
glyphname = eopen;
layers = (
{
anchors = (
{
name = bottom;
position = "{211, 0}";
},
{
name = top;
position = "{241, 440}";
}
);
layerId = "EA003B4E-FCCC-40A4-9C34-984F621C71B7";
paths = (
{
closed = 1;
nodes = (
"105 232 OFFCURVE",
"46 186 OFFCURVE",
"46 114 CURVE SMOOTH",
"46 32 OFFCURVE",
"111 -15 OFFCURVE",
"230 -15 CURVE SMOOTH",
"291 -15 OFFCURVE",
"348 2 OFFCURVE",
"377 14 CURVE",
"385 129 LINE",
"362 129 LINE",
"339 42 OFFCURVE",
"289 18 OFFCURVE",
"231 18 CURVE SMOOTH",
"152 18 OFFCURVE",
"131 71 OFFCURVE",
"131 118 CURVE SMOOTH",
"131 183 OFFCURVE",
"188 219 OFFCURVE",
"303 216 CURVE",
"303 252 LINE",
"187 252 OFFCURVE",
"150 295 OFFCURVE",
"150 345 CURVE SMOOTH",
"150 386 OFFCURVE",
"178 415 OFFCURVE",
"236 415 CURVE SMOOTH",
"303 415 OFFCURVE",
"337 385 OFFCURVE",
"354 311 CURVE",
"377 311 LINE",
"377 417 LINE",
"345 436 OFFCURVE",
"306 455 OFFCURVE",
"237 455 CURVE SMOOTH",
"137 455 OFFCURVE",
"68 413 OFFCURVE",
"68 343 CURVE SMOOTH",
"68 286 OFFCURVE",
"110 257 OFFCURVE",
"180 240 CURVE",
"180 239 LINE"
);
}
);
width = 422;
},
{
anchors = (
{
name = bottom;
position = "{225, 0}";
},
{
name = top;
position = "{255, 460}";
}
);
layerId = "C8DF7272-19F4-4290-A6F2-EFA6DE6A61D8";
paths = (
{
closed = 1;
nodes = (
"79 244 OFFCURVE",
"30 188 OFFCURVE",
"30 120 CURVE SMOOTH",
"30 23 OFFCURVE",
"126 -15 OFFCURVE",
"245 -15 CURVE SMOOTH",
"326 -15 OFFCURVE",
"387 1 OFFCURVE",
"420 15 CURVE",
"426 155 LINE",
"403 155 LINE",
"377 71 OFFCURVE",
"342 28 OFFCURVE",
"276 28 CURVE SMOOTH",
"215 28 OFFCURVE",
"190 75 OFFCURVE",
"190 117 CURVE SMOOTH",
"190 181 OFFCURVE",
"245 218 OFFCURVE",
"337 220 CURVE",
"337 263 LINE",
"244 263 OFFCURVE",
"205 302 OFFCURVE",
"205 357 CURVE SMOOTH",
"205 405 OFFCURVE",
"236 432 OFFCURVE",
"281 432 CURVE SMOOTH",
"329 432 OFFCURVE",
"372 402 OFFCURVE",
"397 301 CURVE",
"420 301 LINE",
"420 432 LINE",
"385 453 OFFCURVE",
"337 475 OFFCURVE",
"259 475 CURVE SMOOTH",
"106 475 OFFCURVE",
"45 422 OFFCURVE",
"45 358 CURVE SMOOTH",
"45 308 OFFCURVE",
"82 265 OFFCURVE",
"197 253 CURVE",
"197 251 LINE"
);
}
);
width = 450;
}
);
leftKerningGroup = o;
leftMetricsKey = "=c";
rightKerningGroup = o;
rightMetricsKey = "=c";
unicode = 025B;
},
